<svg xmlns="http://www.w3.org/2000/svg" viewBox="0 0 476.51 569.52"><defs><style>.cls-1{fill:#600;}.cls-2{fill:#030;}.cls-3{fill:#002e00;}</style></defs><g id="Layer_2" data-name="Layer 2"><g id="Layer_1-2" data-name="Layer 1"><path class="cls-1" d="M159.94,539.88A247.35,247.35,0,0,0,205,549.55a218.2,218.2,0,0,0,22.79,1.62,220.45,220.45,0,0,0,22.72-.68c1.88-.19,3.76-.33,5.64-.56l5.61-.71,5.59-.85c1.86-.31,3.71-.67,5.56-1a189.87,189.87,0,0,0,21.82-5.65,187.57,187.57,0,0,0,40.85-18.58,182.31,182.31,0,0,0,18.57-12.64A208.87,208.87,0,0,0,371,495.57c10.85-10.43,20.14-22.42,28.61-35,4.23-6.31,8-12.92,11.63-19.6s6.93-13.6,10-20.63a268.27,268.27,0,0,0,14.86-43.66l.66.09a195.45,195.45,0,0,1-5,22.73q-3.11,11.21-7.23,22.11a243.42,243.42,0,0,1-20.43,41.75c-1,1.67-2.09,3.26-3.13,4.91s-2.11,3.26-3.25,4.83l-3.35,4.76-3.53,4.63c-1.16,1.56-2.4,3.06-3.65,4.54s-2.45,3-3.74,4.46c-2.62,2.85-5.15,5.81-7.94,8.51a196.72,196.72,0,0,1-17.28,15.62,193.12,193.12,0,0,1-19.15,13.26l-5,3-5.16,2.71c-3.39,1.9-7,3.42-10.5,5.06a181.34,181.34,0,0,1-21.81,8.14,193,193,0,0,1-45.79,8,211.33,211.33,0,0,1-46.39-2.72,214.17,214.17,0,0,1-44.72-12.56Z"/><path class="cls-1" d="M159.94,539.88q11,3,22.15,5.09c7.44,1.39,14.92,2.46,22.44,3.15s15,1.14,22.56,1.12a218,218,0,0,0,22.48-1.09c7.4-.81,14.94-1.91,22.23-3.46a182.71,182.71,0,0,0,21.57-5.93,188.75,188.75,0,0,0,40.35-19c3.22-1.92,6.24-3.94,9.28-6.09q2.26-1.62,4.51-3.3c1.47-1.12,3-2.28,4.38-3.37,2.81-2.34,5.7-4.81,8.45-7.27s5.4-5,8.06-7.7c10.56-10.4,19.56-22.31,27.77-34.76,4-6.16,7.63-12.71,11.23-19.3S414,424.71,417,417.82a264.21,264.21,0,0,0,14.22-42.3l1.05-4.35,4.46.59.66.09,5,.67-.73,5a192,192,0,0,1-5.14,23.32q-3.21,11.44-7.43,22.53a245.61,245.61,0,0,1-20.95,42.5l-3.24,5-3.43,5-3.41,4.77-3.61,4.65L390.6,490l-3.87,4.53-4,4.31-2.07,2.19-1.08,1.09-1,1-2.07,2.08-2.17,2.08c-1.45,1.37-2.93,2.71-4.42,4s-3,2.59-4.51,3.86l-4.6,3.78-2.42,1.8L356,522.51q-2.4,1.72-4.85,3.41c-3.27,2.23-6.65,4.38-10.11,6.37l-5.12,3-5.24,2.67c-1.74,1-3.63,1.85-5.43,2.66L319.9,543a174.46,174.46,0,0,1-22.35,8A195.91,195.91,0,0,1,251,558.28a210.45,210.45,0,0,1-46.77-3.81,226.09,226.09,0,0,1-22.69-5.71,201.73,201.73,0,0,1-21.83-8.23h0v0Zm0,0-.24.64,0,0a202.6,202.6,0,0,0,22.24,6.76,226.68,226.68,0,0,0,22.75,4.43,211.77,211.77,0,0,0,46,1.62,190.3,190.3,0,0,0,44.95-8.69,183.25,183.25,0,0,0,21.25-8.28l5.22-2.48c1.73-.83,3.32-1.64,5-2.58l5.07-2.75,4.88-3c3.23-2,6.35-4.06,9.43-6.29q2.31-1.66,4.59-3.4l4.49-3.48,4.34-3.67q2.17-1.87,4.29-3.79t4.14-3.87l2-2,2-2.08,1-1,.95-1,1.9-2.07,3.86-4.32,3.61-4.38,3.45-4.37,3.46-4.6,3.29-4.75,3.07-4.65,3-4.82a241.42,241.42,0,0,0,19.94-41q4-10.71,7-21.72a198.83,198.83,0,0,0,4.82-22.16l4.26,5.68-.66-.09,5.52-3.76a274.84,274.84,0,0,1-15,43.8c-3.05,7-6.35,14.05-10.07,20.88S408.37,456,404,462.45s-8.88,12.6-13.77,18.62a186.3,186.3,0,0,1-15.72,17.15c-2.7,2.66-5.61,5.37-8.52,7.89s-5.86,4.95-9,7.39c-1.63,1.24-3.15,2.31-4.72,3.44s-3.16,2.22-4.76,3.3c-3.2,2.16-6.55,4.27-9.89,6.15C311.14,542.21,280.52,551.12,250,553a225.91,225.91,0,0,1-23,.1,204.33,204.33,0,0,1-22.81-2.24c-7.54-1.1-15-2.57-22.42-4.4S167.11,542.38,159.94,539.88Z"/><path class="cls-2" d="M392.15,123.69l-7.24,28c-.41,1.61-.84,3.46-1.24,5.22l-1.17,5.4c-.75,3.62-1.44,7.25-2.11,10.89q-2,11-3.66,22-3.33,22.06-5.56,44.36c-.4,3.71-.69,7.43-1.05,11.15s-.68,7.43-.95,11.16L368.28,273l-.77,11.19c-.56,7.45-.9,14.91-1.3,22.38s-.64,14.89-.8,22.36-.17,15-.4,22.52a224.7,224.7,0,0,1-1.56,22.89A110.06,110.06,0,0,1,358.16,397c-.68,1.8-1.32,3.63-2.05,5.42l-2.3,5.3c-1.73,3.44-3.35,6.92-5.33,10.21a144.46,144.46,0,0,1-28.61,35.46,187.32,187.32,0,0,1-36.88,26A205,205,0,0,0,317.63,451a147.74,147.74,0,0,0,25.78-35.87c1.72-3.25,3.1-6.66,4.57-10l1.93-5.13,1.7-5.19a103.23,103.23,0,0,0,4.07-21.35c1.26-14.51.23-29.49.19-44.57-.07-7.53-.08-15.14.13-22.66s.3-15.07.64-22.6c.45-15.08,1.52-30.12,2.7-45.17s2.84-30.08,4.83-45.08c.95-7.33,3.34-22,3.34-22s-3.69,3.58-5.56,5.34Q350.64,187.41,338.47,197a338.85,338.85,0,0,1-52,33.77,309,309,0,0,1-28.29,13,263,263,0,0,1-29.65,9.64,246.54,246.54,0,0,1-30.63,6c-10.38,1.34-20.68,1.77-30.61,2.55-4.95.41-9.8.92-14.5,1.77a61.48,61.48,0,0,0-13.38,4c-1,.51-2.11.9-3.11,1.48l-3,1.7c-1,.6-1.9,1.3-2.85,1.95-.47.33-1,.63-1.41,1L127.67,275c-.87.77-1.81,1.46-2.63,2.29l-2.48,2.47a56.22,56.22,0,0,0-4.41,5.41,60.88,60.88,0,0,0-6.85,12.37,99,99,0,0,0-4.67,13.83,273.92,273.92,0,0,0-5.79,29.43l-2.2,15c-.72,5-1.46,10-2.11,15-1.31,10-2.29,20.08-3,30.17s-1.3,20.2-1.54,30.33-.25,20.3-.06,30.46c-1.06-10.11-1.77-20.26-2.2-30.43s-.53-20.36-.38-30.56.69-20.38,1.47-30.56,1.75-20.26,2.88-30.43a286.89,286.89,0,0,1,4.73-30.52,108.24,108.24,0,0,1,4.46-15.2,67.91,67.91,0,0,1,7.44-14.44,64.68,64.68,0,0,1,5-6.53l2.84-3c.94-1,2-1.86,3-2.79l1.54-1.36c.52-.46,1.1-.84,1.65-1.27,1.12-.82,2.21-1.68,3.36-2.44l3.56-2.17c1.19-.72,2.48-1.26,3.71-1.9a71.43,71.43,0,0,1,15.57-5.2,153.22,153.22,0,0,1,15.65-2.38c10.29-1,20.3-1.59,30-3a234.16,234.16,0,0,0,29-6.19,282,282,0,0,0,28.11-9.6,292.09,292.09,0,0,0,27-12.6,326.94,326.94,0,0,0,49.82-32.74c7.84-6.14,15.41-12.65,22.68-19.44,3.63-3.4,7.21-6.86,10.67-10.42,1.72-1.78,3.44-3.58,5.12-5.38s3.36-3.69,4.82-5.41Z"/><path class="cls-3" d="M392.15,123.69c-.91,3.72-1.7,7.47-2.41,11.43s-1.44,8.11-2.25,12.31l-.62,3.16-.31,1.58-.27,1.49c-.36,2-.73,4-1,6-.69,4-1.17,8-1.75,12-1,8-1.88,16.11-2.83,24.15s-1.52,16.13-2.15,24.2-1.15,16.12-1.54,24.25c-.2,4-.43,8.09-.59,12.1l-.5,12.12c-.32,8.12-.51,16.27-.65,24.34L375,304.93c-.09,4,0,8,0,12.06l0,12,.23,12.25c0,4.09.13,8.15.15,12.27s-.05,8.38-.23,12.66c-.1,2.14-.22,4.3-.4,6.48s-.38,4.32-.66,6.56a122.56,122.56,0,0,1-2.38,13.22q-.78,3.29-1.76,6.55c-.71,2.41-1.46,4.36-2.2,6.51l-.56,1.59-.62,1.53-1.24,3.06-.31.76-.15.39-.23.48-.69,1.49-1.31,2.83c-.9,1.93-1.95,4.07-3.1,6.13L358,426.54l-1.65,2.89c-2.25,3.84-4.69,7.57-7.28,11.19a163.72,163.72,0,0,1-17.17,20.23c-3.1,3.08-6.31,6.1-9.66,9s-6.78,5.63-10.29,8.25a222.56,222.56,0,0,1-21.82,14.33L274.77,467q8.13-5.69,15.59-11.93A169.89,169.89,0,0,0,304.41,442c2.15-2.25,4.27-4.65,6.31-7.08s4-4.91,5.85-7.43a123.71,123.71,0,0,0,9.83-15.64l1-2,1.08-2.23.52-1.05.41-.9.86-2,1.91-4.62.11-.29.19-.53.37-1.05.75-2.11c.5-1.4.93-3,1.41-4.46.1-.35.26-.81.32-1.07l.25-.91.53-2.11a84,84,0,0,0,1.58-8.57c.4-2.89.61-5.77.76-8.94s.19-6.28.17-9.54c0-6.51-.36-13.33-.61-20.42-.13-3.54-.25-7.2-.3-10.77l-.06-10.77-.05-10.76c0-3.56.11-7.06.17-10.59l.18-10.58.1-5.22.15-5.4c.24-7.19.59-14.34,1-21.43s.83-14.05,1.4-21.27,1.21-14.23,1.94-21.34,1.53-14.23,2.46-21.27l3.12-21.32,33,17.25-6.43,6.21q-3.28,3.1-6.64,6.13-6.71,6.06-13.74,11.8c-4.75,3.87-9.53,7.51-14.38,11.08s-9.82,7-14.87,10.37a332.69,332.69,0,0,1-31.43,18.41q-8.12,4.19-16.46,7.91c-5.58,2.48-11.14,4.81-17.07,7s-11.71,4.06-17.57,5.79c-2.91.86-5.91,1.69-8.74,2.44-1.47.39-3,.79-4.55,1.17s-3.07.74-4.6,1.08c-6.12,1.36-12.2,2.45-18.2,3.34l-4.5.65c-1.49.22-3.24.43-4.76.59-3.11.35-6.18.63-9.18.86-6,.48-11.78.79-17.27,1.18a145.39,145.39,0,0,0-14.84,1.65,41.53,41.53,0,0,0-5.69,1.43c-.45.14-.91.3-1.35.46l-.67.26-.56.22-.07,0h0l-.36.17-1.29.57-.28.12.23-.13h0l-1.73,1-.87.48-.51.37-1,.7c-.29.22,0,0-.32.16l-2.74,2.26-2.36,2.32.94-1c-1.46,1.65-2.42,2.73-2.81,3.25l-.14.19-.39.55-.67.94q-.57.81-1.08,1.65c-.7,1.12-1.34,2.28-1.94,3.48-.3.61-.56,1.18-.85,1.85l-1,2.25a80.74,80.74,0,0,0-3,9l-.69,2.57-.64,2.53c-.42,1.71-.82,3.43-1.19,5.18-1.5,7-2.8,14.38-4,22l-1.81,11.48-1.72,11.38c-.6,3.82-1.07,7.46-1.54,11.22s-.88,7.48-1.26,11.24-.72,7.52-1,11.36-.6,7.53-.85,11.3-.48,7.53-.66,11.31l-.25,5.69-.19,5.68c-.23,7.58-.31,15.2-.29,22.85l-34.7,2.15c-1-11.22-1.6-22.29-1.86-33.51-.11-5.56-.11-11.12,0-16.68,0-2.78.09-5.56.16-8.33s.16-5.7.3-8.43q.39-8.32,1-16.64.32-4.16.69-8.31c.24-2.82.59-5.51.89-8.25l1.89-16.36,1-8.17c.34-2.73.74-5.46,1.15-8.22.81-5.51,1.74-11.12,2.91-16.78.58-2.82,1.24-5.68,1.93-8.46s1.55-5.86,2.49-8.76,2-5.83,3.17-8.61a81.17,81.17,0,0,1,4.26-8.8c.79-1.41,1.63-2.8,2.5-4.15l1.34-2,1.31-1.86c1.09-1.54,2.17-2.87,3.18-4.06l1.45-1.67.83-1,.29-.32.2-.2.39-.39,1.57-1.59.79-.79.5-.5.64-.62c.83-.77,1.52-1.34,2-1.77l1.43-1.2.82-.68c.15-.13.24-.21.45-.37l.6-.46,1.22-.92.6-.44.52-.37,2.09-1.43,1-.71.52-.35.47-.28L125.2,249c1.08-.6,2-1,2.68-1.34l.88-.39.94-.44,1.28-.56,1.11-.45c.75-.3,1.49-.59,2.24-.87,1.49-.55,3-1,4.51-1.51a87.58,87.58,0,0,1,9.17-2.25c3-.55,5.85-1,8.75-1.33s5.71-.59,8.63-.8l8.24-.47c5.4-.29,10.68-.56,15.81-1l3.81-.36c1.21-.12,2.48-.28,3.78-.44q3.9-.51,7.75-1.1c5.13-.81,10.19-1.75,15.15-2.89s10.13-2.49,15.14-4,10-3.12,14.93-4.86,9.79-3.72,14.63-5.74a297,297,0,0,0,28.43-13.84c9.24-5.14,18.3-10.7,27.1-16.72s17.41-12.33,25.69-19.12c4.18-3.35,8.12-6.95,12.16-10.47,2-1.76,4.05-3.52,6-5.39l2.93-2.76,2.82-2.84c.94-1,1.87-1.85,2.85-2.88l3-3.1,5.87-6C385.29,131.21,388.83,127.54,392.15,123.69Zm0,0c-3.65,4.41-7.08,9-10.17,13.32l-4.58,6.36-2.28,3.08c-.77,1-1.67,2.13-2.51,3.18l-2.57,3.2-2.65,3.11c-1.75,2.09-3.6,4.08-5.45,6.08-3.7,4-7.37,8.08-11.27,11.89s-7.83,7.61-11.89,11.29-8.21,7.21-12.43,10.71c-8.47,7-17.24,13.61-26.42,19.73a310.45,310.45,0,0,1-28.55,16.91c-4.92,2.58-9.9,5-15,7.26s-10.22,4.36-15.45,6.33-10.53,3.77-15.85,5.45-10.94,3.1-16.42,4.32q-4.09.91-8.19,1.71c-1.36.27-2.76.54-4.23.79s-2.81.46-4.22.68c-5.59.84-11.07,1.47-16.42,2.11l-7.89,1c-2.45.34-5,.74-7.44,1.19s-4.87.94-7.19,1.51a65,65,0,0,0-6.45,2c-1,.39-2.08.81-3.1,1.25l-1.51.68-.74.36-.56.29-.87.46-.94.49a6.31,6.31,0,0,0-.91.53l-3,2-.39.26-.3.24-.59.48-1.19.95-.3.23-.2.17-.39.32-.2.15-.32.29-.69.66-1.6,1.49c-.5.46-.82.78-1,.95l-.07.1,0,.05-.15.17-.6.68-1.21,1.36-.31.34-.15.17,0,.06,0,0-.13.17-.31.39-1.12,1.45c-.69.92-1.25,1.72-1.68,2.42L121,288l-.82,1.42c-.54.94-1,1.9-1.53,2.87a52.91,52.91,0,0,0-2.5,5.9c-.8,2.26-1.48,4.43-2.09,6.7s-1.14,4.55-1.6,6.9c-.49,2.5-.93,4.93-1.32,7.41-.77,5-1.37,10.05-1.88,15.24-.26,2.6-.51,5.23-.72,7.87l-.55,7.95-1.17,15.89c-.18,2.64-.42,5.31-.53,7.88s-.25,5.23-.34,7.85q-.28,7.84-.34,15.72c0,2.66,0,5.08,0,7.76l.17,7.86c.14,5.24.37,10.48.65,15.7.57,10.36,1.45,20.84,2.7,31.09l-34.71,2.15q-.4-11.94-.44-24l0-6,.07-6q.1-6,.33-12.08c.15-4,.37-8.05.62-12.07s.52-8,.84-12,.68-8,1.08-12.06.85-8.1,1.37-12l1.53-11.81,1.57-11.69c1-7.84,2.22-15.9,3.85-24.18.41-2.07.85-4.16,1.33-6.25l.75-3.16.78-3.09a120.07,120.07,0,0,1,4.26-13.26l.65-1.63.63-1.53c.47-1.13,1-2.34,1.55-3.49,1.1-2.32,2.31-4.6,3.64-6.82.66-1.1,1.35-2.2,2.07-3.28l1-1.46.45-.65.71-1c1.93-2.62,3.61-4.43,4.71-5.72l.33-.4.61-.6,1.47-1.49.74-.74.61-.61c.33-.32.64-.61.92-.86,1.14-1,1.89-1.62,2.16-1.86l1.66-1.41c.86-.69,2.29-1.74,3.17-2.35l2.52-1.72,1.26-.84,1-.57,2-1.15.93-.52c.44-.24.83-.44,1.19-.62.71-.35,1.28-.6,1.67-.78l.67-.3.12-.06.47-.22.92-.4,1.43-.59,1.33-.52c.89-.34,1.79-.66,2.69-1a82.33,82.33,0,0,1,10.9-2.89,172.1,172.1,0,0,1,19.23-2.38c5.92-.46,11.57-.81,17-1.27,2.69-.23,5.33-.49,7.9-.79,1.31-.16,2.41-.3,3.75-.49l4-.6c5.31-.84,10.49-1.8,15.54-2.93,1.26-.28,2.51-.58,3.75-.88s2.47-.63,3.76-1c2.69-.72,5.2-1.43,7.78-2.19,5.11-1.52,10.12-3.16,15-5s9.8-3.86,14.68-6,9.72-4.48,14.49-6.92a306.6,306.6,0,0,0,27.81-16.17q6.76-4.41,13.35-9.17c4.38-3.17,8.73-6.44,12.86-9.77s8.34-6.85,12.39-10.43q3-2.68,6-5.45l6-5.65,42-39.77-9,57-3.19,20.15c-1,6.81-1.86,13.56-2.67,20.36s-1.53,13.6-2.18,20.42-1.24,13.72-1.79,20.55-1,13.67-1.41,20.45l-.25,5.08-.22,5.26-.41,10.39c-.13,3.45-.3,6.94-.39,10.37l-.17,10.21L374,328.06c-.06,3.42-.05,6.75,0,10.2,0,6.89.14,14.05,0,21.52-.1,3.73-.26,7.54-.56,11.42s-.73,7.89-1.41,11.91a117.72,117.72,0,0,1-2.61,12c-.27,1-.55,2-.85,2.95l-.49,1.61c-.18.57-.32.94-.48,1.42-.65,1.83-1.21,3.61-1.93,5.48l-1.09,2.8-.55,1.41-.28.69-.4.92-2.27,5c-.42.89-.86,1.82-1.34,2.78l-.74,1.45-.69,1.28-1.31,2.44-1.45,2.59a155.25,155.25,0,0,1-13.24,19.34q-3.62,4.53-7.48,8.76c-2.57,2.83-5.2,5.56-8,8.27a201.65,201.65,0,0,1-17.23,14.82c-6,4.56-12.11,8.77-18.35,12.7l-15.37-25.43a193.69,193.69,0,0,0,19.54-11.51q4.65-3.15,9.07-6.58c2.93-2.28,5.77-4.71,8.56-7.23a130.1,130.1,0,0,0,27.6-34.44L342,404l.37-.68.3-.56.11-.2.15-.31.3-.64,1.19-2.53.6-1.26.52-1.27c.67-1.66,1.47-3.47,2-4.93.63-1.69,1.21-3.41,1.74-5.14a99.63,99.63,0,0,0,2.65-10.64c.34-1.78.65-3.66.93-5.53s.5-3.76.71-5.67c.42-3.83.72-7.73,1-11.71s.42-8.08.63-12.12l.67-12.14.88-12.36c.32-4.1.55-8.24.94-12.32l1.16-12.22c.39-4.08.78-8.16,1.24-12.2s.89-8.1,1.39-12.14l1.5-12.2q.76-6.13,1.62-12.19c1.11-8.07,2.38-16.19,3.74-24.26s2.84-16.12,4.46-24.14l2.59-12c.89-4,1.68-8,2.68-12s1.93-8,3-11.9c.52-2,1.11-3.95,1.7-5.93l.44-1.47.44-1.38.91-2.74,3.86-11.31C389.78,132,391,127.85,392.15,123.69Z"/><path class="cls-1" d="M468.05,288.4A104.43,104.43,0,0,1,434.9,332c-14.52,11.3-31.32,19.2-48.72,24.39q6.42-2.31,12.65-5.05c4.12-1.88,8.21-3.84,12.16-6.07a134.1,134.1,0,0,0,22.33-15.22,108.88,108.88,0,0,0,18.21-19.69c1.23-1.86,2.49-3.7,3.7-5.58l3.3-5.8a102.5,102.5,0,0,0,5.36-12.21c6.1-16.76,7.53-34.9,6-52.66a217.61,217.61,0,0,0-4-26.56c-1.81-8.71-4.06-17.33-6.39-26l.08.18-.15-.45.07.27c-5.08-12.27-10-24.55-14.56-37-2.3-6.25-4.55-12.55-6.65-18.91s-4.14-12.75-5.73-19.45c-.39-1.68-.76-3.38-1.05-5.15-.17-.87-.25-1.83-.37-2.75s-.12-2.11-.12-2.83c0-3.25-.14-6.56-.24-9.86l-.75-19.86c-.39-9.76-1.27-29.29-1.27-29.29s-9.34,9.6-14.14,14.31c-3.67,3.53-7.32,7.09-11.09,10.52l-5.62,5.19-5.72,5q-22.95,20.17-47.54,38.35c-16.45,12-33.35,23.39-50.8,33.89-2.14,1.37-4.37,2.6-6.58,3.88l-6.64,3.8c-4.42,2.51-8.79,5.13-13.34,7.43L253.78,166c-1.13.59-2.24,1.2-3.39,1.76l-3.51,1.64L243.37,171c-1.16.55-2.35,1-3.54,1.52C221,180.44,201.77,187,182.52,193.36s-38.65,12.23-58.08,17.95c-4.87,1.44-9.72,2.86-14.59,4.23l-7.29,2.05-7.24,2.25-29,9-29,8.92-29,8.85L36.87,236.4l28.65-10.12,28.67-10,7.17-2.51,7.25-2.3,14.44-4.64q28.86-9.31,57.45-19.39c19-6.71,38.05-13.63,56.35-21.74,2.31-1,4.54-2.07,6.77-3.15l3.35-1.61c1.11-.55,2.22-1.18,3.33-1.77L263.58,152c4.46-2.31,8.74-5,13.09-7.49l6.49-3.82c2.17-1.28,4.35-2.52,6.46-3.9l12.73-8.09,3.18-2,3.13-2.11,6.23-4.25c8.4-5.53,16.47-11.53,24.64-17.39,16.1-12,31.75-24.72,46.79-38l5.64-5,5.56-5.1c3.73-3.36,7.33-6.87,11-10.33,7.17-7,14.33-14.17,20.91-21.5l7.2-8,.48,10.69q.87,19.92,1.6,39.84.36,10,.56,20c.07,3.34.12,6.67.12,10,0,.93.05,1.44.07,2.15s.13,1.42.27,2.19c.22,1.5.54,3,.88,4.61,1.4,6.24,3.32,12.55,5.3,18.81s4.15,12.52,6.36,18.74c4.45,12.44,9.06,24.87,13.89,37.17l.1.25,0,.2c4.39,17.63,8.5,35.71,9.51,54.19S474.91,271.07,468.05,288.4Z"/><path class="cls-1" d="M468.05,288.4a103.81,103.81,0,0,1-13.44,24,112.84,112.84,0,0,1-19.08,19.93,142.65,142.65,0,0,1-23.09,15.34,168.07,168.07,0,0,1-25.58,11.06l-1.49-4.55c4.1-1.66,8.16-3.47,12.1-5.39s7.83-4,11.53-6.33A135.32,135.32,0,0,0,430,327a107.43,107.43,0,0,0,16.78-19.25c1.12-1.74,2.25-3.62,3.38-5.41s2-3.78,3.06-5.67c.29-.52.41-.82.65-1.32l.66-1.44c.44-1,.85-1.93,1.25-2.91.8-2,1.57-3.93,2.25-5.92a114.79,114.79,0,0,0,5.69-24.66,128.81,128.81,0,0,0,.18-25.68c-1.39-17.35-5.5-34.37-10.17-51.61l-12.3-45.33,23.24,40.69a7.66,7.66,0,0,1,.5,1l-11.28,4.08-.14-.45,11.52-3.31.07.27L454,183.87c-4.8-11.6-9.47-23.28-13.85-35.1-2.16-5.91-4.21-11.9-6.32-17.84-1.07-3-2.06-6-3-9s-1.89-6.11-2.74-9.23c-.42-1.56-.82-3.12-1.21-4.72s-.67-3.24-1-4.87c-.08-.41-.17-.79-.24-1.24l-.18-1.35a22.07,22.07,0,0,1-.28-2.75l-.06-1.41,0-1.31-.06-2.3c-.11-6.1-.37-12.37-.61-18.61-.45-12.47-1.05-25-1.57-37.43l10.29,3.92C426,47.74,419.1,55,411.69,61.82c-3.65,3.48-7.28,6.89-11,10.23S393.14,78.7,389.33,82q-11.43,9.78-23.25,19.09-5.9,4.65-11.89,9.18c-4,3-8.08,6-12.15,8.94-16.3,11.66-33.05,22.73-50.42,32.88l-13,7.46c-2.18,1.25-4.4,2.51-6.7,3.72l-6.66,3.48-6.6,3.46-3.36,1.76c-1.16.59-2.34,1.23-3.47,1.73l-3.41,1.59c-1.15.52-2.19,1.05-3.43,1.57-2.43,1.05-4.77,2-7.11,3-18.65,7.63-37.62,14-56.57,20.26s-38.08,12-57.2,17.59l-14.38,4.15c-2.36.68-4.75,1.28-7.09,2L95.6,226,67.11,234.9,10,252.37,6.26,241l29.1-10.41,29.15-10.29L93.7,210.07c2.46-.84,4.9-1.77,7.38-2.53l7.42-2.37c4.89-1.59,9.81-3.12,14.68-4.75,19.46-6.59,38.95-13.1,58.38-19.75,9.68-3.42,19.31-6.91,28.84-10.58q7.14-2.76,14.19-5.69c2.36-1,4.69-2,7-3,1.17-.52,2.39-1,3.51-1.55l3.39-1.58c1.13-.54,2.24-1,3.4-1.6s2.35-1.1,3.38-1.68l6.67-3.58,6.82-3.68,3.38-1.8c1.07-.58,2.15-1.18,3.23-1.8l13.26-7.78c2.24-1.31,4.29-2.58,6.45-3.87,1.06-.63,2.15-1.33,3.25-2l3.26-2.08,6.54-4.16c2.17-1.38,4.28-2.68,6.34-4.12l12.73-8.63c4.17-2.88,8.31-5.87,12.48-8.88l6.23-4.5L342,93.51q24.38-18.6,47.1-39.18c3.82-3.47,7.51-7,11.21-10.45,1.84-1.75,3.74-3.49,5.52-5.25l5.44-5.38c3.6-3.61,7.14-7.24,10.57-10.95s6.85-7.59,10.29-11.4L442,0l.62,14.65.87,20.67q.4,10.35.9,20.69c.39,6.88.63,13.8.66,20.73,0,3.48.05,6.91,0,10.42L445,92.41l0,2.62v2.38l-.05-.58c.09.84.12,1.7.26,2.53l.4,2.48c.22,1.63.61,3.35,1,5,.74,3.39,1.6,6.81,2.52,10.23.46,1.71.92,3.44,1.42,5.14l1.53,5.12L455,137.63c1,3.44,2.17,6.82,3.26,10.23l3.37,10.21,6.74,20.44.09.27v.05c1.88,9,3.74,18.16,5.13,27.34a226.09,226.09,0,0,1,2.75,27.71A153.86,153.86,0,0,1,475,261.61,117.44,117.44,0,0,1,468.05,288.4Zm0,0a109.56,109.56,0,0,0,6.69-26.83,137.85,137.85,0,0,0,.47-27.62A194.35,194.35,0,0,0,471,206.67c-2-9-4.46-17.84-7-26.77l.09.32-8.35-19.93-4.18-10c-1.38-3.34-2.85-6.62-4.1-10l-3.86-10.15-1.92-5.09c-.63-1.71-1.21-3.41-1.81-5.14-1.18-3.44-2.33-6.93-3.36-10.49-.5-1.8-1-3.57-1.4-5.47l-.62-2.81c-.21-.94-.31-1.87-.47-2.81l0-.15,0-.43L433.78,95l-.1-2.54-.2-5.1c-.12-3.39-.37-6.84-.51-10.26s-.31-6.85-.39-10.28l-.34-10.32q-.32-10.32-.76-20.64l-.87-20.66,10.46,3.75c-3.46,3.83-6.82,7.64-10.41,11.54s-7.21,7.59-10.89,11.27l-5.54,5.48c-1.88,1.86-3.79,3.6-5.68,5.4-3.79,3.57-7.58,7.16-11.39,10.62q-23.06,20.88-47.87,39.82L343,107.78l-6.29,4.54c-4.17,3-8.39,6.06-12.69,9l-12.84,8.72c-2.16,1.5-4.44,2.91-6.61,4.29l-6.5,4.13-3.25,2.07c-1.08.69-2.16,1.38-3.32,2.06-2.25,1.36-4.58,2.8-6.79,4.08l-13.38,7.86c-1.16.66-2.33,1.31-3.52,1.95l-3.43,1.84L257.63,162l-6.94,3.72c-1.23.68-2.37,1.18-3.54,1.76s-2.39,1.13-3.59,1.69c-38.16,17.4-77.61,29.2-116.69,42.67-4.9,1.63-9.81,3.17-14.71,4.76l-7.31,2.33c-2.43.75-4.81,1.66-7.22,2.48L68.49,231.6,39.38,241.88,10.3,252.28,6.53,240.89l57-17.45L92,214.58l7.18-2.24c2.39-.77,4.83-1.38,7.24-2.08l14.29-4.13c19-5.58,38-11.34,56.86-17.48s37.58-12.53,55.75-20c2.27-.93,4.51-1.86,6.65-2.78,1.06-.43,2.24-1,3.35-1.53l3.36-1.57c1.14-.5,2.14-1.06,3.19-1.6l3.25-1.69,6.61-3.47,6.57-3.43c2.09-1.11,4.2-2.3,6.33-3.52l12.89-7.41c17-9.92,33.45-20.8,49.5-32.28,4-2.87,7.94-5.74,11.88-8.74s7.84-6,11.72-9q11.63-9.15,22.86-18.77c3.75-3.21,7.44-6.46,11.13-9.72s7.3-6.69,10.84-10.07c7.23-6.65,14-13.82,21-20.8l9.73-9.75.57,13.67c.52,12.51,1.12,25,1.57,37.52.24,6.26.5,12.48.62,18.89L437,95l.08,2a14.36,14.36,0,0,0,.19,1.91l.12,1c0,.32.14.7.21,1.06.3,1.43.57,2.87.89,4.31s.73,2.91,1.12,4.36q1.2,4.36,2.6,8.75c.93,2.93,1.9,5.88,2.95,8.79,2.07,5.83,4.07,11.68,6.2,17.51,4.31,11.63,8.92,23.17,13.68,34.68L453.7,183l-.07-.27,11.53-3.31.15.45L454,184a4,4,0,0,0,.35.68L465.32,180c2.32,8.67,4.62,17.46,6.48,26.42a224.25,224.25,0,0,1,4.06,27.28,150.35,150.35,0,0,1-.13,28,105.68,105.68,0,0,1-6.26,27.6c-.87,2.2-1.78,4.39-2.8,6.52-.51,1.07-1,2.14-1.57,3.19l-.83,1.57c-.26.49-.63,1.21-.91,1.65-1.22,2-2.38,4-3.65,6s-2.66,3.82-4.09,5.76a110.66,110.66,0,0,1-19.82,19.93,134.34,134.34,0,0,1-23.43,14.62c-4.11,2.1-8.29,3.9-12.52,5.63s-8.53,3.18-12.86,4.54l-1.49-4.55a157.64,157.64,0,0,0,25.72-8.95,127.53,127.53,0,0,0,23.56-13.82,102.74,102.74,0,0,0,19.59-19.16A97,97,0,0,0,468.05,288.4Z"/><path class="cls-1" d="M459.6,181.75l-.08-.18-.07-.27Z"/><path class="cls-1" d="M459.6,181.75a4.79,4.79,0,0,1,.29,1.4,3.06,3.06,0,0,1-.18,1.26,3.87,3.87,0,0,1-1.85,2.05,5,5,0,0,1-.75.33c-.26.09-.56.21-.75.12s-.29-.31-.41-.45-.29-.25-.42-.38a6.23,6.23,0,0,1-1.15-1.42l-.47-.77-.21-.86-.07-.27,11.53-3.31a6.79,6.79,0,0,1,.33,2,6.46,6.46,0,0,1-.57,2.72,6.24,6.24,0,0,1-1.66,2.19,7.27,7.27,0,0,1-2.21-1.89,7.87,7.87,0,0,1-.78-1.19A12.09,12.09,0,0,1,459.6,181.75Zm0,0a13,13,0,0,0-.69-1.58,10.08,10.08,0,0,0-.8-1.24,7.85,7.85,0,0,0-2.24-2,5.3,5.3,0,0,0-1.73,2,5.61,5.61,0,0,0-.65,2.5,5.47,5.47,0,0,0,.26,1.77l11.52-3.31.07.27-.68-1.64a5.65,5.65,0,0,0-1.11-1.33c-.13-.12-.28-.21-.41-.35s-.21-.36-.4-.43a1.16,1.16,0,0,0-.74.14,5.6,5.6,0,0,0-.74.35,3.89,3.89,0,0,0-1.81,2.15,3.42,3.42,0,0,0-.17,1.3A5.38,5.38,0,0,0,459.6,181.75Z"/><path class="cls-1" d="M86,241.49a215.78,215.78,0,0,0-57.25,71.72A191.22,191.22,0,0,0,13.56,356.5a185.46,185.46,0,0,0-2.1,68.3,192.09,192.09,0,0,0,5.08,22.25c1,3.69,2.26,7.27,3.41,10.89.62,1.81,1.33,3.57,2,5.36s1.35,3.56,2.09,5.31l2.17,5.28,2.37,5.2c.75,1.75,1.6,3.45,2.45,5.16s1.65,3.44,2.58,5.11c3.47,6.79,7.38,13.37,11.48,19.83s8.58,12.69,13.2,18.81a271.05,271.05,0,0,0,31,34.21l-.42.53a170.47,170.47,0,0,1-18-14.86A230.87,230.87,0,0,1,54.61,531a227.36,227.36,0,0,1-14.47-18.49c-4.47-6.44-8.67-13.08-12.49-19.94A188.3,188.3,0,0,1,3.93,402.16a191.54,191.54,0,0,1,5.34-46.64A194.11,194.11,0,0,1,25.74,311.7,215.58,215.58,0,0,1,85.58,241Z"/><path class="cls-1" d="M86,241.49c-23,20.22-42,44.84-54.85,72.34a189.41,189.41,0,0,0-14.35,42.86,187.12,187.12,0,0,0-3.64,44.86c.12,3.75.4,7.44.81,11.17.21,1.87.44,3.73.7,5.6l.4,2.81.41,2.75c.32,1.72.72,3.65,1.09,5.48s.77,3.69,1.19,5.52.86,3.64,1.34,5.44l.74,2.68.82,2.74c.29,1,.5,1.8.78,2.7l.85,2.64,1.83,5.42,2,5.24,2.07,5.15,2.21,5.24,2.4,5.18,2.42,5,2.57,5,1.35,2.54,1.36,2.46q1.37,2.44,2.81,4.87c1.92,3.24,3.89,6.44,5.94,9.64,4,6.31,8.44,12.41,13,18.42a266.61,266.61,0,0,0,30.34,33.32l3.4,3.11-2.86,3.65-.41.52-2.89,3.7L86,566.83a167.91,167.91,0,0,1-18.63-15.41,235.41,235.41,0,0,1-16.54-17.35,232.15,232.15,0,0,1-14.72-18.93,236.38,236.38,0,0,1-12.64-20.35A194.23,194.23,0,0,1,1.38,426.57,188,188,0,0,1,0,402.63a193.31,193.31,0,0,1,5.93-47.35A196.77,196.77,0,0,1,23.3,311a211.19,211.19,0,0,1,27.27-38.65,224.52,224.52,0,0,1,16.61-16.76A202,202,0,0,1,85.57,241h0Zm0,0-.46-.51h0a201.08,201.08,0,0,0-17.34,15.77A223.2,223.2,0,0,0,52.73,274.2a212.84,212.84,0,0,0-25,39.11A191.37,191.37,0,0,0,7.87,402.57a178.41,178.41,0,0,0,1.89,22.87,184.58,184.58,0,0,0,22,64.72c3.76,6.65,7.87,13.16,12.25,19.44a228,228,0,0,0,30.11,34.59,169.46,169.46,0,0,0,17.56,14.46l-6.78,1,.42-.52.54,6.75a277.74,277.74,0,0,1-31.33-34.74c-4.68-6.21-9.23-12.52-13.41-19.19-2.06-3.26-4.11-6.59-6.06-10q-1.47-2.53-2.86-5.12l-1.38-2.6-1.31-2.55-2.61-5.25-2.52-5.41L22,475.76l-2.17-5.38-2.14-5.55-2-5.55L14,453.79l-.87-2.85c-.28-.94-.57-2-.78-2.83l-.79-2.78-.74-2.87c-.48-1.91-.92-3.83-1.32-5.74s-.79-3.83-1.15-5.74-.67-3.76-1-5.82L7,422.22l-.34-2.9c-.21-1.93-.41-3.87-.57-5.82-.33-3.89-.54-7.86-.57-11.77a186.21,186.21,0,0,1,5.06-46.45,191.63,191.63,0,0,1,16.32-43.6A210.36,210.36,0,0,1,86,241.49Z"/></g></g></svg>