<svg xmlns="http://www.w3.org/2000/svg" viewBox="0 0 325 453.33"><defs><style>.cls-1{fill:#0c7b93;}.cls-2{fill:#142850;}.cls-3{fill:#27496d;}</style></defs><g id="Layer_2" data-name="Layer 2"><g id="Layer_1-2" data-name="Layer 1"><path class="cls-1" d="M97.13,268.16l.78-2.23.85-2.18,1.69-4.37c1.18-2.87,2.37-5.73,3.64-8.53,2.48-5.65,5.15-11.17,7.86-16.65,5.46-10.93,11.36-21.54,17.49-32a692.18,692.18,0,0,1,40.13-60.13,706.15,706.15,0,0,1,46-55.78c8.21-8.89,16.67-17.6,25.54-26,4.46-4.18,9-8.33,13.65-12.34,2.32-2,4.71-4,7.11-6l3.69-2.89,1.84-1.44,1.91-1.4,1.6,1.2L249.78,66.76,228.4,95.85,185.63,154l-43.32,57.77-21.66,28.88L98.74,269.35Z"/><path class="cls-2" d="M.06,287a259.94,259.94,0,0,1,5.15-57.62c.46-2.37,1-4.72,1.53-7.07.26-1.16.58-2.45.91-3.73s.68-2.52,1-3.74c1.43-4.9,3-9.4,4.63-13.84,3.27-8.84,6.76-17.31,10.35-25.71s7.27-16.69,11-24.91l1.41-3.1L37.68,144c1-2.09,2.07-4.21,3.1-6.23,2.07-4.1,4.15-8.11,6.23-12.12,8.37-16,16.84-31.78,25.41-47.6L114.68,0,96.86,86.1c-.37,1.79-.76,3.87-1.13,5.84l-1.08,6q-1.07,6.06-2,12.16l-1,6.18-.44,2.86-.41,3c-.52,4-1,8-1.39,12-.79,8-1.35,16.14-1.51,24a205.54,205.54,0,0,0,1,23.76c.79,7.94,2,15.92,3.49,24l2.28,12.17c.79,4,1.6,8,2.48,12q5.23,24,12.91,47.48c2.55,7.83,5.29,15.6,8.13,23.4s5.71,15.53,8.79,23.2q9.21,23,20.53,45.11a547.47,547.47,0,0,0,53.32,84,551.52,551.52,0,0,1-59-80.83Q129,350.92,118.05,328.16c-3.63-7.58-7.08-15.25-10.42-22.9s-6.67-15.38-9.8-23.2q-9.37-23.47-16.44-47.92c-1.18-4.06-2.28-8.15-3.37-12.25L74.9,209.7c-2-8.21-3.91-16.59-5.33-25.15a225.16,225.16,0,0,1-2.8-26c-.39-8.76-.35-17.3-.07-25.88.15-4.28.36-8.55.64-12.84l.23-3.24.29-3.34.56-6.21q.6-6.28,1.28-12.59l.71-6.32c.25-2.15.5-4.18.82-6.49l24.44,8.06c-7.45,16.19-14.88,32.49-22.06,48.73-1.79,4.05-3.58,8.12-5.28,12.13-.87,2-1.67,4-2.49,6l-1.12,2.83-1.17,3.1q-4.74,12.42-9.13,24.85c-2.92,8.28-5.7,16.57-8.13,24.7-1.19,4.06-2.3,8.09-3.13,11.86q-.31,1.41-.57,2.76c-.17.91-.33,1.81-.49,2.84-.32,2-.66,4.08-.92,6.13A222.16,222.16,0,0,0,40,285Z"/><path class="cls-3" d="M196.14,211c7.58,13.62,15.16,27.27,22.89,40.93s15.37,27.2,23.27,40.39,16.05,25.9,25,38.26q6.71,9.3,13.8,18.32c2.36,3,4.76,6,7.16,8.88l7.52,8.92-22.9,11.09-.14-1-.18-1.18-.41-2.43c-.28-1.63-.59-3.28-.91-4.93q-1-5-2.12-10c-1.5-6.67-3.24-13.23-5-20.14s-3.58-13.71-5.27-20.68q-1.27-5.23-2.45-10.52l-2.25-10.44c-1.47-7-2.83-14.24-3.8-21.53s-1.6-14.59-1.9-21.9-.24-14.62.12-21.89,1-14.38,1.88-21.59,2-14.3,3.43-21.39c.71-3.54,1.5-7.1,2.39-10.61s1.79-6.94,2.8-10.41A207.45,207.45,0,0,1,275.21,127c1.71-3.2,3.43-6.24,5.16-9.33s3.51-6.17,5.33-9.23a213.29,213.29,0,0,1,11.79-17.9c2.12-2.88,4.35-5.67,6.62-8.43,1.17-1.35,2.3-2.73,3.5-4l1.77-2c.56-.63,1.1-1.25,1.63-1.92,2.13-2.67,4.13-5.56,6.09-8.46s3.86-5.86,5.7-8.83l-.15.6L323,24.87l2,32.56,0,.29-.17.32c-1.65,3.14-3.35,6.23-5.11,9.31s-3.57,6.13-5.63,9.12c-.5.75-1.07,1.5-1.63,2.24l-1.59,2.07c-1.08,1.37-2.08,2.79-3.13,4.18-2,2.84-4,5.7-5.83,8.64-3.72,5.86-7.06,12-10.19,18.17q-2.34,4.68-4.57,9.43c-1.5,3.17-3,6.39-4.41,9.51a197.61,197.61,0,0,0-12.63,39.2c-.72,3.37-1.36,6.74-2,10.18s-1.1,6.74-1.53,10.15c-.87,6.81-1.46,13.67-1.8,20.53s-.44,13.82-.32,20.61.58,13.59,1.35,20.33,1.82,13.43,3.19,20,3.09,13.15,5,19.8l2.93,10q1.47,4.95,3.05,9.88c2.11,6.59,4.35,13.21,6.61,19.87s4.62,13.5,6.71,20.44c1.06,3.48,2.08,7,3,10.53q.72,2.65,1.4,5.37l.66,2.75.32,1.41.34,1.58,9.31,44.16L276.17,384.5,267.89,376c-2.82-2.95-5.56-5.9-8.28-8.88q-8.12-8.94-15.86-18.19c-10.38-12.33-20.19-25.41-29.34-38.51S196.49,284.14,187.79,271s-17.31-26.29-26-39.51Z"/></g></g></svg>