<svg xmlns="http://www.w3.org/2000/svg" viewBox="0 0 343.04 379.15"><defs><style>.cls-1{fill:#b1aa04;}.cls-2{fill:#248103;}.cls-3{fill:#b54e14;}.cls-4{fill:#7d7900;}</style></defs><g id="Layer_2" data-name="Layer 2"><g id="Layer_1-2" data-name="Layer 1"><path class="cls-1" d="M56.11,18.65a141.4,141.4,0,0,1,2.56,56.19c-2.79,18.84-9.28,37-17.52,53.95-2.09,4.24-4.2,8.38-6.39,12.53-1.13,2.07-2.23,4.16-3.41,6.2s-2.31,4.1-3.54,6.1c-4.77,8.09-10.07,15.81-14.49,23.59a71.82,71.82,0,0,0-5.53,12,59.92,59.92,0,0,0-2.86,12.95,80.9,80.9,0,0,0-.42,13.59,98.34,98.34,0,0,0,1.76,13.75c-1-2.12-1.82-4.32-2.6-6.54s-1.37-4.51-1.9-6.82A68.11,68.11,0,0,1,0,202a58,58,0,0,1,1.45-14.51,69.45,69.45,0,0,1,4.84-13.8c1-2.19,2.09-4.3,3.17-6.42s2.24-4.15,3.37-6.18c2.24-4.09,4.55-8.08,6.73-12.12s4.36-8.06,6.41-12.15,4.17-8.23,6.16-12.34C40.15,108,46.89,91.09,51,73.37A210.15,210.15,0,0,0,56.11,18.65Z"/><path class="cls-2" d="M71.44,28.24A105.43,105.43,0,0,1,79.84,64a121.3,121.3,0,0,1-.23,18.67c-.24,3.12-.68,6.22-1.19,9.33a81.75,81.75,0,0,1-2.07,9.38,88.3,88.3,0,0,1-3.23,9.14c-1.22,3-2.57,5.74-3.88,8.48-2.61,5.49-5.22,10.78-7.66,16.2L47,168.07c-2.44,5.47-4.83,10.93-7,16.37a152.19,152.19,0,0,0-5.75,16.28c-.38,1.33-.76,2.79-1.14,4.23s-.73,2.86-1.06,4.28c-.69,2.85-1.31,5.68-1.9,8.53A164,164,0,0,0,27.68,235a142.48,142.48,0,0,0-.43,17.42A152,152,0,0,0,29,269.87a148.47,148.47,0,0,0,3.92,17.34,179.62,179.62,0,0,0,5.93,17.06,112.65,112.65,0,0,1-16.53-32.79,128.58,128.58,0,0,1-4.23-18.2l-.63-4.65L17,244c-.22-3.13-.38-6.27-.36-9.41s.1-6.28.3-9.41.56-6.25.95-9.36.89-6.2,1.5-9.25c.29-1.53.61-3,.92-4.55s.63-3,1-4.57c3.05-12.53,8-23.85,12.82-35q3.74-8.32,7.56-16.53l3.87-8.19c1.31-2.73,2.62-5.53,4-8.25,2.78-5.47,5.71-10.9,8.67-16.11a115.64,115.64,0,0,0,7.62-15.4,109.27,109.27,0,0,0,4.61-16.58A144.16,144.16,0,0,0,73,63.94a136.53,136.53,0,0,0,.34-17.76A159.45,159.45,0,0,0,71.44,28.24Z"/><path class="cls-2" d="M46.52,196.92a141.29,141.29,0,0,0-4.73,41c0,1.7.18,3.38.3,5.07s.34,3.36.5,5c.45,3.35.92,6.68,1.66,9.87A72.74,72.74,0,0,0,47,267.38a96.31,96.31,0,0,0,3.86,9.22q2.15,4.59,4.61,9.13c1.58,3.06,3.28,6.09,4.94,9.16,3.35,6.11,6.7,12.37,9.94,18.49,6.55,12.3,13.46,24.43,20.25,36.89a219.42,219.42,0,0,1-27-32.81c-2-2.94-3.93-5.92-5.81-8.87s-3.75-5.95-5.61-8.95a204.4,204.4,0,0,1-10.39-18.79A82,82,0,0,1,35,259.74a89.84,89.84,0,0,1-1.13-11A95,95,0,0,1,34,237.82,90.8,90.8,0,0,1,46.52,196.92Z"/><path class="cls-2" d="M144.92,379.15q2.12-10.87,3.73-21.65c1-7.2,1.9-14.38,2.49-21.55s.94-14.32,1.06-21.44c0-3.56.05-7.12,0-10.68s-.24-7.11-.4-10.68-.41-7.14-.67-10.74l-.75-10.88c-.54-7.26-1-14.44-1.67-21.51s-1.5-14-2.72-20.91-2.59-13.69-4.41-20.41a192.85,192.85,0,0,0-6.28-19.83c-2.39-6.51-5.25-13-8.16-19.57l-8.94-19.88c-1.48-3.3-3-6.56-4.48-9.83s-3-6.53-4.58-9.79l-4.7-9.87c-1.57-3.31-3.16-6.63-4.67-10Q95.13,99.85,91,89.6c-2.74-6.84-5.38-13.72-7.82-20.67s-4.72-14-6.76-21.07q6,9.31,11.79,18.66L99.78,85.16l23.14,37.16c1.91,3.16,3.81,6.35,5.67,9.57s3.62,6.5,5.38,9.75c3.5,6.42,6.88,12.92,10.25,19.53s6.54,13.45,9.44,20.56a200.78,200.78,0,0,1,7.2,21.85,218.13,218.13,0,0,1,4.57,22.47c1,7.56,1.8,15.14,2.11,22.64s.44,14.94.36,22.28c0,3.66,0,7.32-.1,11s-.2,7.43-.38,11.17-.47,7.49-.82,11.23-.8,7.48-1.35,11.19a211.68,211.68,0,0,1-4.48,22A193.52,193.52,0,0,1,144.92,379.15Z"/><path class="cls-3" d="M123.74,178.25c-.47,2.43-.94,4.74-1.43,7s-.9,4.4-1.29,6.53c-.79,4.26-1.45,8.32-1.86,12.3-.14,1-.21,2-.29,3s-.17,2-.26,2.92-.06,1.95-.16,2.92l-.21,3.24c-.06,1.07-.15,2.07-.23,3.1s-.14,2-.14,3c-.15,2-.18,3.83-.16,5.64,0,.89,0,1.77,0,2.62s.1,1.7.21,2.46l.09,1.18.18,1.1c.08.77.34,1.36.42,2.08a16.37,16.37,0,0,0,3.35,6.8c.5.45.93,1.06,1.54,1.52s1.24.93,1.9,1.46a31.29,31.29,0,0,0,4.88,2.51,78.93,78.93,0,0,0,12.77,3.64l.3,1.16A44.55,44.55,0,0,1,129.91,256a33,33,0,0,1-6.8-1.06,26.63,26.63,0,0,1-6.38-2.8A22.53,22.53,0,0,1,108,241.4a38.68,38.68,0,0,1-2.31-13.54,86.54,86.54,0,0,1,1.24-13.5,77.84,77.84,0,0,1,3-13.2,73.58,73.58,0,0,1,5.35-12.44,78.6,78.6,0,0,1,7.53-11.2Z"/><path class="cls-3" d="M155.36,168.08a28.12,28.12,0,0,1-2.9-7.12,34.37,34.37,0,0,1-1.15-7.74,37.64,37.64,0,0,1,2.91-16,39.5,39.5,0,0,1,9.85-13.74,34.23,34.23,0,0,1,14.78-8,46.39,46.39,0,0,1,15.91-.7c1.28.13,2.54.32,3.77.49l3.6.51c2.42.34,4.88.66,7.32,1A76.52,76.52,0,0,1,224,120.37l1.8.68c.6.23,1.18.51,1.78.77s1.19.54,1.77.84,1.2.56,1.75.92l3.44,2.07,3.26,2.46a41,41,0,0,1,10.26,12.81A56.75,56.75,0,0,1,253,156a102,102,0,0,1,1.82,15.11c.06,1.25.09,2.44.1,3.66v1.78c0,.59,0,1.18,0,1.85,0,1.29-.14,2.57-.21,3.86s-.27,2.56-.44,3.84a71.93,71.93,0,0,1-1.47,7.58c-.69,2.48-1.36,4.95-2.29,7.34s-1.9,4.74-2.92,7.05-2.28,4.53-3.62,6.67a74,74,0,0,1-9,12,59.52,59.52,0,0,1-11.27,9.67l-1.6-1.2c1.32-4.74,2.73-9.17,3.95-13.58s2.34-8.69,3.29-12.93,1.73-8.44,2.33-12.6c.17-1,.31-2.07.41-3.11l.38-3.1c.16-2.07.43-4.12.54-6.17s.26-4.1.43-6.15l.42-6.6c.29-4.33.52-8.53.39-12.63a86.28,86.28,0,0,0-1.31-11.91,39.79,39.79,0,0,0-3.43-11.2L228,132.69c-.62-.78-1.27-1.56-1.93-2.35a20.93,20.93,0,0,0-4.83-3.86,24.82,24.82,0,0,0-12.3-3.17,30.69,30.69,0,0,0-6.56.74c-1.1.23-2.26.49-3.35.79s-2.14.63-3.16,1a66.23,66.23,0,0,0-11.14,5.36c-3.3,2-6.3,3.82-9.14,5.93a43,43,0,0,0-7.68,7.63,52,52,0,0,0-6,10.22,96.75,96.75,0,0,0-4.54,12.84Z"/><path class="cls-2" d="M343,277.54a36.09,36.09,0,0,1-15.5,8.68,32.22,32.22,0,0,1-9.15.93,34.5,34.5,0,0,1-9.12-1.7c-5.9-1.93-11.15-5.14-16.06-8.36a87.51,87.51,0,0,1-14.12-11.32c-4.39-4.31-8-9.33-11.69-12.93a43.07,43.07,0,0,0-5.77-4.83,51.45,51.45,0,0,0-6.57-3.94A61.83,61.83,0,0,0,240,238.9c-5.41-1.17-11.08-1.82-17-2.52l-.13-1a54.45,54.45,0,0,1,17.71-3.53,48,48,0,0,1,18.53,3,38.55,38.55,0,0,1,8.55,4.59,36.39,36.39,0,0,1,7.15,6.75c2,2.52,3.64,5.07,5.22,7.43a66.33,66.33,0,0,0,5,6.67,79.8,79.8,0,0,0,12.15,11.36c4.45,3.57,8.94,6.89,13.92,9.07a30.34,30.34,0,0,0,7.73,2.31,29.72,29.72,0,0,0,8.16.06,35.57,35.57,0,0,0,15.48-6.38Z"/><path class="cls-4" d="M178.53,240.24a114.38,114.38,0,0,1,23,.83c3.78.52,7.62,1.27,11.23,2.12a100.62,100.62,0,0,1,11,3.17,93.73,93.73,0,0,1,10.59,4.46c.86.42,1.71.87,2.55,1.3l2.43,1.3,4.88,2.65a92.67,92.67,0,0,1,9.68,6,45,45,0,0,1,4.56,3.78,32.44,32.44,0,0,1,9,15.39,41.47,41.47,0,0,1,1.39,11.51,57.62,57.62,0,0,1-4.81,22,59.08,59.08,0,0,1-5.41,9.83,45,45,0,0,1-7.34,8.42,41.17,41.17,0,0,1-19.59,9.76A40.47,40.47,0,0,0,250.32,332a50,50,0,0,0,11-18.25,54.06,54.06,0,0,0,3.11-20.84,37.17,37.17,0,0,0-1.92-10.1,26.47,26.47,0,0,0-8.23-12.18,38.44,38.44,0,0,0-4.1-2.94,87,87,0,0,0-9.3-4.94l-4.93-2.26-2.5-1.12c-.81-.35-1.6-.7-2.41-1a85.3,85.3,0,0,0-9.88-3.39,94.36,94.36,0,0,0-10.23-2.19c-3.56-.58-6.95-1-10.45-1.23a102.17,102.17,0,0,0-20.77.66Z"/><path class="cls-1" d="M118.68,107.84c2-2.58,3.93-5.18,5.66-7.86a84.67,84.67,0,0,0,4.72-8.23,92.92,92.92,0,0,0,6.51-17.48A109.88,109.88,0,0,0,138.82,56c.28-3.07.45-6.15.51-9.22,0-1.54,0-3.07,0-4.59l-.1-2.26c0-.73-.1-1.54-.17-2.12L134.75,0l13.87,35.46c2.53,6.48,4.75,12.92,6.86,19.46s4,13.13,5.62,19.8L166,94.49c.79,3.31,1.6,6.62,2.36,10l1.16,5c.35,1.68.75,3.35,1.08,5-.89-1.49-1.69-3-2.53-4.51l-2.37-4.58c-1.57-3.06-3-6.17-4.45-9.29-2.83-6.25-5.39-12.62-7.77-19.05l-7.06-19-3.53-9.5-3.55-9.43,9.59-2.39c.1,1,.14,1.83.19,2.71s.06,1.73.08,2.58,0,1.71,0,2.56l-.08,2.54a97.37,97.37,0,0,1-1,10.09,88.48,88.48,0,0,1-5.21,19.52,74.73,74.73,0,0,1-9.79,17.58,59.06,59.06,0,0,1-6.7,7.41c-1.22,1.13-2.46,2.22-3.74,3.25S120.06,107,118.68,107.84Z"/><path class="cls-1" d="M178.68,137.53a52,52,0,0,1,4.39,4.68c1.35,1.62,2.6,3.29,3.8,5a91.89,91.89,0,0,1,6.32,10.59,109.92,109.92,0,0,1,8.52,22.82,111.15,111.15,0,0,1,3.39,24.12,94.22,94.22,0,0,1-.49,12.32,62.45,62.45,0,0,1-2.56,12.4l-1,.12q-.8-5.88-1.78-11.72t-2-11.68Q195,194.53,192,183.07t-6.45-22.79q-1.8-5.64-3.79-11.22t-4-11.15Z"/><path class="cls-1" d="M205.06,256.35a47.44,47.44,0,0,1,2.17,6.41c.6,2.16,1,4.33,1.41,6.51a81.71,81.71,0,0,1,1.06,13.14,96.22,96.22,0,0,1-3.6,26,97.24,97.24,0,0,1-10.34,24.11c-4.58,7.48-10.12,14.44-17.39,19.94l-.86-.5q3-5.47,5.74-11.14t5.15-11.41a194.1,194.1,0,0,0,8.07-23.67,195.92,195.92,0,0,0,5.3-24.44q.93-6.19,1.47-12.44t.82-12.5Z"/><path class="cls-4" d="M61.55,235.76a116.07,116.07,0,0,1,6.8-39,101.76,101.76,0,0,1,8.49-18,154.47,154.47,0,0,1,10.75-15.53c7.47-9.53,15.23-18.56,23.42-27.26s16.65-17,25.62-25c4.56-4,9.1-7.71,13.8-11.39s9.42-7.21,14.25-10.62c9.63-6.84,19.46-13.24,29.33-19.51S213.79,57.14,223.7,51s19.94-12.15,29.88-18.22c-9.25,7.11-18.53,14.15-27.73,21.3s-18.39,14.34-27.49,21.59-18.08,14.58-26.69,22.21q-6.48,5.72-12.62,11.7c-4.08,4-8.14,8.11-11.94,12.23-7.65,8.38-14.92,17.25-21.78,26.33s-13.34,18.5-19.27,28a129.64,129.64,0,0,0-7.69,14.12,76,76,0,0,0-4.93,14.24,88,88,0,0,0-1.92,30Z"/></g></g></svg>