<svg xmlns="http://www.w3.org/2000/svg" xmlns:xlink="http://www.w3.org/1999/xlink" viewBox="0 0 466.91 577.55"><defs><style>.cls-1{isolation:isolate;}.cls-2{fill:#660;}.cls-3{opacity:0.85;mix-blend-mode:darken;}.cls-4{fill:#030;}.cls-10,.cls-5,.cls-6,.cls-7,.cls-8,.cls-9{stroke:#660;stroke-miterlimit:10;stroke-width:0.25px;}.cls-5{fill:url(#linear-gradient);}.cls-6{fill:url(#linear-gradient-2);}.cls-7{fill:url(#linear-gradient-3);}.cls-8{fill:url(#linear-gradient-4);}.cls-9{fill:url(#linear-gradient-5);}.cls-10{fill:url(#linear-gradient-6);}</style><linearGradient id="linear-gradient" x1="99.66" y1="506.92" x2="186.89" y2="506.92" gradientUnits="userSpaceOnUse"><stop offset="0" stop-color="#002a01" stop-opacity="0"/><stop offset="0" stop-color="#280f05" stop-opacity="0.34"/><stop offset="0" stop-color="#3f0008" stop-opacity="0.53"/><stop offset="0" stop-color="#6b2623" stop-opacity="0.6"/><stop offset="0" stop-color="#6f332b" stop-opacity="0.73"/><stop offset="0" stop-color="#733f33" stop-opacity="0.85"/><stop offset="0" stop-color="#754839" stop-opacity="0.94"/><stop offset="0" stop-color="#774d3c" stop-opacity="0.99"/><stop offset="0" stop-color="#774e3d"/><stop offset="0" stop-color="#a4d000"/><stop offset="0" stop-color="#8d6127"/><stop offset="0" stop-color="#04b994"/><stop offset="0" stop-color="#135fb1"/><stop offset="0" stop-color="#2300d0"/><stop offset="0.27" stop-color="#007f36"/><stop offset="0.65" stop-color="#863e33"/></linearGradient><linearGradient id="linear-gradient-2" x1="161.85" y1="496.65" x2="213.46" y2="496.65" xlink:href="#linear-gradient"/><linearGradient id="linear-gradient-3" x1="187.73" y1="427.4" x2="198.3" y2="427.4" xlink:href="#linear-gradient"/><linearGradient id="linear-gradient-4" x1="201.64" y1="451.57" x2="309.89" y2="451.57" xlink:href="#linear-gradient"/><linearGradient id="linear-gradient-5" x1="261.07" y1="387.52" x2="338.97" y2="387.52" xlink:href="#linear-gradient"/><linearGradient id="linear-gradient-6" x1="303.42" y1="356.26" x2="375.09" y2="356.26" xlink:href="#linear-gradient"/></defs><g class="cls-1"><g id="Layer_2" data-name="Layer 2"><g id="Layer_1-2" data-name="Layer 1"><path class="cls-2" d="M76.51,432.53A55.68,55.68,0,0,0,82,428.05c1.79-1.6,3.53-3.27,5.27-4.95,3.47-3.36,6.87-6.8,10.25-10.27,6.75-6.95,13.38-14,20-21.09l9.86-10.67,2.45-2.68.3-.33.25-.29.57-.7,1.16-1.4,4.62-5.62,18.47-22.45,36.92-44.89,4.61-5.6,1.15-1.41c.23-.26.31-.39.52-.65l.55-.72,2.22-2.89L210,279.89l17.64-23.13c11.74-15.43,23.51-30.86,35-46.4,2.84-3.88,5.73-7.81,8.35-11.64.31-.46.66-1,.93-1.39s.51-.8.82-1.37l1.81-3.11c1.21-2.08,2.41-4.16,3.58-6.26q7.08-12.54,13.54-25.42c8.58-17.17,16.39-34.72,23.29-52.6q5.17-13.41,9.6-27,2.21-6.83,4.18-13.69c.65-2.28,1.29-4.57,1.89-6.86l.87-3.42c.28-1.11.56-2.32.78-3.31l5.2-23.73,9.1,22.65,24.8,61.74-.35-.78,16.21,30.51,8.14,15.24,2,3.81,1,1.9.51.95.26.48.19.32,4.48,7.37q9,14.87,17.88,29.85c5.91,10,11.78,20,17.42,30.38,2.86,5.34,5.47,10.35,8.15,15.92,1.32,2.78,2.58,5.7,3.72,8.78a72.82,72.82,0,0,1,2.86,9.68,75.91,75.91,0,0,1,1.47,19.93,148.13,148.13,0,0,1-2.28,18.51,186.28,186.28,0,0,1-10,35.13c-2.15,5.67-4.62,11.2-7.22,16.66s-5.55,10.75-8.58,16-6.4,10.29-10,15.22c-.85,1.26-1.81,2.44-2.72,3.66s-1.83,2.45-2.76,3.58l-5.55,6.9C398.82,414,391,422.75,383,431.32c-15.91,17.14-32.62,33.38-49.7,49.16q-12.79,11.85-25.93,23.3c-8.76,7.61-17.54,15.19-26.48,22.59s-17.91,14.74-27,21.89-18.28,14.26-27.65,21.12L225,567.84q25.26-23.8,50.07-48t48.78-49.07c15.93-16.62,31.54-33.51,46.42-50.89,3.73-4.33,7.36-8.73,11-13.14l5.36-6.64,5.23-6.72,5.1-6.8c.87-1.13,1.62-2.25,2.42-3.38s1.6-2.22,2.34-3.38c3.08-4.54,5.91-9.27,8.62-14.07A220.14,220.14,0,0,0,424,335.69c1.89-5.17,3.59-10.4,5-15.68.77-2.63,1.38-5.29,2-7.93s1.17-5.31,1.61-8a126.71,126.71,0,0,0,1.92-15.91,56.14,56.14,0,0,0-.88-14.58,67,67,0,0,0-4.94-14.19c-2.22-4.9-4.84-10.21-7.34-15.12-5.21-10-10.73-20.18-16.28-30.26s-11.2-20.16-16.88-30.2L384,176.26l-.34-.62-.25-.49-.48-1-1-2-1.94-3.9-7.78-15.59L356.56,121.6l-.23-.46-.12-.32L332.63,58.61l14.3-1.08c-.33,1.37-.63,2.51-1,3.75l-1,3.61c-.67,2.39-1.38,4.76-2.1,7.13q-2.17,7.1-4.59,14.07-4.83,13.95-10.4,27.59t-11.81,27Q309.81,154,302.91,167t-14.43,25.61c-1.23,2.12-2.51,4.2-3.79,6.29L282.77,202c-.29.48-.71,1.12-1.1,1.71s-.75,1.08-1.13,1.62c-3,4.1-5.91,7.92-8.89,11.8-11.95,15.39-24,30.55-36.2,45.7l-18.28,22.67L208,296.82l-2.29,2.82-.58.71-.62.76-1.2,1.37-4.78,5.5-38.26,44-19.12,22-4.77,5.5-1.2,1.37-.6.69a3.62,3.62,0,0,1-.36.39l-.32.33-2.57,2.59L121,395.1q-10.37,10.23-21,20.19c-3.56,3.32-7.15,6.6-10.81,9.82-1.84,1.6-3.68,3.19-5.58,4.74a57.62,57.62,0,0,1-6,4.39Z"/><g class="cls-3"><path class="cls-4" d="M69.22,574.59a132.8,132.8,0,0,1-25.48,2.95c-8.7.1-17.61-.49-26.84-4A34.67,34.67,0,0,1,10,569.83a25,25,0,0,1-6.33-6.39A22.14,22.14,0,0,1,1.35,559a21.66,21.66,0,0,1-1.18-5,26.66,26.66,0,0,1,.63-9.39A50.58,50.58,0,0,1,7,530.4a127.69,127.69,0,0,1,7.82-11.31q4.05-5.28,8.2-10.16l4.13-4.84c.7-.81,1.34-1.58,2.08-2.41l2.24-2.49a256.14,256.14,0,0,1,18.67-18.62c6.44-5.84,13-11.43,19.75-16.85,3.36-2.71,6.78-5.33,10.23-7.93l5.21-3.87L88,450l2.78-2-1.47,1,9.34-8.17L108,432.6q9.38-8.27,18.63-16.64L145,399.16c3-2.82,6.08-5.62,9.06-8.46s6-5.66,8.93-8.53,5.85-5.72,8.75-8.59,5.73-5.73,8.59-8.59c5.85-6,11.59-11.89,17.18-17.84s11-12,16.4-18,10.56-12.18,15.63-18.41c2.56-3.11,5-6.28,7.51-9.43l7.29-9.58c2.44-3.19,4.78-6.45,7.15-9.68l7.25-10.1c9.52-13.37,18.13-26.44,25.83-39.9q5.75-10.11,10.68-20.59c.85-1.74,1.64-3.51,2.43-5.27l1.19-2.65,1.23-2.82,4.94-11.38Q310,178,314.76,166.57l4.69-11.42,2.28-5.69,2.17-5.54L380.3,0l-4.62,154.81,0,.93v1.49c0,1,0,2.11,0,3.17.07,2.18.13,4.4.27,6.67s.32,4.53.5,6.81.5,4.57.74,6.86a217,217,0,0,0,5.29,27.39c.52,2.28,1.21,4.51,1.86,6.75s1.24,4.5,2,6.71l2.16,6.67,2.44,6.58c.77,2.21,1.72,4.35,2.63,6.5l1.36,3.24c.45,1.07.9,2.19,1.37,3.16a98.51,98.51,0,0,0,5.76,11.05c1.05,1.68,2.14,3.31,3.46,5.2l1,1.41,1.1,1.53,2.32,3.22c3.25,4.48,6.63,9.45,9.64,14.33,1.55,2.45,2.95,4.9,4.4,7.35s2.76,4.89,4.1,7.33l3.85,7.26c1.2,2.32,2.41,4.65,3.6,7,4.78,9.48,9.6,19.43,13.9,29.82,2.15,5.21,4.17,10.53,6,16,.9,2.72,1.73,5.47,2.54,8.23s1.57,5.53,2.21,8.35l1,4.21.88,4.24c.61,2.82,1,5.68,1.52,8.52s.79,5.73,1.16,8.54c.28,2.59.58,5.23.83,7.92,1,10.77,1.8,22.13,1.09,34-.16,3-.46,6-.84,9s-.95,6.07-1.67,9.13a83.22,83.22,0,0,1-6.34,18.15,68.58,68.58,0,0,1-11.09,16.32c-1.1,1.22-2.3,2.34-3.46,3.49s-2.42,2.19-3.69,3.18a69.73,69.73,0,0,1-8,5.58,75.77,75.77,0,0,1-8.49,4.27c-2.83,1.17-5.63,2.19-8.36,3-5.5,1.71-10.78,2.93-16,4.1s-10.34,2.23-15.46,3.25c-2.62.49-5.32,1-8,1.47s-5.3.88-7.95,1.23c-5.28.78-10.56,1.35-15.83,1.86s-10.52,1-15.79,1.23c-10.53.56-21,1.07-31.54,1l-.33-3c10.28-1.25,20.56-2.8,30.79-4.53s20.41-3.74,30.48-6.11c2.53-.57,5-1.25,7.53-1.88s5-1.38,7.46-2.08c5-1.49,10-3,14.91-4.5s9.86-3.14,14.6-5q3.57-1.41,7-3.09a64.32,64.32,0,0,0,6.49-3.79,53,53,0,0,0,18.68-22.87,64.56,64.56,0,0,0,4.17-14.45,93.31,93.31,0,0,0,1.28-15.15,196.5,196.5,0,0,0-2.66-30.69l-1.2-7.69c-.46-2.53-.87-5.06-1.38-7.57s-1-5-1.69-7.51l-.94-3.74-1.07-3.7a208,208,0,0,0-10.87-28.83c-4.3-9.37-9.15-18.5-14.19-27.57s-10.06-18.12-15.77-26.68c-2.83-4.29-5.82-8.44-9-12.53s-6.44-8.24-9.38-12.71a123.36,123.36,0,0,1-7.8-13.89c-1.17-2.37-2.19-4.78-3.3-7.17s-2.2-4.77-3.13-7.23l-2.93-7.32-2.63-7.44c-.92-2.47-1.66-5-2.43-7.5s-1.58-5-2.22-7.57a245.66,245.66,0,0,1-6.48-30.87c-.32-2.61-.7-5.21-1-7.83s-.55-5.24-.71-7.88a150.34,150.34,0,0,1-.42-15.95l5.61,1.18c-6,15.81-12.46,31.36-19.09,46.87-3.35,7.73-6.7,15.45-10.37,23.13s-7.63,15.16-11.87,22.51a452.32,452.32,0,0,1-28.09,42.27C272.32,302.72,262,316.22,251,329s-22.54,25.2-34.51,37.11c-6,5.95-12,11.81-18.12,17.63S186,395.29,179.71,400.88q-18.93,16.81-38.52,32.77T101.62,465.1l-.09.07-.1.07c-7,4.37-13.9,9-20.67,13.8s-13.44,9.73-19.92,14.89-12.78,10.52-18.73,16.22c-3,2.81-5.92,5.82-8.84,8.75s-5.78,5.94-8.54,9A110.37,110.37,0,0,0,17,537.4a38.7,38.7,0,0,0-5.59,10.44c-1.17,3.64-1.13,7.46.77,10.59s5.09,5.56,8.61,7.33a51.83,51.83,0,0,0,11.39,3.94,92.63,92.63,0,0,0,12.12,1.9,145.52,145.52,0,0,0,24.7,0Z"/></g><path class="cls-5" d="M129.14,487.47l48.78,56.06a72.2,72.2,0,0,0,5.51,5.94,15.52,15.52,0,0,0,3.46,2.23q-1,5.34-3.9,7.83-1.81,1.58-3.92-.26c-.7-.61-2.55-2.61-5.53-6l-51.77-59.39-4.85,4.21q-8.28,7.19-12,14.37-5.52-6.81-5.22-9.94t6.89-8.86l23.63-20.53q9.54-8.26,2.72-19.53a19.85,19.85,0,0,1,6,3.08,13.85,13.85,0,0,1,4.88,14q-1,5-10.47,13.18Z"/><path class="cls-6" d="M213.46,529.37q-.77,3.42-2.19,4.66-3.54,3.06-8-.81-2.28-2-10.12-10.94l-10.62-12.22a161.44,161.44,0,0,0-14.73-15.55,13.65,13.65,0,0,0-6-3.19,17,17,0,0,1,4.11-6.67q2.41-2.1,6.83,1.73,2.73,2.37,12.62,13.94l12.48,14.22q-11.69-21.45-15.18-35.95t1.88-19.17a6.53,6.53,0,0,1,4.84-1.48A8.32,8.32,0,0,1,194.6,460q3.48,3,4,12.57-5.24-2.27-7.64-.17-4.38,3.79,2.23,21.32A162.68,162.68,0,0,0,203.06,515q5.74,10.38,9.52,13.66Z"/><path class="cls-7" d="M191.55,424.92c-.76,4.36-1.85,7.25-3.29,8.68l-.53.37a28.51,28.51,0,0,0,5.45,6.12q2.41,2.1,3.8.91,2.07-1.8.89-13a29.76,29.76,0,0,0-6.08-14.62A33.83,33.83,0,0,1,191.55,424.92Z"/><path class="cls-8" d="M259.26,400.48q-9.64-2-15.12,2.74-6.28,5.46-4,17.62l-16.49-18.93a29.42,29.42,0,0,1-8.91,13.59Q209.6,420,204.65,420q6.47,4.11,9.95,4.66a7.76,7.76,0,0,0,6.5-2.06,23,23,0,0,0,4.14-5.15l15.59,17.88a153.79,153.79,0,0,1,9.81,29q3.26,15.29-1.06,19-3.63,3.13-9.76-2.19a107.6,107.6,0,0,1-8.07-8.75L223.43,463a109.09,109.09,0,0,0-10-10.38q-5.14-4.49-7.71-2.26-1.12,1-4.13,6.17a12.33,12.33,0,0,1,5.79,3q4.75,4.14,14.88,15.86l4.69,5.4a73.61,73.61,0,0,0,6.41,6.75q5.91,5.13,11.88,6.23t9.85-2.27q6.35-5.51,3.23-22.06A120.48,120.48,0,0,0,252,448.17l36,41.29a125.86,125.86,0,0,0,10.71,11.28q4.67,4,7.53,1.57c1.21-1.06,2.44-3.07,3.67-6a21.33,21.33,0,0,1-6.2-3.83,101.68,101.68,0,0,1-9.95-10.14l-15.83-18.12a17.83,17.83,0,0,0,11.39-4.55q9.24-8,5.85-22.65t-17.33-26.73Q268.9,402.5,259.26,400.48Zm29.42,38.41q3.09,10.07-3,15.34-5.07,4.39-14.4,2.35l-24.56-28.21q-2.17-11.72,2.65-15.92c2.58-2.23,6.24-2.69,11-1.35s9.65,4.19,14.71,8.58Q285.61,428.8,288.68,438.89Z"/><path class="cls-9" d="M328.67,395a18,18,0,0,1,5.23,2.91q4.89,4.26,5.06,14.38t-4.55,14.23q-4.17,3.63-12.14,1.26t-16.4-9.69q-9.39-8.15-23.27-26.18l-6.79-8.68-5.87,5.1c-2.46,2.13-3.91,4.26-4.37,6.4q-3.26-6.32-3.27-8.63c0-1.54,1-3.22,3.14-5l5.24-4.56-2.76-3.6q-6.1-8.08-6.77-12.51t3.79-8.3c.35-.3.94-.75,1.77-1.36q2.3,6.71,11.2,19.5l18.33-15.92q4.83-4.2,5.56-8,4.24,5.19,4.37,7.81t-3.8,6l-19.51,17,1.92,2.58q16.37,21.51,26.86,30.62,11.58,10.06,17.38,5,3-2.6,2.87-8.82A23.32,23.32,0,0,0,328.67,395Z"/><path class="cls-10" d="M359.09,331.59q11.85,23.84,15,40.39T370.84,394Q367,397.39,361,396.3t-11.89-6.22a72.9,72.9,0,0,1-6.4-6.76l-4.7-5.4q-10.11-11.71-14.88-15.85a12.07,12.07,0,0,0-5.78-3q3-5.19,4.13-6.18,2.55-2.2,7.71,2.26a110.36,110.36,0,0,1,9.95,10.38l8.31,9.56a106.82,106.82,0,0,0,8.07,8.74q6.15,5.34,9.77,2.19,4.31-3.73,1.05-19T353.8,332Zm-55.67,5,.53-.38q2.16-2.13,3.29-8.67a33.91,33.91,0,0,0,.25-11.56,29.89,29.89,0,0,1,6.08,14.62q1.17,11.22-.89,13c-.92.8-2.19.49-3.81-.91A29,29,0,0,1,303.42,336.57Z"/></g></g></g></svg>