<svg xmlns="http://www.w3.org/2000/svg" xmlns:xlink="http://www.w3.org/1999/xlink" viewBox="0 0 492.42 467.57"><defs><style>.cls-1{fill:#003400;}.cls-2{fill:none;stroke:#003400;stroke-miterlimit:10;stroke-width:20px;}.cls-3{fill:url(#linear-gradient);}.cls-4{fill:url(#linear-gradient-2);}.cls-5{opacity:0.85;}</style><linearGradient id="linear-gradient" x1="183.64" y1="145.8" x2="354.74" y2="145.8" gradientUnits="userSpaceOnUse"><stop offset="0" stop-color="#fff"/><stop offset="0" stop-color="#d86f00"/></linearGradient><linearGradient id="linear-gradient-2" x1="229.89" y1="313.35" x2="499.05" y2="313.35" xlink:href="#linear-gradient"/></defs><g id="Layer_2" data-name="Layer 2"><g id="Layer_1-2" data-name="Layer 1"><polygon class="cls-1" points="0 212.66 360.55 0 21.94 246.1 0 212.66"/><line class="cls-2" x1="135.32" y1="398.41" x2="135.32" y2="152.61"/><path class="cls-3" d="M346.68,54.84c-22.61,19.88-45.28,39.63-67.44,59.83-11.12,10-22.13,20.17-32.78,30.52-2.65,2.58-5.34,5.13-8,7.73l-3.89,3.9c-1.29,1.3-2.61,2.61-3.81,3.89a76.68,76.68,0,0,0-6.41,7.57,57,57,0,0,0-4.89,7.92l-1,2.05c-.28.69-.59,1.38-.85,2.07s-.52,1.4-.74,2.11l-.32,1.06-.42,1.35c-.32,1-.56,1.8-.8,2.64s-.46,1.63-.66,2.44c-.42,1.61-.78,3.19-1.08,4.75a42.12,42.12,0,0,0-.84,8.71c0,2.54.55,4.66,1,5.18.2.28.31.12.2-.15s-.31-.53-.33-.61.22,0,.88,0,1.65.08,2.87,0a81.65,81.65,0,0,0,8.81-1c3.29-.52,6.84-1.12,10.43-1.76,14.37-2.46,28.8-5.08,43.42-7.73l22.13-3.91c7.47-1.24,15-2.52,22.74-3.4l1.18,2.76a176.67,176.67,0,0,1-19,13.46c-6.59,4.08-13.39,7.78-20.32,11.21a274.91,274.91,0,0,1-43.27,16.82c-3.71,1.07-7.49,2.12-11.58,3-1,.23-2.05.44-3.12.62s-2.16.37-3.27.53-2.3.3-3.44.41-2.41.19-3.71.22a45.8,45.8,0,0,1-8.36-.49,33.44,33.44,0,0,1-9.87-3.16,28.45,28.45,0,0,1-9.22-7.39,29.52,29.52,0,0,1-5.24-9.94,35.94,35.94,0,0,1-1.45-9.2,47.47,47.47,0,0,1,.44-7.9A73.5,73.5,0,0,1,188,187.64q1.05-3.09,2.24-6c.39-1,.8-1.94,1.21-2.88l1.16-2.64.09-.2.14-.3.33-.79.69-1.57c.45-1,1-2.05,1.46-3.07s1.06-2,1.59-3,1.14-1.94,1.72-2.9a79.44,79.44,0,0,1,8-10.58,101.08,101.08,0,0,1,9-8.86c1.5-1.34,3-2.54,4.44-3.78l4.42-3.71c2.95-2.44,5.94-4.8,8.9-7.21,12-9.36,24.21-18.32,36.47-27.15,24.65-17.48,49.56-34.43,75.05-50.55Z"/><path class="cls-4" d="M374.64,162.05a114.47,114.47,0,0,1,35.71-2.46A105.45,105.45,0,0,1,428,162.71c1.46.34,2.89.81,4.33,1.24l2.14.67,2,.68c2.76,1,5.52,2,8.21,3.26a100.87,100.87,0,0,1,15.71,8.67,82.11,82.11,0,0,1,14.32,12.25A71,71,0,0,1,486,205.75a61.08,61.08,0,0,1,5.92,19.47,65.9,65.9,0,0,1-.52,19.46,89.75,89.75,0,0,1-4.71,16.68c-.47,1.22-.95,2.48-1.42,3.61l-.72,1.76-.84,1.93c-1.07,2.59-2.37,5.1-3.63,7.6a107.51,107.51,0,0,1-9.08,14,119.64,119.64,0,0,1-10.64,12c-3.68,3.72-7.47,7.09-11.25,10.3-7.57,6.43-15.13,12.18-22.57,17.94L381.8,365.06c-7.49,5.74-15,11.47-22.63,17.15-1.92,1.42-3.85,2.83-5.84,4.24l-5.79,4.07-11.46,8.14q-45.72,32.76-89.19,68.91,39.24-40.62,81.35-78.65l10.59-9.44,5.28-4.66c1.69-1.51,3.4-3.08,5.1-4.65,6.81-6.33,13.6-12.83,20.37-19.33l40.62-39.19c13.49-13.13,27.09-25.76,35.14-39.2a74.84,74.84,0,0,0,5.13-10.3c.63-1.79,1.32-3.54,1.83-5.38l.42-1.36.45-1.57c.32-1.08.57-2.06.83-3.07a53.65,53.65,0,0,0,1.77-10.72,27.83,27.83,0,0,0-.83-8.62,22.72,22.72,0,0,0-3.26-7.05,31.9,31.9,0,0,0-5.66-6.14,49.71,49.71,0,0,0-17.33-9c-1.67-.54-3.36-1-5.1-1.36l-1.41-.32-1.27-.22c-.84-.14-1.66-.33-2.52-.41a60.31,60.31,0,0,0-10.24-.57,65.25,65.25,0,0,0-20.09,3.81Z"/><g class="cls-5"><path class="cls-1" d="M270.47,149.89a102,102,0,0,1,31.81-2.79,93.32,93.32,0,0,1,15.82,2.48c1.3.28,2.58.67,3.87,1l1.93.55,1.83.59c2.5.83,5,1.74,7.43,2.79A79.15,79.15,0,0,1,360,172.47a60.62,60.62,0,0,1,9.89,13.74,51,51,0,0,1,5.25,16.36,56.87,56.87,0,0,1-.18,16.75,82.72,82.72,0,0,1-4,15.2c-.42,1.16-.84,2.35-1.27,3.47l-.66,1.71-.73,1.79c-.93,2.4-2.07,4.72-3.18,7a101,101,0,0,1-8.09,13.09,114.34,114.34,0,0,1-9.73,11.51c-3.41,3.6-7,6.94-10.57,10.16-7.21,6.45-14.57,12.37-21.83,18.33l-43.72,35.68c-7.31,5.93-14.62,11.85-22.07,17.69-1.86,1.46-3.73,2.91-5.65,4.35l-5.66,4.21L226.59,372q-44.82,34.07-87.22,71.36,40.29-39.5,83.3-76.23L233.48,358l5.41-4.51c1.77-1.48,3.53-3,5.28-4.55,7-6.16,14-12.47,20.94-18.78l41.65-38c6.93-6.36,13.89-12.63,20.35-19.1,3.23-3.23,6.36-6.51,9.22-9.9a97,97,0,0,0,7.9-10.47,84.46,84.46,0,0,0,6.12-11.23c.79-2,1.63-3.91,2.28-5.94l.53-1.5c.17-.5.34-1.08.52-1.61.35-1.1.66-2.15,1-3.21a64.82,64.82,0,0,0,2.5-12.21,38.33,38.33,0,0,0-.49-11.33,32.19,32.19,0,0,0-3.92-10.16,41,41,0,0,0-7.07-8.66,58.44,58.44,0,0,0-20.5-12c-1.93-.7-3.89-1.3-5.88-1.84l-1.56-.4-1.48-.33c-1-.22-2-.48-3-.63a72.22,72.22,0,0,0-12.1-1.2,77.56,77.56,0,0,0-24,3.47Z"/></g></g></g></svg>