<svg xmlns="http://www.w3.org/2000/svg" xmlns:xlink="http://www.w3.org/1999/xlink" viewBox="0 0 382.12 450.93"><defs><style>.cls-1{fill:url(#linear-gradient);}.cls-2{fill:url(#linear-gradient-2);}.cls-3{fill:#005000;}.cls-4{fill:url(#linear-gradient-3);}.cls-5{fill:#642400;}.cls-6{fill:url(#linear-gradient-4);}.cls-7{opacity:0.8;}.cls-8{fill:url(#linear-gradient-5);}.cls-9{fill:#fff;}.cls-10{fill:url(#linear-gradient-6);}</style><linearGradient id="linear-gradient" x1="30.08" y1="270.32" x2="92.76" y2="270.32" gradientUnits="userSpaceOnUse"><stop offset="0" stop-color="#fff"/><stop offset="0" stop-color="#8c8e90"/><stop offset="0" stop-color="#8d8d8e"/><stop offset="0" stop-color="#767676"/><stop offset="0" stop-color="#a36f12"/><stop offset="0.7" stop-color="#bc862e"/></linearGradient><linearGradient id="linear-gradient-2" x1="81.83" y1="232.44" x2="144.51" y2="232.44" xlink:href="#linear-gradient"/><linearGradient id="linear-gradient-3" x1="21.6" y1="176" x2="103.97" y2="176" xlink:href="#linear-gradient"/><linearGradient id="linear-gradient-4" x1="130.66" y1="194.06" x2="193.33" y2="194.06" xlink:href="#linear-gradient"/><linearGradient id="linear-gradient-5" x1="131.18" y1="252.93" x2="341.26" y2="252.93" xlink:href="#linear-gradient"/><linearGradient id="linear-gradient-6" x1="147.83" y1="270.82" x2="376.23" y2="270.82" gradientUnits="userSpaceOnUse"><stop offset="0" stop-color="#fff"/><stop offset="0" stop-color="#8c8e90"/><stop offset="0" stop-color="#8d8d8e"/><stop offset="0" stop-color="#767676"/><stop offset="0" stop-color="#68e700"/><stop offset="0.3" stop-color="#0a0"/><stop offset="0.75" stop-color="#007327"/><stop offset="1" stop-color="#007724"/></linearGradient></defs><g id="Layer_2" data-name="Layer 2"><g id="Layer_1-2" data-name="Layer 1"><polygon class="cls-1" points="37.98 260.81 71.07 292.89 65.48 293.88 83.7 264.43 84.01 266.64 59.69 239.35 86.67 264.01 87.63 264.89 86.98 266.23 71.86 297.39 69.97 301.29 66.27 298.38 30.08 269.85 37.98 260.81"/><polygon class="cls-2" points="89.74 222.93 122.82 255.01 117.23 256 135.46 226.55 135.76 228.76 111.44 201.47 138.43 226.13 139.38 227.01 138.73 228.35 123.61 259.51 121.72 263.41 118.02 260.5 81.83 231.96 89.74 222.93"/><path class="cls-3" d="M56.35,367c-1.5-.29-3-.62-4.49-1s-3-.86-4.42-1.36A71.51,71.51,0,0,1,38.79,361a65.5,65.5,0,0,1-15.52-11.33,61,61,0,0,1-11.72-16.07A81,81,0,0,1,5,314.86c-.72-3.14-1.25-6.24-1.8-9.17s-1.08-5.95-1.56-9A137.74,137.74,0,0,1,0,277.36a83.73,83.73,0,0,1,2.17-20.67,59.4,59.4,0,0,1,9.29-20.9,52.08,52.08,0,0,1,8.31-9.19l1.29-1.09,1.42-1a33.19,33.19,0,0,1,3-2c1-.65,2-1.13,3.07-1.66s2-.89,3-1.32c3.78-1.53,6.64-2.36,9.22-3.3s4.93-1.84,7.3-2.86c1.19-.53,2.36-1.06,3.54-1.62s2.35-1.13,3.53-1.75c2.34-1.25,4.73-2.46,7-3.8a126.93,126.93,0,0,0,13.18-8.68c4.23-3.22,8.54-6.64,12.91-10.37s8.87-7.62,13.35-11.49c9-7.65,17.8-15.13,25.16-22.7a107.26,107.26,0,0,0,10-11.51,94.07,94.07,0,0,0,7.9-12.63,140.57,140.57,0,0,0,6.86-14.31,61.09,61.09,0,0,0,3.75-13.07,30.88,30.88,0,0,0-.2-11.39,17.58,17.58,0,0,0-.71-2.58l-.19-.65c-.08-.24-.21-.59-.3-.83-.18-.49-.37-.95-.56-1.4a28.07,28.07,0,0,0-2.64-4.93A20.42,20.42,0,0,0,147.43,76a16.51,16.51,0,0,0-3.65-2.44,15.62,15.62,0,0,0-9.17-1.4,31.47,31.47,0,0,0-11.42,4.14c-.45.26-.91.54-1.29.79s-.33.21-.54.36l-.63.47a30.9,30.9,0,0,0-2.45,2.07,40.47,40.47,0,0,0-4.56,5,39.78,39.78,0,0,0-6.34,12,25,25,0,0,0-1.17,6.06,19,19,0,0,0,.06,2.74,17.13,17.13,0,0,0,.47,2.45,11.73,11.73,0,0,0,.94,2.21,15.73,15.73,0,0,0,1.67,2.25,18.63,18.63,0,0,0,2.18,2,18.27,18.27,0,0,0,2.44,1.53,12.12,12.12,0,0,0,3.82,1.17l.63,0a2.36,2.36,0,0,0,.65,0l.66,0,.65-.12c.46,0,.89-.23,1.36-.32a12.08,12.08,0,0,0,2.71-1.32,14.83,14.83,0,0,0,4.59-4.84,16.29,16.29,0,0,0,2.22-6.73,14.72,14.72,0,0,0-1.15-7.39,19,19,0,0,0-2-3.55,21.41,21.41,0,0,0-2.73-3.24l1.13-1.65A23.13,23.13,0,0,1,133,94.83a20.23,20.23,0,0,1,2,4.25,19.7,19.7,0,0,1,.92,4.63,21.6,21.6,0,0,1-6.8,17,19.73,19.73,0,0,1-3.84,2.81,18.64,18.64,0,0,1-2.18,1l-1.14.41-1.17.29a7.69,7.69,0,0,1-1.18.23c-.4,0-.8.12-1.2.16a19.22,19.22,0,0,1-2.4,0,18.62,18.62,0,0,1-4.7-.83,23.24,23.24,0,0,1-4.36-1.83,27.88,27.88,0,0,1-3.92-2.62A28.55,28.55,0,0,1,99.67,117a22.62,22.62,0,0,1-2.61-4,24.6,24.6,0,0,1-2.41-9.12,35.43,35.43,0,0,1,.62-9.27,50.2,50.2,0,0,1,6.86-17,48.09,48.09,0,0,1,12.4-13.51,46.23,46.23,0,0,1,16.72-7.62A32.13,32.13,0,0,1,158,62.19a37.15,37.15,0,0,1,6.62,6.58,45.66,45.66,0,0,1,4.91,7.85,37.74,37.74,0,0,1,1.83,4.23,35.58,35.58,0,0,1,1.46,4.41A49,49,0,0,1,174,103.61a74.12,74.12,0,0,1-4.43,17.69,158.14,158.14,0,0,1-7.43,16.43,108.77,108.77,0,0,1-9.44,15.47A126.66,126.66,0,0,1,141,167c-8.45,8.57-17.67,16.17-26.78,23.81s-18.17,15.38-28,22.28a150.16,150.16,0,0,1-31.81,16.89c-2.82,1.06-5.68,2-8.56,2.9s-5.74,1.64-8.42,2.61a25.06,25.06,0,0,0-7.28,4,36.34,36.34,0,0,0-5.92,6.09,45.89,45.89,0,0,0-7.63,15.32,75.25,75.25,0,0,0-2.79,17.2A134.56,134.56,0,0,0,14,295.71c.21,2.94.49,5.89.78,8.85s.57,5.89,1,8.8a71.38,71.38,0,0,0,4.15,16.94,56.72,56.72,0,0,0,8.73,15,61.23,61.23,0,0,0,12.77,11.86,68.24,68.24,0,0,0,15.58,8Z"/><path class="cls-4" d="M52,154C35,158.89,23,170.8,21.71,184.26c-.67,7.27,1.5,18.29,8.66,21.64,2.9,1.36,9.85,3,30.31-13A194.35,194.35,0,0,0,104,145.29"/><path class="cls-5" d="M74.56,107.56a56.8,56.8,0,0,1-4.08-8.84A72.17,72.17,0,0,1,68,89.13a58.44,58.44,0,0,1-.14-20.53,60,60,0,0,1,7.5-20.14,58.12,58.12,0,0,1,6.58-8.9,61.48,61.48,0,0,1,8-7.59,96.69,96.69,0,0,1,8.7-6.15c1.45-.91,2.91-1.75,4.31-2.55L105,22.08l2.19-1.23a113.54,113.54,0,0,1,19-8.23,87.5,87.5,0,0,1,21.42-4.23,61.43,61.43,0,0,1,23.73,3.18,51.93,51.93,0,0,1,11.37,5.81,50.6,50.6,0,0,1,9.6,8.51A54.7,54.7,0,0,1,199.16,36a70.49,70.49,0,0,1,4.53,10.24c1.17,3.35,2.13,6.61,3,9.79.42,1.58.84,3.14,1.19,4.69L209,65.38a99.73,99.73,0,0,1,1.81,10.29q.58,5.1.79,10.15a119.84,119.84,0,0,1-.95,20.07,116.14,116.14,0,0,1-4.2,19.42A108.72,108.72,0,0,1,199,143.42c-1.51,2.87-3.08,5.68-4.8,8.39s-3.56,5.34-5.59,7.81l-1.45-.68a136.31,136.31,0,0,0,10.74-35.1,130.88,130.88,0,0,0,1-36.6,113.2,113.2,0,0,0-3.49-17.95c-1.76-5.91-3.51-11.82-5.75-17.48s-5.09-11-9.1-15.44a37,37,0,0,0-6.69-5.8,35.56,35.56,0,0,0-7.93-3.94,46.3,46.3,0,0,0-17.65-2.49,77.56,77.56,0,0,0-17.88,3,113.21,113.21,0,0,0-17.1,6.49,115.69,115.69,0,0,0-16,8.82,52.82,52.82,0,0,0-21.09,28.6,63.93,63.93,0,0,0,0,36Z"/><polygon class="cls-6" points="138.56 184.56 171.64 216.63 166.05 217.62 184.28 188.17 184.59 190.38 160.26 163.09 187.25 187.76 188.21 188.63 187.56 189.97 172.44 221.13 170.54 225.03 166.85 222.12 130.66 193.59 138.56 184.56"/><g class="cls-7"><path class="cls-5" d="M77.12,381.78a111.43,111.43,0,0,1-9-20.19,74.4,74.4,0,0,1-2.6-11l-.23-1.41-.14-1.42c-.09-.95-.22-1.89-.26-2.85a50.84,50.84,0,0,1,0-5.79,48.46,48.46,0,0,1,.63-5.84l.68-2.89c.13-.48.21-1,.38-1.44l.48-1.41a39.87,39.87,0,0,1,5.46-10.74,42.6,42.6,0,0,1,8.5-8.72,66.27,66.27,0,0,1,10-6.25c3.43-1.78,6.87-3.33,10.26-4.81l10-4.36c1.66-.72,3.28-1.46,4.91-2.2s3.2-1.56,4.8-2.33,3.2-1.54,4.77-2.37l4.69-2.55c6.26-3.35,12.29-7.11,18.23-11,5.83-4,11.64-8.09,17.15-12.55a242.67,242.67,0,0,0,30.72-29,152.59,152.59,0,0,0,12.82-16.32l2.84-4.32,1.43-2.16c.47-.71.86-1.49,1.29-2.23l2.54-4.5,1.29-2.24c.42-.76.77-1.55,1.16-2.32a178.8,178.8,0,0,0,14.27-38.85,179.65,179.65,0,0,0,3.7-20.43c.26-1.72.37-3.44.55-5.15s.3-3.43.42-5.14.16-3.41.25-5.11l0-2.5v-1.21l0-1-.6-36.77,19,31c.6,1,1,1.68,1.46,2.48l1.28,2.32c.83,1.53,1.65,3.07,2.42,4.6,1.58,3.06,3.06,6.14,4.51,9.23,2.88,6.17,5.47,12.43,7.95,18.71s4.78,12.62,7,19,4.18,12.81,6.07,19.2c3.83,12.74,7.37,25.6,10.4,38.76,1.49,6.59,2.83,13.25,3.77,20.13a102.1,102.1,0,0,1,1,21.38A117.38,117.38,0,0,1,299.59,288a141.81,141.81,0,0,1-6.8,19.56,143.94,143.94,0,0,1-21.27,35A153.35,153.35,0,0,1,242,370.25,172.42,172.42,0,0,1,225.1,381a167.88,167.88,0,0,1-18,8.58c5.65-3.45,11.17-7.05,16.42-11a183.22,183.22,0,0,0,15.15-12.42c1.2-1.1,2.35-2.25,3.53-3.37.58-.56,1.18-1.11,1.74-1.69l1.69-1.75c1.12-1.17,2.3-2.29,3.36-3.5l3.23-3.61A154.44,154.44,0,0,0,264,336.94c1.85-2.61,3.44-5.39,5.1-8.11.87-1.33,1.57-2.77,2.33-4.16l2.24-4.21A147,147,0,0,0,281,303a144.28,144.28,0,0,0,4.95-18.21,102.85,102.85,0,0,0,2.15-18.31c.21-11.7-2.93-24.19-6.19-36.62s-7.37-24.9-11.44-37.34c-2-6.21-4.16-12.29-6.38-18.38s-4.52-12.11-7-18.05-5.06-11.83-7.79-17.6c-1.38-2.88-2.77-5.75-4.23-8.54-.72-1.41-1.46-2.78-2.21-4.15l-1.13-2c-.36-.63-.79-1.36-1.05-1.79L259,116.19l0,.92v.77l0,1.54,0,3c-.09,1.95-.11,3.92-.26,5.85-.21,3.88-.59,7.72-1.09,11.54a197.76,197.76,0,0,1-4.24,22.68A187.65,187.65,0,0,1,237,205.55c-.45.85-.86,1.72-1.35,2.56l-1.48,2.49-3,5c-.51.82-1,1.67-1.52,2.47L228,220.41l-3.33,4.75L223,227.53l-1.8,2.3c-1.18,1.56-2.43,3-3.66,4.5-2.48,2.94-5,5.8-7.67,8.54a239.94,239.94,0,0,1-34.29,29.71c-6.1,4.44-12.47,8.49-18.95,12.34s-13.17,7.33-20,10.44l-5.14,2.33c-1.73.75-3.49,1.42-5.23,2.13s-3.48,1.42-5.23,2.1-3.51,1.3-5.26,1.91c-7,2.48-14,4.57-20.38,7.23a61.16,61.16,0,0,0-9,4.53,34.36,34.36,0,0,0-7.4,6.28,32.11,32.11,0,0,0-5.34,8.25L73,331.25c-.18.38-.29.79-.43,1.18l-.84,2.38a47.82,47.82,0,0,0-1.14,5,46.3,46.3,0,0,0-.62,5.16c-.06.87,0,1.74-.07,2.62l0,1.32.06,1.32a71.23,71.23,0,0,0,1.21,10.62c.63,3.54,1.52,7.06,2.51,10.56S75.86,378.33,77.12,381.78Z"/></g><path class="cls-8" d="M140.13,435.46c-7.34-24.3-13.81-57.09-3.86-83,8.34-21.7,23.62-26.55,42.43-38.71,45.1-29.15,75.77-77.8,88.73-105.1,33.37-70.31,30.86-149.34,30.86-149.34s13.29,32.77,27,99.56c16.52,80.48,16.87,102.56,15.43,121.69a281.82,281.82,0,0,1-15.43,71.9c-19.65,54.64-50.83,82.67-65.58,94"/><path class="cls-9" d="M139.55,435.64a239.39,239.39,0,0,1-8-26.27,146.52,146.52,0,0,1-3.81-27.52A86.41,86.41,0,0,1,131,353.59c.37-1.16.65-2.34,1.1-3.49l1.32-3.44c.5-1.13,1-2.25,1.56-3.38s1.2-2.19,1.8-3.3a53.29,53.29,0,0,1,9.45-11.79,89.15,89.15,0,0,1,11.56-8.89c3.93-2.61,7.8-5,11.54-7.42,1.88-1.21,3.7-2.44,5.51-3.67l5.3-3.89,2.64-1.94,2.55-2.08,5.08-4.16a257.36,257.36,0,0,0,19-18.27,258.54,258.54,0,0,0,17-20.25c5.31-7,10.34-14.29,15-21.76s9.13-15.08,13.11-22.87a273.28,273.28,0,0,0,18.78-49A357.35,357.35,0,0,0,284,112.21c.28-2.19.6-4.38.86-6.58l.7-6.6c.26-2.19.43-4.4.61-6.6s.39-4.41.51-6.61l.39-6.62.26-6.6.16-6.57c0-2.15.05-4.43,0-6.35L286.43,0l21.82,55.3c.5,1.26.86,2.25,1.26,3.35l1.15,3.2c.73,2.11,1.46,4.23,2.14,6.34,1.4,4.23,2.71,8.46,4,12.69,2.54,8.46,4.86,17,7.06,25.45,4.37,17,8.32,34.11,11.52,51.32s6.39,34.26,9.07,51.58c1.34,8.66,2.58,17.36,3.48,26.16s1.6,17.72,1.67,26.8c.05,4.54-.1,9.13-.43,13.65s-.78,9-1.37,13.4-1.25,8.84-2.06,13.22S344,311.18,343,315.51a269.25,269.25,0,0,1-17,50.39,221.83,221.83,0,0,1-27.59,45.22,196.85,196.85,0,0,1-17.85,19.43c-3.19,3-6.53,5.86-9.92,8.64s-6.91,5.35-10.51,7.81l-.73-.95a184.1,184.1,0,0,0,35.76-37.3A216.46,216.46,0,0,0,309,386.86l3.06-5.71c1-1.9,1.91-3.88,2.86-5.82,2-3.86,3.58-7.87,5.31-11.83a266.24,266.24,0,0,0,15-49.58c1.72-8.47,3.06-17,4-25.62a183.06,183.06,0,0,0,1.13-25.85c-.26-8.62-1.1-17.23-2.2-25.82s-2.44-17.14-3.89-25.67c-2.91-17.08-6.27-34.09-9.76-51.07S317,126,312.61,109.29c-2.22-8.37-4.55-16.71-7.09-25-1.28-4.13-2.58-8.26-4-12.36s-2.81-8.19-4.37-12.17l2.28-.48c.17,9.17-.2,18.26-.88,27.36-.13,2.27-.38,4.54-.56,6.81s-.39,4.54-.67,6.8l-.77,6.79c-.27,2.26-.62,4.52-.92,6.77a367.62,367.62,0,0,1-11.47,53.42A283.68,283.68,0,0,1,263.85,218a299.35,299.35,0,0,1-30,45.63,253,253,0,0,1-38.25,39l-5.43,4.16-2.73,2.08-2.82,1.93L179,314.57c-1.93,1.22-3.86,2.43-5.82,3.6-7.77,4.72-15.86,8.95-22.63,14.87a49,49,0,0,0-14.44,22.26,75.44,75.44,0,0,0-3.16,13.11c-.26,2.24-.63,4.46-.73,6.72l-.22,3.38-.07,3.38a144.82,144.82,0,0,0,2.43,27,233.39,233.39,0,0,0,6.38,26.41Z"/><path class="cls-10" d="M157.55,440.16c-8-22.55-15-53-4.19-77,9.07-20.14,25.68-24.64,46.13-35.93,49-27,82.38-72.17,96.47-97.5C332.24,164.52,329.51,91.2,329.51,91.2s14.45,30.41,29.36,92.38c18,74.66,18.34,95.14,16.77,112.89a228.48,228.48,0,0,1-16.77,66.72c-21.37,50.69-55.27,76.69-71.3,87.24"/><path class="cls-9" d="M157,440.36A190,190,0,0,1,149.47,415c-1-4.32-1.66-8.69-2.21-13.09-.19-2.21-.48-4.42-.53-6.64,0-1.11-.12-2.22-.15-3.33l0-3.34,0-1.67.12-1.67.23-3.35.45-3.32.23-1.67.35-1.64.69-3.3,1-3.24c.16-.54.3-1.08.48-1.62l.61-1.57c.41-1.05.8-2.11,1.23-3.16a49.45,49.45,0,0,1,7.12-11.57,52.31,52.31,0,0,1,10-9.17c7.41-5.22,15.48-8.93,23.16-13.06,1.93-1,3.83-2.07,5.73-3.12s3.73-2.23,5.59-3.35c3.78-2.15,7.32-4.68,10.94-7.07.91-.59,1.79-1.23,2.66-1.88l2.62-1.94,2.61-1.93,1.31-1,1.27-1c3.38-2.74,6.8-5.41,10-8.33a260.1,260.1,0,0,0,18.73-18.1,278,278,0,0,0,31.94-41c2.33-3.65,4.53-7.37,6.62-11.13s3.92-7.7,5.88-11.55l.73-1.45.64-1.48,1.29-3,2.59-5.95c.91-2,1.57-4,2.35-6l2.26-6.08a287,287,0,0,0,12.64-50.31l1-6.42c.33-2.14.54-4.3.81-6.45.58-4.29.9-8.61,1.31-12.91l.43-6.47c.12-2.16.19-4.32.29-6.48s.1-4.3.12-6.45,0-4.33-.08-6.33l-1-24L334,89.08c1,2,1.77,3.91,2.62,5.86s1.62,3.86,2.4,5.8c1.57,3.87,3,7.77,4.49,11.67,2.88,7.8,5.52,15.68,8.07,23.58q7.59,23.7,13.57,47.84l3,12,2.81,12.08,2.68,12.12c.82,4.06,1.7,8.11,2.46,12.19,1.61,8.14,3,16.36,4.12,24.67a194.49,194.49,0,0,1,2,25.35c0,4.3-.22,8.63-.61,12.86s-.91,8.44-1.57,12.61a215.18,215.18,0,0,1-5.32,24.69,236.17,236.17,0,0,1-8,23.92l-1.17,2.93-1.23,2.9L363,365.07l-1.36,2.84-2.73,5.68c-.93,1.88-2,3.71-3,5.56a192.3,192.3,0,0,1-29.28,40.65,175.11,175.11,0,0,1-38.75,31.13l-.66-1a193.79,193.79,0,0,0,35.39-33.66c1.31-1.54,2.53-3.16,3.77-4.77s2.51-3.19,3.65-4.86l3.51-5,3.29-5.1c1.13-1.67,2.12-3.44,3.15-5.18s2.1-3.45,3-5.24c1.89-3.57,3.87-7.09,5.53-10.77.85-1.83,1.76-3.62,2.57-5.47l2.33-5.58,1.17-2.79,1.07-2.82,1.08-2.82,1-2.85a225.27,225.27,0,0,0,6.76-23.19c.47-1.95.87-3.93,1.31-5.89s.8-3.94,1.15-5.92c.75-3.95,1.36-7.92,1.88-11.89s.92-7.94,1.16-11.92.36-7.88.25-11.81c-.5-15.73-3.46-31.8-6.51-47.79-1.58-8-3.29-16-5-24l-5.39-24-2.82-11.94-2.95-11.89c-2.07-7.9-4.17-15.8-6.5-23.61s-4.76-15.61-7.42-23.31c-1.34-3.84-2.7-7.67-4.15-11.46-.71-1.89-1.45-3.77-2.2-5.65s-1.55-3.77-2.31-5.46l9.39-2.3c.05,2.39,0,4.58-.05,6.84s-.15,4.48-.26,6.72-.25,4.46-.42,6.68l-.56,6.67c-.49,4.43-.91,8.86-1.57,13.27-.33,2.2-.58,4.41-1,6.61l-1.13,6.58a294.21,294.21,0,0,1-13.91,51.54l-2.44,6.22c-.84,2.07-1.56,4.18-2.54,6.19l-2.77,6.09-1.39,3-.69,1.52-.78,1.48c-2.09,3.94-4.12,7.92-6.28,11.83s-4.59,7.67-7.05,11.39a284.92,284.92,0,0,1-33.44,41.43,255.14,255.14,0,0,1-19.54,18.09c-3.36,2.91-6.92,5.57-10.43,8.29l-1.32,1-1.36,1-2.72,1.92-2.73,1.91c-.9.65-1.81,1.29-2.76,1.87-3.76,2.36-7.43,4.86-11.34,7-1.94,1.09-3.85,2.21-5.8,3.29s-3.92,2.06-5.9,3c-7.87,4-15.92,7.51-23,12.28a48.71,48.71,0,0,0-9.55,8.32,46.41,46.41,0,0,0-6.88,10.64l-1.22,2.95-.61,1.48c-.18.51-.33,1-.5,1.53l-1,3.06-.73,3.14-.37,1.57-.26,1.59-.5,3.19-.3,3.23-.15,1.61-.06,1.62-.11,3.25.06,3.25c0,2.17.22,4.33.35,6.5.42,4.33,1,8.66,1.83,12.94a189.23,189.23,0,0,0,6.8,25.32Z"/></g></g></svg>