<svg id="Layer_1" data-name="Layer 1" xmlns="http://www.w3.org/2000/svg" xmlns:xlink="http://www.w3.org/1999/xlink" viewBox="0 0 312.74 403.9"><defs><style>.cls-1{fill:#099;}.cls-2{opacity:0.9;}.cls-3{fill:url(#linear-gradient);}.cls-4,.cls-8{fill:none;stroke:#336;stroke-miterlimit:10;}.cls-4{stroke-width:14px;}.cls-5{fill:url(#linear-gradient-2);}.cls-6{fill:url(#linear-gradient-3);}.cls-7{fill:#336;}.cls-8{stroke-width:15px;}</style><linearGradient id="linear-gradient" x1="171.82" y1="290.84" x2="325.73" y2="290.84" gradientUnits="userSpaceOnUse"><stop offset="0" stop-color="#fff"/><stop offset="0" stop-color="#eaf5ea"/><stop offset="0" stop-color="#356a00"/><stop offset="0" stop-color="#6abbca"/><stop offset="0.01" stop-color="#68e700"/><stop offset="0.01" stop-color="#71c9ce"/><stop offset="0.32" stop-color="#3448a9"/><stop offset="0.56" stop-color="#71c9ce"/><stop offset="0.83" stop-color="#4173b1"/><stop offset="1" stop-color="#00018b"/><stop offset="1" stop-color="#d51a47"/><stop offset="1"/></linearGradient><linearGradient id="linear-gradient-2" x1="313.3" y1="286.41" x2="448.61" y2="286.1" xlink:href="#linear-gradient"/><linearGradient id="linear-gradient-3" x1="192.89" y1="154.47" x2="396.42" y2="114.44" xlink:href="#linear-gradient"/></defs><circle class="cls-1" cx="154.68" cy="249.23" r="154.68"/><g class="cls-2"><path class="cls-1" d="M220.82,152.81S188,188.54,182.9,225.08a128.93,128.93,0,0,0,1.19,40.29c4.46,26,14.89,44,22.51,56.87,20.83,35.14,46.27,56.3,68.72,74.65,17.91,14.63,45,32,45,32" transform="translate(-165.32 -25.52)"/><path class="cls-3" d="M220.82,152.81a268,268,0,0,0-20.24,37.25c-5.51,12.74-9.64,25.79-10.22,38.72q-.29,5-.14,10c.09,3.31.29,6.63.65,9.93s.87,6.59,1.42,9.9c.29,1.65.6,3.29,1,5l1.07,4.89a150.27,150.27,0,0,0,14.34,37.17c1.58,3,3.25,6,5,9s3.54,5.89,5.3,8.83c3.59,5.79,7.47,11.39,11.51,16.89s8.45,10.74,12.94,16l3.43,3.86,3.51,3.8c2.37,2.53,4.76,5,7.23,7.51s4.92,4.95,7.45,7.39,5.09,4.86,7.64,7.33l7.71,7.31c2.51,2.42,5.14,4.76,7.76,7.13,10.52,9.45,21.46,18.65,32.21,28.24-6.59-2.93-13-6.18-19.35-9.58s-12.59-7-18.75-10.8c-3.07-1.93-6.11-3.89-9.13-6s-5.88-4.12-8.83-6.22-5.83-4.24-8.71-6.45-5.77-4.42-8.57-6.75a226.56,226.56,0,0,1-31.44-31.05c-4.72-5.74-9.08-11.77-13.24-17.95-4-6.36-7.72-12.41-11.31-19.05a164.74,164.74,0,0,1-9.27-20.7,146.34,146.34,0,0,1-6-22c-2.68-14.68-3.54-30.25-1-45.31l.48-2.82c.18-.95.41-1.91.61-2.87s.46-1.9.71-2.84.48-1.88.78-2.79a91.16,91.16,0,0,1,3.93-10.76A125.77,125.77,0,0,1,192,185.36,159.11,159.11,0,0,1,205.33,168,137,137,0,0,1,220.82,152.81Z" transform="translate(-165.32 -25.52)"/></g><path class="cls-4" d="M407.41,314.87a48.86,48.86,0,0,0,21.33,11.85c23.22,5.87,42.3-8.54,45-10.66" transform="translate(-165.32 -25.52)"/><g class="cls-2"><path class="cls-1" d="M392.91,143.3s25,32.44,33,45.82c8.41,14,12.64,21.2,14,30.13,2.15,14.05-2,26.65-17.6,56.42-19.16,36.48-30.27,52.52-30.27,52.52-20.85,30.08-72,101.13-72,101.13" transform="translate(-165.32 -25.52)"/><path class="cls-5" d="M392.91,143.3q7.39,7.51,14.4,15.38t13.71,16c2.23,2.75,4.42,5.5,6.56,8.39,1.07,1.41,2.16,3,3.13,4.41l3,4.36c2,2.93,3.91,5.92,5.77,9.08a61.74,61.74,0,0,1,5,10.35,42.65,42.65,0,0,1,1.68,5.85c.23,1,.38,2,.53,2.95s.28,2,.38,3a50.07,50.07,0,0,1-.41,12.06,69,69,0,0,1-2.71,11.25c-1.16,3.57-2.47,7-3.87,10.36-5.65,13.37-12.23,25.68-18.92,38.08-3.4,6.16-6.88,12.29-10.49,18.36s-7.35,12-11.47,18c-4.14,5.66-8.32,11.25-12.57,16.82l-6.36,8.35-6.43,8.3q-12.9,16.57-26.23,32.81c-8.94,10.79-18,21.5-27.49,31.85,6.67-12.39,13.81-24.41,21.05-36.36s14.72-23.7,22.29-35.39,15.35-23.24,23.1-34.78c3.56-5.67,7.09-11.63,10.47-17.61s6.81-12,10.11-18.07S413.76,275,417,268.87s6.37-12.17,9.22-18.23c1.43-3,2.73-6.07,3.87-9.08a63.91,63.91,0,0,0,2.72-8.93,37.9,37.9,0,0,0,.9-8.78c0-.74,0-1.48-.1-2.23s-.1-1.51-.21-2.22a30.7,30.7,0,0,0-.85-4.29c-1.54-5.71-4.74-11.79-7.88-17.93l-2.41-4.63c-.82-1.56-1.57-3-2.41-4.46-1.64-3-3.44-5.93-5.22-8.91C407.47,167.27,400,155.43,392.91,143.3Z" transform="translate(-165.32 -25.52)"/></g><g class="cls-2"><path class="cls-1" d="M222.89,189.23c-16-2.73-19.08-7.6-19.9-9.78-3.25-8.65,12.36-19.8,31.91-33.48,20.28-14.19,22.35-12.49,36.33-22.48,11-7.87,44.1-31.51,42.33-57.34a51.79,51.79,0,0,0-3.47-15.57s15.36,17,36.63,40.7c30.93,34.38,42.51,37.61,50.52,58.87,6.82,18.08,4.72,32.39,4.1,36-3.2,18.93-14,33-20.54,40.33" transform="translate(-165.32 -25.52)"/><path class="cls-6" d="M222.89,189.23c-1.07-.08-2.14-.15-3.21-.25s-2.14-.23-3.2-.42a41.74,41.74,0,0,1-6.41-1.46,19.82,19.82,0,0,1-6.21-3.12,10.69,10.69,0,0,1-2.63-3,9.1,9.1,0,0,1-1.21-4.11,14.5,14.5,0,0,1,2.09-7.59,37.92,37.92,0,0,1,4.1-5.74,104,104,0,0,1,9.4-9.48c1.62-1.46,3.23-2.94,4.95-4.24s3.56-2.44,5.31-3.67c3.52-2.45,7-4.91,10.58-7.35s7.27-4.79,11.07-7,7.68-4.2,11.19-6.21A116.19,116.19,0,0,0,269,119c3.43-2.45,6.76-4.91,10-7.5a125.3,125.3,0,0,0,17.73-16.9c5.14-6.13,9.44-13,11.16-20.12a28.12,28.12,0,0,0,.74-5.34,26,26,0,0,0,0-2.65c-.07-1-.17-1.92-.29-2.88a50.5,50.5,0,0,0-1.09-5.69c-.23-.94-.5-1.87-.79-2.78-.14-.46-.29-.91-.45-1.34s-.34-.93-.44-1.18l-11.24-27,19.54,21.71,36,40c5.95,6.63,12,13.07,18.35,19.33,3.15,3.13,6.35,6.22,9.59,9.33s6.52,6.26,9.73,9.68a71,71,0,0,1,8.9,11.38,67.16,67.16,0,0,1,6.12,13.15A81.63,81.63,0,0,1,406.11,164a89.47,89.47,0,0,1,1.1,14.38,32.55,32.55,0,0,1-1,7.23c-.26,1.2-.61,2.35-.94,3.5s-.69,2.3-1.09,3.42a73.83,73.83,0,0,1-5.88,12.86,84.59,84.59,0,0,1-8,11.36,90.76,90.76,0,0,1-9.53,9.77,103.76,103.76,0,0,0,7-11.45A79.88,79.88,0,0,0,393.09,203a71.15,71.15,0,0,0,3.13-12.47c.17-1.05.32-2.09.4-3.15s.22-2.09.25-3.11c.11-2.05,0-4.12.13-6.19a54.83,54.83,0,0,0-.76-12.45,71.3,71.3,0,0,0-3.13-12.17,57.28,57.28,0,0,0-5.21-11.23,60.44,60.44,0,0,0-7.68-9.78c-2.93-3.13-6.14-6.2-9.37-9.31s-6.49-6.25-9.7-9.45c-6.44-6.38-12.69-13-18.74-19.73l-36-40,8.3-5.33c.31.73.48,1.21.69,1.8s.39,1.12.57,1.68c.35,1.11.67,2.23.95,3.36a60.94,60.94,0,0,1,1.31,6.83c.14,1.16.26,2.32.35,3.48a35.71,35.71,0,0,1,.05,3.73,36.8,36.8,0,0,1-1,7.28,49.61,49.61,0,0,1-5.34,13.1A77.37,77.37,0,0,1,304.37,101a134.74,134.74,0,0,1-19.15,18.28c-3.41,2.73-6.92,5.33-10.42,7.82a125.45,125.45,0,0,1-11.11,7.24c-3.88,2.21-7.6,4.09-11.14,6.17s-7,4.3-10.51,6.64-6.94,4.78-10.37,7.24c-1.72,1.23-3.34,2.58-5.06,3.78s-3.52,2.27-5.26,3.4a98.86,98.86,0,0,0-9.94,7.16,30.56,30.56,0,0,0-4.07,4,9.46,9.46,0,0,0-2.23,4.24,4.88,4.88,0,0,0,1.41,4.12,17.38,17.38,0,0,0,4.62,3.51A57.18,57.18,0,0,0,222.89,189.23Z" transform="translate(-165.32 -25.52)"/></g><path class="cls-7" d="M197.39,274.4a51.93,51.93,0,0,1-1.13-13.09A44.4,44.4,0,0,1,199,247.72a43.81,43.81,0,0,1,6.69-12,51.15,51.15,0,0,1,8.83-8.73c1.51-1.18,3-2.25,4.42-3.19l3.7-2.39c2.29-1.47,4.58-3,6.87-4.63,4.59-3.2,9.18-6.61,13.83-10.1s9.39-7.07,14.25-10.6c2.43-1.77,4.91-3.53,7.41-5.26l1.9-1.29c.64-.43,1.27-.86,1.84-1.28l3.5-2.54,28.07-20.41c18.76-13.65,37.17-28,55.4-42.62s36.26-29.52,54.17-44.59Q386,103.86,361.55,129.15c-16.35,16.83-32.91,33.46-50.13,49.63L285.5,203.06l-3.25,3c-1.09,1-2.11,1.88-3.17,2.83-2.09,1.87-4.17,3.77-6.24,5.72-4.15,3.89-8.28,7.92-12.52,12s-8.56,8.23-13.09,12.33c-2.28,2-4.59,4.09-7,6.09l-3.34,2.81c-.93.81-1.72,1.56-2.43,2.29-2.82,2.91-3.94,5.34-4.29,7.61a15.25,15.25,0,0,0,1.1,7.88Z" transform="translate(-165.32 -25.52)"/><path class="cls-8" d="M301.27,180c1.13,21.68,1.61,44.63,1.18,68.72a987.32,987.32,0,0,1-8.29,111.38" transform="translate(-165.32 -25.52)"/><path class="cls-4" d="M325.63,215.71c9.06-13.34,25-19,38.18-14.3,9,3.17,17,11.22,18.9,21,2.89,15.17-10.22,28.3-16.68,34.78a143.43,143.43,0,0,1-28,21.95s10.17,3.94,21.44,7c17,4.59,29.75,13.58,38.44,21.34" transform="translate(-165.32 -25.52)"/></svg>