<svg id="Layer_1" data-name="Layer 1" xmlns="http://www.w3.org/2000/svg" xmlns:xlink="http://www.w3.org/1999/xlink" viewBox="0 0 309.52 388.71"><defs><style>.cls-1{fill:url(#linear-gradient);}.cls-2{fill:url(#linear-gradient-2);}.cls-3{opacity:0.9;}.cls-4{fill:url(#linear-gradient-3);}.cls-5{fill:url(#linear-gradient-4);}.cls-6,.cls-8,.cls-9{fill:none;stroke-miterlimit:10;}.cls-6,.cls-8{stroke-width:14px;}.cls-6{stroke:url(#linear-gradient-5);}.cls-7{fill:url(#linear-gradient-6);}.cls-8{stroke:url(#linear-gradient-7);}.cls-9{stroke-width:15px;stroke:url(#linear-gradient-8);}.cls-10{fill:url(#linear-gradient-9);}</style><linearGradient id="linear-gradient" x1="158.15" y1="296.2" x2="296.67" y2="296.2" gradientUnits="userSpaceOnUse"><stop offset="0" stop-color="#fff"/><stop offset="0" stop-color="#007f01"/><stop offset="0" stop-color="#bfd400"/><stop offset="1"/></linearGradient><linearGradient id="linear-gradient-2" x1="153.15" y1="296.2" x2="299.37" y2="296.2" gradientUnits="userSpaceOnUse"><stop offset="0" stop-color="#fff"/><stop offset="0" stop-color="#eaf5ea"/><stop offset="0" stop-color="#68e700"/><stop offset="0.33" stop-color="#aa002f"/><stop offset="0.84" stop-color="#1200ff"/><stop offset="1"/><stop offset="1" stop-color="#d51a47"/></linearGradient><linearGradient id="linear-gradient-3" x1="259.86" y1="131.39" x2="381.23" y2="131.39" gradientUnits="userSpaceOnUse"><stop offset="0" stop-color="#fff"/><stop offset="0" stop-color="#007f01"/><stop offset="0.14" stop-color="#007d01"/><stop offset="1" stop-color="#084100"/><stop offset="1" stop-color="#0de900"/><stop offset="1"/></linearGradient><linearGradient id="linear-gradient-4" x1="258.36" y1="126.37" x2="382.73" y2="126.37" gradientUnits="userSpaceOnUse"><stop offset="0" stop-color="#fff"/><stop offset="0" stop-color="#eaf5ea"/><stop offset="0.01" stop-color="#68e700"/><stop offset="0.17" stop-color="#356a00"/><stop offset="0.59" stop-color="#aa002f"/><stop offset="1" stop-color="#00018b"/><stop offset="1" stop-color="#d51a47"/><stop offset="1"/></linearGradient><linearGradient id="linear-gradient-5" x1="297.6" y1="258.52" x2="400.97" y2="258.52" gradientTransform="translate(81.15 -76.47) rotate(15)" gradientUnits="userSpaceOnUse"><stop offset="0" stop-color="#fff"/><stop offset="0" stop-color="#007f01"/><stop offset="0" stop-color="#aa0026"/><stop offset="0.58" stop-color="#482536"/><stop offset="1" stop-color="#084100"/><stop offset="1" stop-color="#0de900"/><stop offset="1"/></linearGradient><linearGradient id="linear-gradient-6" x1="310.54" y1="295.73" x2="437.98" y2="295.73" gradientUnits="userSpaceOnUse"><stop offset="0" stop-color="#fff"/><stop offset="0" stop-color="#eaf5ea"/><stop offset="0.01" stop-color="#68e700"/><stop offset="0.44" stop-color="#aa002f"/><stop offset="1"/></linearGradient><linearGradient id="linear-gradient-7" x1="387.95" y1="332.79" x2="463.4" y2="332.79" gradientUnits="userSpaceOnUse"><stop offset="0" stop-color="#fff"/><stop offset="0" stop-color="#007f01"/><stop offset="0" stop-color="#103e07"/><stop offset="0.39" stop-color="#22370b"/><stop offset="0.81" stop-color="#482536"/><stop offset="1" stop-color="#aa0026"/><stop offset="1" stop-color="#084100"/><stop offset="1" stop-color="#0de900"/><stop offset="1"/></linearGradient><linearGradient id="linear-gradient-8" x1="277.05" y1="275.66" x2="300.44" y2="275.66" gradientUnits="userSpaceOnUse"><stop offset="0" stop-color="#fff"/><stop offset="0" stop-color="#eaf5ea"/><stop offset="0" stop-color="#68e700"/><stop offset="0.93" stop-color="#004e00"/><stop offset="1" stop-color="#035300"/><stop offset="1" stop-color="#aa002f"/><stop offset="1" stop-color="#d51a47"/><stop offset="1"/></linearGradient><linearGradient id="linear-gradient-9" x1="186.04" y1="181.6" x2="412.24" y2="181.6" gradientUnits="userSpaceOnUse"><stop offset="0" stop-color="#fff"/><stop offset="0" stop-color="#eaf5ea"/><stop offset="0.01" stop-color="#68e700"/><stop offset="0.38" stop-color="#054f1a"/><stop offset="1" stop-color="#002c19"/><stop offset="1" stop-color="#d51a47"/><stop offset="1"/></linearGradient></defs><path class="cls-1" d="M197.15,158.16s-32.86,35.74-37.92,72.28a128.87,128.87,0,0,0,1.19,40.28c4.46,26,14.89,44,22.51,56.87,20.83,35.15,46.27,56.3,68.72,74.65,17.91,14.64,45,32,45,32" transform="translate(-153.88 -45.52)"/><path class="cls-2" d="M197.15,158.16c-2.17,2.85-4.26,5.73-6.25,8.68s-4,5.89-5.84,8.9a196.16,196.16,0,0,0-10.3,18.5c-6.15,12.61-10.93,25.88-12,39.46a122.28,122.28,0,0,0,0,20.61c.29,3.43.74,6.85,1.27,10.26.27,1.71.57,3.41.89,5.15l1,5.07a148.64,148.64,0,0,0,14.56,38.56c3.24,6.11,6.91,12.24,10.55,18.13s7.74,11.59,11.95,17.15,8.77,10.86,13.46,16.06,9.64,10.18,14.73,15.05,10.33,9.62,15.63,14.34,10.6,9.4,16.1,13.88c10.94,9,22.34,17.58,33.68,26.27-12.56-6.83-24.73-14.33-36.62-22.35-3-2-5.9-4.09-8.8-6.25s-5.7-4.31-8.55-6.5c-5.66-4.37-11.27-8.87-16.73-13.58a239.59,239.59,0,0,1-30.35-31.06c-4.55-5.68-8.8-11.61-12.81-17.69s-7.59-12.28-11.06-18.74A163.23,163.23,0,0,1,162.69,298a144,144,0,0,1-5.95-21.27l-1-5.43c-.29-1.78-.55-3.6-.79-5.41-.48-3.64-.8-7.31-1-11a119.74,119.74,0,0,1,.95-22.07,90.88,90.88,0,0,1,5.7-21.42,130.68,130.68,0,0,1,9.77-19.51,178.7,178.7,0,0,1,12.35-17.74A161.41,161.41,0,0,1,197.15,158.16Z" transform="translate(-153.88 -45.52)"/><g class="cls-3"><path class="cls-4" d="M270.56,155.09c-9.26-4.43-10.46-8.79-10.66-10.66-.8-7.43,10.09-14.22,23.69-22.51,14.12-8.6,15.13-6.94,24.88-13,7.69-4.8,30.78-19.22,33.18-40.28a55.61,55.61,0,0,0,0-13s7,15.88,16.59,37.91c14,32,20.54,36.25,22.51,54.5a75.72,75.72,0,0,1-2.37,29.62,71.7,71.7,0,0,1-17.77,29.62" transform="translate(-153.88 -45.52)"/><path class="cls-5" d="M270.56,155.09a29.07,29.07,0,0,1-7.81-4.67,11.84,11.84,0,0,1-2.85-3.73,7.82,7.82,0,0,1-.59-4.82,11.91,11.91,0,0,1,1.95-4.42,24.59,24.59,0,0,1,3.05-3.6,64,64,0,0,1,7.09-5.91,85.36,85.36,0,0,1,7.63-5c2.58-1.58,5.15-3.17,7.8-4.69s5.35-3,8.14-4.23,5.55-2.39,8.14-3.77c10.3-5.82,20.33-12.79,27.85-21.87a41.89,41.89,0,0,0,8.27-15.25,37.73,37.73,0,0,0,1.23-8.6,53.1,53.1,0,0,0-.29-8.76l-1.28-10.26L343,55l16.59,37.9q4.14,9.44,8.74,18.66c1.54,3.07,3.12,6.12,4.7,9.19s3.17,6.16,4.57,9.39A56.72,56.72,0,0,1,381,140.15a71.73,71.73,0,0,1,1.52,10.45,83,83,0,0,1-1.08,21,54.33,54.33,0,0,1-3.12,10.09,70.17,70.17,0,0,1-4.65,9.4,72.67,72.67,0,0,1-5.93,8.58,73.65,73.65,0,0,1-7.1,7.56,75.25,75.25,0,0,0,11.57-16.93A68.83,68.83,0,0,0,378.4,171a75.94,75.94,0,0,0,1.1-20.2,68,68,0,0,0-1.46-10,53.38,53.38,0,0,0-3.17-9.54c-1.34-3.1-2.91-6.15-4.48-9.21s-3.17-6.13-4.72-9.22q-4.65-9.27-8.81-18.8L340.28,56.17l2.85-.82a55.05,55.05,0,0,1,.33,9.32c-.07,1.55-.19,3.08-.4,4.63-.11.78-.21,1.57-.39,2.34l-.24,1.16-.31,1.14a44.81,44.81,0,0,1-8.84,16.35,80.05,80.05,0,0,1-13.39,12.64q-3.66,2.77-7.51,5.25c-2.55,1.64-5.13,3.27-7.87,4.73s-5.6,2.61-8.28,3.84-5.32,2.63-7.91,4.12-5.15,3.06-7.71,4.64-5.06,3.24-7.61,4.78a61.49,61.49,0,0,0-7.21,5.16,22.18,22.18,0,0,0-3.05,3.08,10.25,10.25,0,0,0-2,3.66,6.46,6.46,0,0,0,.19,4.05,11.42,11.42,0,0,0,2.35,3.6A28.75,28.75,0,0,0,270.56,155.09Z" transform="translate(-153.88 -45.52)"/></g><path class="cls-6" d="M314,230.06c9.07-13.34,25-19,38.18-14.3,9,3.18,17,11.22,18.9,21,2.89,15.17-10.22,28.31-16.68,34.79a143.12,143.12,0,0,1-28,21.94s10.17,3.94,21.44,7c17,4.59,29.75,13.59,38.44,21.34" transform="translate(-153.88 -45.52)"/><path class="cls-7" d="M385.67,166.58q6.93,6.69,13.48,13.72c4.39,4.67,8.67,9.43,12.85,14.33,2.08,2.47,4.14,4.94,6.15,7.54,1,1.26,2,2.7,3,4l2.77,3.93c1.86,2.64,3.67,5.34,5.43,8.21a55.44,55.44,0,0,1,4.79,9.46,39.83,39.83,0,0,1,1.62,5.42c.22.94.36,1.84.51,2.75s.27,1.84.36,2.77a44.09,44.09,0,0,1-.42,11.2c-1.16,7.31-3.69,13.73-6.29,19.83C424.5,281.9,418.32,293,412,304.25c-3.21,5.57-6.49,11.11-9.89,16.6s-6.92,10.87-10.82,16.27c-3.88,5.05-7.81,10.1-11.8,15.09l-6,7.49-6,7.45c-8.09,9.89-16.28,19.7-24.67,29.36s-16.92,19.18-25.9,28.37c6.18-11.28,12.81-22.19,19.55-33s13.7-21.45,20.76-32,14.32-21,21.59-31.38c3.32-5.08,6.63-10.46,9.8-15.85s6.39-10.82,9.49-16.3,6.24-11,9.28-16.47,6-11,8.7-16.43a79.3,79.3,0,0,0,6.23-16.14,32.25,32.25,0,0,0,.88-7.78,19,19,0,0,0-.07-2c0-.67-.09-1.34-.19-2a26.76,26.76,0,0,0-.76-3.81c-1.39-5.09-4.36-10.61-7.27-16.19l-2.22-4.2c-.77-1.4-1.44-2.66-2.23-4-1.51-2.7-3.18-5.39-4.81-8.09C399.06,188.41,392.18,177.64,385.67,166.58Z" transform="translate(-153.88 -45.52)"/><path class="cls-8" d="M392.74,325.22a48.76,48.76,0,0,0,21.33,11.85c23.22,5.87,42.3-8.53,45-10.66" transform="translate(-153.88 -45.52)"/><path class="cls-9" d="M291.6,185.32c1.13,21.68,1.61,44.62,1.18,68.72a987.14,987.14,0,0,1-8.29,111.37" transform="translate(-153.88 -45.52)"/><path class="cls-10" d="M187.72,279.75a52.32,52.32,0,0,1-1.13-13.08,44.41,44.41,0,0,1,2.69-13.6,43.9,43.9,0,0,1,6.69-12,51.21,51.21,0,0,1,8.83-8.74c1.51-1.18,3-2.24,4.42-3.18l3.7-2.4c2.3-1.47,4.58-3,6.88-4.62,4.58-3.21,9.17-6.61,13.82-10.1S243,205,247.87,201.43q3.65-2.66,7.42-5.26l1.89-1.29c.64-.43,1.28-.86,1.84-1.28l3.5-2.54,28.07-20.41c18.76-13.65,37.17-28,55.4-42.62s36.26-29.52,54.18-44.58q-23.87,25.76-48.29,51.05C335.54,151.33,319,168,301.75,184.13l-25.92,24.29-3.25,3c-1.09,1-2.11,1.88-3.16,2.82-2.09,1.87-4.17,3.77-6.25,5.72-4.15,3.9-8.28,7.92-12.51,12s-8.57,8.23-13.1,12.33c-2.28,2-4.59,4.09-7,6.09l-3.34,2.82c-.93.81-1.72,1.55-2.43,2.28-2.82,2.91-3.94,5.35-4.29,7.62a15.17,15.17,0,0,0,1.11,7.88Z" transform="translate(-153.88 -45.52)"/></svg>