<svg xmlns="http://www.w3.org/2000/svg" xmlns:xlink="http://www.w3.org/1999/xlink" viewBox="0 0 438.27 438.27"><defs><style>.cls-1{stroke:#000;stroke-width:3px;opacity:0.7;fill:url(#linear-gradient);}.cls-1,.cls-10,.cls-11,.cls-9{stroke-miterlimit:10;}.cls-2{fill:url(#linear-gradient-2);}.cls-3{fill:url(#linear-gradient-3);}.cls-4{opacity:0.9;}.cls-5{fill:url(#linear-gradient-4);}.cls-6{fill:url(#linear-gradient-5);}.cls-7{fill:url(#linear-gradient-6);}.cls-8{fill:url(#linear-gradient-7);}.cls-10,.cls-11,.cls-9{fill:none;}.cls-10,.cls-9{stroke-width:14px;}.cls-9{stroke:url(#linear-gradient-8);}.cls-10{stroke:url(#linear-gradient-9);}.cls-11{stroke-width:15px;stroke:url(#linear-gradient-10);}.cls-12{fill:url(#linear-gradient-11);}</style><linearGradient id="linear-gradient" x1="1.5" y1="219.13" x2="436.77" y2="219.13" gradientUnits="userSpaceOnUse"><stop offset="0" stop-color="#fff"/><stop offset="0" stop-color="#007f01"/><stop offset="0"/><stop offset="0.07" stop-color="#212b2b"/><stop offset="0.21" stop-color="#186d6a"/><stop offset="0.71" stop-color="#002196"/><stop offset="1" stop-color="#583681"/></linearGradient><linearGradient id="linear-gradient-2" x1="57.28" y1="275.33" x2="195.81" y2="275.33" gradientUnits="userSpaceOnUse"><stop offset="0" stop-color="#fff"/><stop offset="0" stop-color="#007f01"/><stop offset="0" stop-color="#bfd400"/><stop offset="1"/></linearGradient><linearGradient id="linear-gradient-3" x1="52.28" y1="275.33" x2="198.5" y2="275.33" gradientUnits="userSpaceOnUse"><stop offset="0" stop-color="#fff"/><stop offset="0" stop-color="#eaf5ea"/><stop offset="0" stop-color="#68e700"/><stop offset="0.33" stop-color="#aa002f"/><stop offset="0.84" stop-color="#1200ff"/><stop offset="1"/><stop offset="1" stop-color="#d51a47"/></linearGradient><linearGradient id="linear-gradient-4" x1="158.99" y1="110.53" x2="280.36" y2="110.53" gradientUnits="userSpaceOnUse"><stop offset="0" stop-color="#fff"/><stop offset="0" stop-color="#007f01"/><stop offset="0.14" stop-color="#007d01"/><stop offset="1" stop-color="#084100"/><stop offset="1" stop-color="#0de900"/><stop offset="1"/></linearGradient><linearGradient id="linear-gradient-5" x1="157.49" y1="105.51" x2="281.86" y2="105.51" gradientUnits="userSpaceOnUse"><stop offset="0" stop-color="#fff"/><stop offset="0" stop-color="#eaf5ea"/><stop offset="0.01" stop-color="#68e700"/><stop offset="0.17" stop-color="#356a00"/><stop offset="0.59" stop-color="#aa002f"/><stop offset="1" stop-color="#00018b"/><stop offset="1" stop-color="#d51a47"/><stop offset="1"/></linearGradient><linearGradient id="linear-gradient-6" x1="232.08" y1="279.86" x2="345.12" y2="279.86" gradientUnits="userSpaceOnUse"><stop offset="0" stop-color="#fff"/><stop offset="0" stop-color="#eaf5ea"/><stop offset="0" stop-color="#007f01"/><stop offset="0" stop-color="#007b05"/><stop offset="0.52" stop-color="#004d33"/><stop offset="1" stop-color="#003abe"/><stop offset="1"/></linearGradient><linearGradient id="linear-gradient-7" x1="230.48" y1="279.86" x2="347.12" y2="279.86" gradientUnits="userSpaceOnUse"><stop offset="0" stop-color="#fff"/><stop offset="0" stop-color="#eaf5ea"/><stop offset="0.01" stop-color="#68e700"/><stop offset="0.44" stop-color="#aa002f"/><stop offset="1"/></linearGradient><linearGradient id="linear-gradient-8" x1="196.73" y1="237.66" x2="300.1" y2="237.66" gradientTransform="translate(72.32 -51.08) rotate(15)" gradientUnits="userSpaceOnUse"><stop offset="0" stop-color="#fff"/><stop offset="0" stop-color="#007f01"/><stop offset="0" stop-color="#aa0026"/><stop offset="0.58" stop-color="#482536"/><stop offset="1" stop-color="#084100"/><stop offset="1" stop-color="#0de900"/><stop offset="1"/></linearGradient><linearGradient id="linear-gradient-9" x1="287.09" y1="311.93" x2="362.54" y2="311.93" gradientUnits="userSpaceOnUse"><stop offset="0" stop-color="#fff"/><stop offset="0" stop-color="#007f01"/><stop offset="0" stop-color="#103e07"/><stop offset="0.39" stop-color="#22370b"/><stop offset="0.81" stop-color="#482536"/><stop offset="1" stop-color="#aa0026"/><stop offset="1" stop-color="#084100"/><stop offset="1" stop-color="#0de900"/><stop offset="1"/></linearGradient><linearGradient id="linear-gradient-10" x1="176.19" y1="254.79" x2="199.57" y2="254.79" gradientUnits="userSpaceOnUse"><stop offset="0" stop-color="#fff"/><stop offset="0" stop-color="#eaf5ea"/><stop offset="0" stop-color="#68e700"/><stop offset="0.93" stop-color="#004e00"/><stop offset="1" stop-color="#035300"/><stop offset="1" stop-color="#aa002f"/><stop offset="1" stop-color="#d51a47"/><stop offset="1"/></linearGradient><linearGradient id="linear-gradient-11" x1="85.17" y1="160.73" x2="311.38" y2="160.73" gradientUnits="userSpaceOnUse"><stop offset="0" stop-color="#fff"/><stop offset="0" stop-color="#eaf5ea"/><stop offset="0.01" stop-color="#68e700"/><stop offset="0.38" stop-color="#054f1a"/><stop offset="1" stop-color="#002c19"/><stop offset="1" stop-color="#d51a47"/><stop offset="1"/></linearGradient></defs><g id="Layer_2" data-name="Layer 2"><g id="Layer_1-2" data-name="Layer 1"><circle class="cls-1" cx="219.13" cy="219.13" r="217.63"/><path class="cls-2" d="M96.28,137.3S63.43,173,58.37,209.57a128.72,128.72,0,0,0,1.18,40.29c4.46,26,14.89,44,22.51,56.87,20.83,35.14,46.27,56.3,68.72,74.64,17.92,14.64,45,32,45,32"/><path class="cls-3" d="M96.28,137.3C94.12,140.14,92,143,90,146s-4,5.89-5.83,8.91a198.37,198.37,0,0,0-10.31,18.49C67.75,186,63,199.25,61.92,212.83a122.4,122.4,0,0,0,0,20.62c.29,3.43.75,6.84,1.28,10.26.27,1.71.57,3.41.89,5.14l1,5.07a148.18,148.18,0,0,0,14.57,38.56c3.23,6.11,6.91,12.24,10.55,18.13S98,322.2,102.2,327.76s8.77,10.86,13.46,16.06,9.64,10.18,14.73,15.05,10.33,9.62,15.64,14.34,10.6,9.41,16.09,13.88c10.95,9,22.34,17.59,33.69,26.27C183.25,406.53,171.08,399,159.18,391c-3-2-5.9-4.1-8.79-6.25s-5.7-4.32-8.55-6.5c-5.67-4.37-11.28-8.87-16.73-13.58a239.74,239.74,0,0,1-30.36-31.07C90.2,327.94,86,322,81.94,315.94s-7.58-12.29-11-18.75a160.48,160.48,0,0,1-9.07-20.07,145.28,145.28,0,0,1-6-21.27l-.95-5.43c-.28-1.78-.55-3.59-.78-5.41-.48-3.64-.81-7.31-1-11a118.92,118.92,0,0,1,1-22.07,90.05,90.05,0,0,1,5.7-21.42A130.21,130.21,0,0,1,69.59,171a176.9,176.9,0,0,1,12.35-17.73A157.88,157.88,0,0,1,96.28,137.3Z"/><g class="cls-4"><path class="cls-5" d="M169.69,134.23c-9.25-4.44-10.46-8.8-10.66-10.67-.8-7.42,10.09-14.22,23.7-22.51,14.11-8.6,15.13-6.94,24.88-13,7.68-4.8,30.77-19.23,33.17-40.29a55.61,55.61,0,0,0,0-13s7,15.88,16.59,37.91c14,32,20.54,36.25,22.51,54.51a75.57,75.57,0,0,1-2.37,29.62,71.66,71.66,0,0,1-17.77,29.62"/><path class="cls-6" d="M169.69,134.23a29.05,29.05,0,0,1-7.8-4.68,11.61,11.61,0,0,1-2.86-3.73,7.88,7.88,0,0,1-.58-4.82,11.6,11.6,0,0,1,2-4.42,23.94,23.94,0,0,1,3-3.59,63.64,63.64,0,0,1,7.09-5.91,85.47,85.47,0,0,1,7.63-5c2.58-1.57,5.15-3.17,7.8-4.68s5.36-3,8.15-4.24,5.55-2.38,8.14-3.77c10.29-5.82,20.32-12.79,27.84-21.87a41.78,41.78,0,0,0,8.27-15.24,38.31,38.31,0,0,0,1.24-8.61,54,54,0,0,0-.3-8.75L238,24.65l4.13,9.45L258.74,72q4.14,9.44,8.75,18.65c1.53,3.07,3.12,6.12,4.7,9.19s3.17,6.16,4.56,9.39a55.76,55.76,0,0,1,3.35,10.06,71.42,71.42,0,0,1,1.53,10.44,83.52,83.52,0,0,1-1.09,21,53.49,53.49,0,0,1-3.12,10.08,70.24,70.24,0,0,1-4.64,9.41,74.71,74.71,0,0,1-5.94,8.57,73.75,73.75,0,0,1-7.1,7.57,75.91,75.91,0,0,0,11.58-16.94,69.07,69.07,0,0,0,6.21-19.26,76.39,76.39,0,0,0,1.11-20.2,70.87,70.87,0,0,0-1.46-10,53.42,53.42,0,0,0-3.18-9.54c-1.34-3.1-2.91-6.14-4.48-9.2s-3.17-6.13-4.72-9.23c-3.1-6.18-6-12.46-8.81-18.79L239.41,35.3l2.86-.82a57.21,57.21,0,0,1,.33,9.32c-.08,1.55-.19,3.08-.4,4.64-.12.78-.21,1.56-.39,2.33l-.25,1.16-.3,1.14a44.75,44.75,0,0,1-8.85,16.35A80.05,80.05,0,0,1,219,82.06c-2.43,1.86-4.94,3.6-7.5,5.26s-5.13,3.27-7.87,4.73-5.61,2.6-8.29,3.83-5.31,2.64-7.91,4.12-5.14,3.06-7.71,4.64-5.05,3.24-7.6,4.79a62.38,62.38,0,0,0-7.22,5.15,23.26,23.26,0,0,0-3,3.08,10.16,10.16,0,0,0-2,3.67,6.5,6.5,0,0,0,.19,4,11.06,11.06,0,0,0,2.36,3.6A28.8,28.8,0,0,0,169.69,134.23Z"/></g><path class="cls-7" d="M300.8,150.72s23.32,29.36,30.8,41.47c7.84,12.67,11.78,19.17,13,27.25,2,12.7-1.89,24.07-16.59,50.94-18,32.93-28.44,47.4-28.44,47.4C280.05,344.92,232.08,409,232.08,409"/><path class="cls-8" d="M300.8,150.72l6.13,7.32,6,7.42c4,5,7.95,9.95,11.81,15,1.92,2.55,3.82,5.11,5.64,7.75s3.54,5.35,5.25,8,3.39,5.42,5,8.24a55.76,55.76,0,0,1,4.13,8.88,38.52,38.52,0,0,1,1.35,19.66,81.57,81.57,0,0,1-6.26,18.45c-2.65,5.86-5.63,11.53-8.64,17.16s-6.1,11.2-9.26,16.75-6.41,11-9.75,16.47-6.74,10.85-10.42,16.13c-3.79,5.12-7.65,10.19-11.46,15.29l-11.52,15.24q-11.54,15.22-23.2,30.36L243.86,394,238,401.52,232.08,409l5.44-7.85,5.49-7.81,11-15.61q11.08-15.54,22.24-31c7.41-10.34,15-20.56,22.41-30.88,7.06-10.45,13.54-21.41,19.82-32.43q4.74-8.25,9.3-16.62c3-5.57,6-11.18,8.63-16.88a78.13,78.13,0,0,0,6.27-17.52,36.88,36.88,0,0,0,.7-9.07,34.38,34.38,0,0,0-1.57-9c-1.88-5.81-5.21-11.26-8.38-16.74-1.61-2.74-3.21-5.48-4.92-8.12s-3.52-5.26-5.32-7.88C316,171.17,308.33,161,300.8,150.72Z"/><path class="cls-9" d="M213.09,209.2c9.07-13.34,25-19,38.18-14.3,9,3.17,17,11.21,18.9,21,2.89,15.17-10.21,28.3-16.68,34.78a143.1,143.1,0,0,1-28,21.95s10.18,3.94,21.44,7c17,4.58,29.76,13.58,38.44,21.34"/><path class="cls-10" d="M291.88,304.36a48.75,48.75,0,0,0,21.32,11.85c23.23,5.87,42.3-8.54,45-10.67"/><path class="cls-11" d="M190.73,164.45c1.13,21.68,1.61,44.63,1.19,68.72a987.38,987.38,0,0,1-8.3,111.38"/><path class="cls-12" d="M86.85,258.89a52.44,52.44,0,0,1-1.13-13.09,44.84,44.84,0,0,1,2.7-13.6,43.88,43.88,0,0,1,6.68-12,51.26,51.26,0,0,1,8.84-8.74c1.5-1.17,3-2.24,4.41-3.18l3.71-2.4c2.29-1.47,4.58-3,6.87-4.62,4.58-3.2,9.17-6.61,13.83-10.1s9.38-7.07,14.25-10.61c2.43-1.77,4.91-3.52,7.41-5.25l1.9-1.29c.64-.43,1.27-.86,1.83-1.28l3.5-2.55,28.08-20.4c18.75-13.65,37.16-28,55.39-42.62s36.27-29.52,54.18-44.59Q275.45,88.35,251,113.64c-16.34,16.82-32.9,33.46-50.12,49.63L175,187.55l-3.25,3c-1.1,1-2.11,1.88-3.17,2.83-2.09,1.87-4.17,3.77-6.24,5.72-4.15,3.89-8.29,7.91-12.52,12s-8.56,8.23-13.09,12.33c-2.29,2-4.59,4.08-7,6.09l-3.35,2.81c-.93.81-1.71,1.56-2.42,2.28-2.83,2.92-3.94,5.35-4.29,7.62a15.14,15.14,0,0,0,1.1,7.88Z"/></g></g></svg>