<svg id="Layer_1" data-name="Layer 1" xmlns="http://www.w3.org/2000/svg" xmlns:xlink="http://www.w3.org/1999/xlink" viewBox="0 0 319.64 428.13"><defs><style>.cls-1{fill:url(#linear-gradient);}.cls-2{opacity:0.9;}.cls-3{fill:url(#linear-gradient-2);}.cls-4,.cls-6,.cls-7{fill:none;stroke-miterlimit:10;}.cls-4,.cls-6{stroke-width:14px;}.cls-4{stroke:url(#linear-gradient-3);}.cls-5{fill:url(#linear-gradient-4);}.cls-6{stroke:url(#linear-gradient-5);}.cls-7{stroke-width:15px;stroke:url(#linear-gradient-6);}.cls-8{fill:url(#linear-gradient-7);}</style><linearGradient id="linear-gradient" x1="142.53" y1="293.53" x2="311.84" y2="293.53" gradientUnits="userSpaceOnUse"><stop offset="0" stop-color="#fff"/><stop offset="0" stop-color="#eaf5ea"/><stop offset="0" stop-color="#68e700"/><stop offset="0.33" stop-color="#aa002f"/><stop offset="0.84" stop-color="#1200ff"/><stop offset="1"/><stop offset="1" stop-color="#d51a47"/></linearGradient><linearGradient id="linear-gradient-2" x1="225.24" y1="108.76" x2="360.61" y2="108.76" gradientUnits="userSpaceOnUse"><stop offset="0" stop-color="#fff"/><stop offset="0" stop-color="#eaf5ea"/><stop offset="0.01" stop-color="#68e700"/><stop offset="0.17" stop-color="#356a00"/><stop offset="0.59" stop-color="#aa002f"/><stop offset="1" stop-color="#00018b"/><stop offset="1" stop-color="#d51a47"/><stop offset="1"/></linearGradient><linearGradient id="linear-gradient-3" x1="302.89" y1="261.35" x2="406.26" y2="261.35" gradientTransform="translate(81.15 -76.47) rotate(15)" gradientUnits="userSpaceOnUse"><stop offset="0" stop-color="#fff"/><stop offset="0" stop-color="#007f01"/><stop offset="0" stop-color="#aa0026"/><stop offset="0.58" stop-color="#482536"/><stop offset="1" stop-color="#084100"/><stop offset="1" stop-color="#0de900"/><stop offset="1"/></linearGradient><linearGradient id="linear-gradient-4" x1="314.92" y1="299.83" x2="442.36" y2="299.83" gradientUnits="userSpaceOnUse"><stop offset="0" stop-color="#fff"/><stop offset="0" stop-color="#eaf5ea"/><stop offset="0.01" stop-color="#68e700"/><stop offset="0.44" stop-color="#aa002f"/><stop offset="1"/></linearGradient><linearGradient id="linear-gradient-5" x1="392.33" y1="336.9" x2="467.78" y2="336.9" gradientUnits="userSpaceOnUse"><stop offset="0" stop-color="#fff"/><stop offset="0" stop-color="#007f01"/><stop offset="0" stop-color="#103e07"/><stop offset="0.39" stop-color="#22370b"/><stop offset="0.81" stop-color="#482536"/><stop offset="1" stop-color="#aa0026"/><stop offset="1" stop-color="#084100"/><stop offset="1" stop-color="#0de900"/><stop offset="1"/></linearGradient><linearGradient id="linear-gradient-6" x1="281.43" y1="279.76" x2="304.82" y2="279.76" gradientUnits="userSpaceOnUse"><stop offset="0" stop-color="#fff"/><stop offset="0" stop-color="#eaf5ea"/><stop offset="0" stop-color="#68e700"/><stop offset="0.93" stop-color="#004e00"/><stop offset="1" stop-color="#035300"/><stop offset="1" stop-color="#aa002f"/><stop offset="1" stop-color="#d51a47"/><stop offset="1"/></linearGradient><linearGradient id="linear-gradient-7" x1="190.42" y1="185.7" x2="416.62" y2="185.7" gradientUnits="userSpaceOnUse"><stop offset="0" stop-color="#fff"/><stop offset="0" stop-color="#eaf5ea"/><stop offset="0.01" stop-color="#68e700"/><stop offset="0.38" stop-color="#054f1a"/><stop offset="1" stop-color="#002c19"/><stop offset="1" stop-color="#d51a47"/><stop offset="1"/></linearGradient></defs><path class="cls-1" d="M216.25,175.8c-.08,0-.41.38-.65.61l-.79.8-1.63,1.68q-1.63,1.73-3.25,3.54c-2.15,2.41-4.26,4.89-6.29,7.42a171.47,171.47,0,0,0-11.31,15.7,122,122,0,0,0-8.89,16.51,83.76,83.76,0,0,0-3.17,8.41c-.25.7-.42,1.4-.62,2.1s-.42,1.4-.56,2.09l-.5,2.1-.44,2.28a105.76,105.76,0,0,0-1.65,18.77c0,3.19.14,6.4.4,9.65.13,1.64.28,3.26.47,5l.61,4.86a132.45,132.45,0,0,0,4.24,19.13,146.43,146.43,0,0,0,7.13,18.66c2.79,6.12,6.13,12.47,9.36,18.43s7,11.81,10.9,17.5a247.77,247.77,0,0,0,26.74,32c4.92,5,10,9.93,15.22,14.77,2.59,2.42,5.23,4.87,7.84,7.23s5.28,4.68,8,7c10.85,9.15,22.16,17.86,33.65,26.31-12.41-7.06-24.67-14.4-36.65-22.31-3-2-6-4-8.91-6.11s-5.8-4.19-8.7-6.32c-5.78-4.24-11.52-8.59-17.16-13.15a259.72,259.72,0,0,1-31.8-30.15Q190.55,352,184,343c-4.31-6.13-8.33-12-12.25-18.45a170.34,170.34,0,0,1-10.57-20.21,156.68,156.68,0,0,1-7.63-21.9l-1.38-5.64c-.42-1.78-.83-3.68-1.2-5.57-.76-3.8-1.39-7.67-1.86-11.59a135.08,135.08,0,0,1-.71-23.92l.21-3,.35-3.17c.1-1.07.28-2.11.44-3.15s.31-2.1.53-3.12a114.13,114.13,0,0,1,3-12.06,154.22,154.22,0,0,1,8.77-22.37A205.86,205.86,0,0,1,173,168.26q3.09-4.95,6.45-9.74,1.68-2.4,3.46-4.78l1.82-2.4.95-1.23c.36-.44.62-.77,1.13-1.38Z" transform="translate(-148.14 -10.2)"/><g class="cls-2"><path class="cls-3" d="M242.94,155.19a26.93,26.93,0,0,1-8.86-3.6,12.86,12.86,0,0,1-3.84-4,10.23,10.23,0,0,1-1.35-6.29,15.4,15.4,0,0,1,1.92-5.87,29.57,29.57,0,0,1,3.08-4.54,68.44,68.44,0,0,1,6.94-7.23,25.45,25.45,0,0,1,3.66-3c1.31-.84,2.73-1.49,4-2.3l3.9-2.38c1.34-.81,2.68-1.61,4.05-2.4,2.74-1.56,5.62-3.11,8.58-4.46,1.48-.68,2.93-1.3,4.22-1.87s2.47-1.14,3.65-1.76,2.35-1.29,3.54-2l1.85-1.14,1.83-1.17c2.42-1.56,4.74-3.18,7-4.88a72.3,72.3,0,0,0,12-11.27,36.41,36.41,0,0,0,7.22-13.21c1.2-4.2,1.32-10.49.79-15.11L301.78,10.2l18.66,42.66L337,90.76c2.73,6.21,5.59,12.33,8.63,18.39,1.52,3,3.08,6,4.67,9.15s3.23,6.25,4.73,9.71a62.93,62.93,0,0,1,3.66,11,77.4,77.4,0,0,1,1.65,11.27,91.31,91.31,0,0,1,.13,11.22c-.15,3.75-.74,7.46-1.17,11.24a23.41,23.41,0,0,1-1.86,5.45c-.38.9-.8,1.76-1.23,2.61s-.83,1.7-1.3,2.52a68.58,68.58,0,0,1-6.13,9.36A65.56,65.56,0,0,1,333,207.33a80.15,80.15,0,0,0,8.79-18.45,67.29,67.29,0,0,0,2.35-9.48c.16-.78.26-1.58.37-2.37s.23-1.57.28-2.33a37.27,37.27,0,0,1,.47-4.62c.15-.76.39-1.51.52-2.28s.25-1.54.34-2.32c.19-1.55.31-3.12.4-4.69a76.44,76.44,0,0,0-.11-9.45,63.58,63.58,0,0,0-1.34-9.18,47.48,47.48,0,0,0-2.86-8.58c-1.23-2.86-2.76-5.84-4.33-8.88s-3.17-6.14-4.74-9.27c-3.14-6.27-6.12-12.64-8.93-19.06L307.62,58.48,321,54.65c.08.64.12,1,.17,1.46l.11,1.3c.06.86.1,1.7.13,2.55.05,1.69,0,3.37,0,5.05s-.2,3.33-.44,5.11c-.14.91-.25,1.82-.46,2.71l-.28,1.35-.35,1.32a50.22,50.22,0,0,1-9.9,18.38,86,86,0,0,1-14.31,13.53c-2.56,2-5.19,3.78-7.85,5.49l-2,1.27-2,1.24c-1.37.85-2.83,1.67-4.31,2.47s-3,1.52-4.49,2.17-2.8,1.21-4.06,1.8c-2.53,1.15-5,2.46-7.48,3.89-1.24.71-2.49,1.46-3.73,2.21l-3.83,2.34c-1.26.77-2.41,1.72-3.64,2.5a28.78,28.78,0,0,1-3.89,1.94,73.79,73.79,0,0,0-7.38,3.84,15.34,15.34,0,0,0-5,4.35,3.94,3.94,0,0,0-.58,2.58,8.23,8.23,0,0,0,1.38,3.37A28.15,28.15,0,0,0,242.94,155.19Z" transform="translate(-148.14 -10.2)"/></g><path class="cls-4" d="M318.34,234.17c9.06-13.34,25-19,38.18-14.31,9,3.18,17,11.22,18.9,21,2.89,15.16-10.22,28.3-16.68,34.78a143.43,143.43,0,0,1-28,21.95s10.17,3.93,21.44,7c17,4.58,29.75,13.58,38.44,21.34" transform="translate(-148.14 -10.2)"/><path class="cls-5" d="M390,170.69q6.94,6.67,13.49,13.71t12.85,14.34c2.08,2.46,4.14,4.94,6.15,7.54,1,1.26,2,2.69,3,4l2.77,3.93c1.86,2.64,3.67,5.34,5.43,8.21a55.81,55.81,0,0,1,4.79,9.46,39.54,39.54,0,0,1,1.62,5.43c.22.93.36,1.84.51,2.75s.27,1.83.36,2.76a44.17,44.17,0,0,1-.42,11.21c-1.16,7.3-3.69,13.72-6.29,19.82-5.37,12.17-11.55,23.3-17.85,34.52-3.21,5.57-6.49,11.11-9.89,16.6s-6.92,10.87-10.82,16.28q-5.82,7.57-11.8,15.08l-6,7.49-6,7.45c-8.09,9.9-16.28,19.71-24.67,29.36S330.29,419.8,321.32,429c6.18-11.28,12.81-22.18,19.55-33s13.7-21.45,20.76-32,14.32-21,21.59-31.39c3.32-5.08,6.63-10.46,9.8-15.85s6.39-10.82,9.49-16.3,6.24-11,9.28-16.47,6-11,8.69-16.43a79.51,79.51,0,0,0,6.24-16.13,32.33,32.33,0,0,0,.88-7.79,19.1,19.1,0,0,0-.07-2c0-.67-.09-1.34-.19-2a27.32,27.32,0,0,0-.76-3.81c-1.39-5.09-4.36-10.61-7.27-16.18l-2.22-4.2c-.77-1.41-1.44-2.67-2.23-4-1.51-2.69-3.18-5.38-4.81-8.08C403.44,192.51,396.56,181.75,390,170.69Z" transform="translate(-148.14 -10.2)"/><path class="cls-6" d="M397.12,329.33a48.86,48.86,0,0,0,21.33,11.85c23.22,5.87,42.3-8.54,45-10.67" transform="translate(-148.14 -10.2)"/><path class="cls-7" d="M296,189.42c1.13,21.68,1.61,44.63,1.18,68.72a987.14,987.14,0,0,1-8.29,111.37" transform="translate(-148.14 -10.2)"/><path class="cls-8" d="M192.1,283.86A52.44,52.44,0,0,1,191,270.77a44.46,44.46,0,0,1,2.69-13.6,43.9,43.9,0,0,1,6.69-12,51.21,51.21,0,0,1,8.83-8.74c1.51-1.17,3-2.24,4.42-3.18l3.7-2.4c2.3-1.47,4.58-3,6.87-4.62,4.59-3.21,9.18-6.61,13.83-10.1s9.39-7.07,14.25-10.61q3.65-2.66,7.42-5.25l1.89-1.29c.64-.43,1.27-.86,1.84-1.28l3.5-2.55L295,174.76c18.76-13.65,37.17-28,55.4-42.62s36.26-29.52,54.18-44.59q-23.87,25.77-48.29,51.06c-16.34,16.82-32.91,33.46-50.13,49.63l-25.92,24.28-3.25,3c-1.09,1-2.11,1.88-3.17,2.82-2.09,1.88-4.16,3.77-6.24,5.73-4.15,3.89-8.28,7.91-12.51,12s-8.57,8.23-13.1,12.33c-2.28,2.05-4.59,4.09-7,6.1l-3.34,2.81c-.93.81-1.72,1.56-2.43,2.28-2.82,2.92-3.94,5.35-4.29,7.62a15.26,15.26,0,0,0,1.1,7.88Z" transform="translate(-148.14 -10.2)"/></svg>