<svg id="Layer_1" data-name="Layer 1" xmlns="http://www.w3.org/2000/svg" xmlns:xlink="http://www.w3.org/1999/xlink" viewBox="0 0 401 427.83"><defs><style>.cls-1{stroke:#000;opacity:0.8;fill:url(#linear-gradient);}.cls-1,.cls-5{stroke-miterlimit:10;}.cls-2{fill:url(#linear-gradient-2);}.cls-3{fill:url(#linear-gradient-3);}.cls-4{fill:url(#linear-gradient-4);}.cls-5{fill:none;stroke-width:20px;stroke:url(#linear-gradient-5);}.cls-6{fill:url(#linear-gradient-6);}</style><linearGradient id="linear-gradient" x1="0.5" y1="213.47" x2="400.5" y2="213.47" gradientUnits="userSpaceOnUse"><stop offset="0" stop-color="#fff"/><stop offset="0" stop-color="#1599ff"/><stop offset="0.23" stop-color="#198ef9"/><stop offset="0.72" stop-color="#5100aa"/><stop offset="1"/></linearGradient><linearGradient id="linear-gradient-2" x1="109.83" y1="322.11" x2="352.87" y2="322.11" gradientUnits="userSpaceOnUse"><stop offset="0" stop-color="#fff"/><stop offset="0" stop-color="#1599ff"/><stop offset="0" stop-color="#111969"/><stop offset="0" stop-color="#18ca04"/><stop offset="0" stop-color="#496902"/><stop offset="0" stop-color="#3d8003"/><stop offset="0" stop-color="#457002"/><stop offset="0" stop-color="#4a6702"/><stop offset="0.37" stop-color="#4a6602"/><stop offset="0.54" stop-color="#4c6302"/><stop offset="0.72" stop-color="#1cc104"/><stop offset="0.82" stop-color="#349203"/><stop offset="0.87" stop-color="#3a8603"/><stop offset="1" stop-color="#4c6402"/><stop offset="1" stop-color="#7ad400"/><stop offset="1" stop-color="#929400"/><stop offset="1" stop-color="#00d405"/><stop offset="1" stop-color="#3d00c5"/><stop offset="1" stop-color="#198ef9"/><stop offset="1" stop-color="#002246"/><stop offset="1"/></linearGradient><linearGradient id="linear-gradient-3" x1="317.57" y1="247.95" x2="463" y2="247.95" xlink:href="#linear-gradient-2"/><linearGradient id="linear-gradient-4" x1="287.41" y1="247.91" x2="409.5" y2="247.91" gradientUnits="userSpaceOnUse"><stop offset="0" stop-color="#fff"/><stop offset="0" stop-color="#1599ff"/><stop offset="0" stop-color="#111969"/><stop offset="0.32" stop-color="#070167"/><stop offset="0.59" stop-color="#1801b7"/><stop offset="0.96" stop-color="#1901bc"/><stop offset="1" stop-color="#3d00c5"/><stop offset="1" stop-color="#198ef9"/><stop offset="1" stop-color="#002246"/><stop offset="1"/></linearGradient><linearGradient id="linear-gradient-5" x1="138.37" y1="255.45" x2="197.66" y2="255.45" gradientUnits="userSpaceOnUse"><stop offset="0" stop-color="#fff"/><stop offset="0" stop-color="#1599ff"/><stop offset="0" stop-color="#111969"/><stop offset="0.26" stop-color="#0701b7"/><stop offset="0.58" stop-color="#000189"/><stop offset="1" stop-color="#3d00c5"/><stop offset="1" stop-color="#198ef9"/><stop offset="1" stop-color="#002246"/><stop offset="1"/></linearGradient><linearGradient id="linear-gradient-6" x1="127.12" y1="161.82" x2="356.63" y2="161.82" gradientUnits="userSpaceOnUse"><stop offset="0" stop-color="#fff"/><stop offset="0" stop-color="#1599ff"/><stop offset="0" stop-color="#111969"/><stop offset="0.51" stop-color="#0701b7"/><stop offset="0.82" stop-color="#3d00c5"/><stop offset="1" stop-color="#198ef9"/><stop offset="1" stop-color="#002246"/><stop offset="1"/></linearGradient></defs><circle class="cls-1" cx="200.5" cy="213.47" r="200"/><path class="cls-2" d="M117.78,187.55c3.49,16.77,6.78,33.48,10.32,50.11,1.75,8.32,3.55,16.64,5.4,24.9.94,4.12,1.89,8.2,2.92,12.26s2.18,8.19,3.2,12.36c2.1,8.34,4,16.69,5.83,25.05S149,329,150.68,337.29,153.94,354,156,361.75a56.51,56.51,0,0,0,3.66,10.5,27,27,0,0,0,6,7.94,17.61,17.61,0,0,0,3.6,2.75c1.44.85,3.2,1.73,5,2.59,3.67,1.72,7.56,3.4,11.43,5.09L209,400.87c7.78,3.48,15.58,6.91,23.32,10.47L244,416.65l5.79,2.7,2.84,1.31.55.25.73.3,1.47.6c15.59,6.49,31.42,12.5,47.39,18.26s32.13,11.12,48.36,16.59a480.53,480.53,0,0,1-50.58-9.05q-25.06-5.82-49.57-14l-1.53-.52-.77-.25-.94-.34-3-1.18-6-2.3-11.89-4.68c-7.93-3.1-15.82-6.32-23.73-9.48s-15.76-6.44-23.67-9.7c-4-1.67-7.9-3.35-12-5.21-2.05-1-4.12-2-6.36-3.26q-.84-.46-1.71-1.05c-.57-.36-1.15-.79-1.72-1.2a33,33,0,0,1-3.13-2.68c-.93-.9-1.76-1.82-2.63-2.74s-1.68-2-2.47-3a41.94,41.94,0,0,1-4.06-6.73,68.45,68.45,0,0,1-4.68-13.6c-1.09-4.41-1.88-8.67-2.7-12.94s-1.53-8.46-2.22-12.67c-2.81-16.81-5.48-33.58-8.43-50.23l-2.25-12.6c-.74-4.28-1.38-8.57-1.92-12.83-1.12-8.53-2-17-2.82-25.56C118.83,221.77,117.82,204.68,117.78,187.55Z" transform="translate(-86 -34.03)"/><path class="cls-3" d="M322.91,34a191.85,191.85,0,0,1,49.4,35.15c3.64,3.5,7.24,7.19,10.69,11s6.73,7.69,10,11.53c6.43,7.64,12.89,15.61,18.83,24a298.84,298.84,0,0,1,16.49,26c2.52,4.47,5,9,7.25,13.61s4.43,9.18,6.55,13.9a257.59,257.59,0,0,1,10.85,29.08,223.78,223.78,0,0,1,7.31,30.4c.83,5.17,1.43,10.46,1.87,15.59s.74,10.47.75,15.75A173.11,173.11,0,0,1,460,291.52a193.89,193.89,0,0,1-8.42,30.15L449,328.84c-.89,2.42-1.9,5-2.94,7.36l-6.18,13.74-12.33,27.31-6.21,13.62c-1,2.26-2.07,4.52-3.05,6.75s-1.86,4.45-2.76,6.73c-7.13,18.19-11.58,37.61-14.38,57.51-.41-5-.53-10.05-.58-15.1s.22-10.12.64-15.18a184.64,184.64,0,0,1,4.95-30.2c.3-1.25.64-2.49,1-3.73s.71-2.52,1.08-3.73c.76-2.46,1.53-4.86,2.31-7.26,1.55-4.79,3.19-9.52,4.8-14.27s3.25-9.46,4.91-14.19,3.32-9.47,5.06-14.18l5.15-14c.81-2.27,1.54-4.4,2.24-6.71l2.12-7.07a202.12,202.12,0,0,0,6.49-27.88,163.77,163.77,0,0,0,1.81-28.16c-.08-4.72-.35-9.4-.81-14.19s-1-9.47-1.8-14.18A211.11,211.11,0,0,0,434,203.9c-1.35-4.74-2.73-9.26-4.32-13.82s-3.28-9-5.06-13.54q-5.48-13.59-11.91-26.65c-2.15-4.36-4.44-8.66-6.77-12.94s-4.76-8.51-7.29-12.67-5.12-8.3-7.84-12.39-5.53-8.17-8.33-12.31c-5.6-8.28-11.15-16.14-17.43-23.81a251.29,251.29,0,0,0-19.75-22A281.24,281.24,0,0,0,322.91,34Z" transform="translate(-86 -34.03)"/><path class="cls-4" d="M297,290.11l5.33-32.66c1.74-10.85,3.35-21.67,5-32.59l2.64-16.3,2.77-16.27,2.91-16.24,3.06-16.2L326,121.32l10.21,38.37c.82,3.09,1.5,5.94,2.2,8.89l2,8.77c1.36,5.84,2.61,11.69,3.85,17.55s2.48,11.71,3.62,17.54l3.58,17.47c1.14,5.9,2.34,11.87,3.13,18.34a73.36,73.36,0,0,1-.08,20.34c-.22,1.71-.57,3.36-.88,5-.18.85-.44,1.82-.66,2.73s-.5,1.7-.76,2.55c-1.06,3.27-2.3,6.24-3.57,9.15s-2.61,5.73-4,8.5-2.78,5.47-4.37,8.28L339,307.16l-1.87,1.08-6.43,3.7-3-15.94c3.83.85,7.66,1.67,11.48,2.57l1.91.44,1,.68.54.38.43.31.79.61c.52.4,1,.81,1.5,1.23,1,.82,1.9,1.68,2.81,2.57a49.49,49.49,0,0,1,5.06,5.79l.58.79.48.72.94,1.42c.63.95,1.24,1.9,1.83,2.87,1.2,1.92,2.36,3.88,3.46,5.84s2.15,3.93,3.14,5.88l2.92,5.76c2,3.81,3.88,7.63,5.87,11.34l1.56,2.85c.55,1,1.08,2.07,1.56,3.09,1,2.06,1.84,4,2.71,6.06s1.69,4.06,2.49,6.06c.39,1,.79,2,1.17,2.9a17.81,17.81,0,0,0,1,2,1.17,1.17,0,0,0,.42.45,2.12,2.12,0,0,0,.43.24,2.65,2.65,0,0,0,.54.22,11.65,11.65,0,0,0,2.62.55,31.85,31.85,0,0,0,6.09,0,85.6,85.6,0,0,0,12.67-2.21,59.27,59.27,0,0,1-5.83,3,60.34,60.34,0,0,1-6.16,2.46,33.88,33.88,0,0,1-6.71,1.56,17.11,17.11,0,0,1-3.79,0,7.67,7.67,0,0,1-1-.18,8.44,8.44,0,0,1-1.09-.29,7.64,7.64,0,0,1-2.29-1.27,14.39,14.39,0,0,1-2.73-3.23c-.67-1-1.24-1.91-1.83-2.83l-3.46-5.41c-1.16-1.77-2.34-3.58-3.51-5.26-.59-.85-1.18-1.61-1.79-2.43l-1.95-2.57c-2.65-3.55-5.19-7.1-7.64-10.69l-3.66-5.35c-1.21-1.75-2.39-3.47-3.59-5.14s-2.43-3.31-3.7-4.92c-.63-.8-1.27-1.6-1.92-2.39l-1-1.17-.49-.58-.42-.48a33.19,33.19,0,0,0-3.77-3.61c-.68-.56-1.39-1.11-2.1-1.62l-1.07-.73-.52-.33-.24-.14-.11-.06s-.07,0,0,0l2.89,1.13c-3.89-.54-7.76-1.16-11.64-1.74l-21.94-3.32,18.95-12.63,6.17-4.11-3.19,3.43,1.78-3.84,1.77-3.92c1.15-2.61,2.25-5.24,3.25-7.85s1.9-5.2,2.6-7.62l.47-1.75c.11-.55.23-1,.34-1.64.2-1.27.44-2.56.56-3.81s.22-2.51.32-3.76.07-2.49,0-3.76a71.93,71.93,0,0,0-.65-7.8c-.7-5.37-1.87-11.09-3.06-16.88l-3.44-17.61c-1.14-5.87-2.15-11.71-3.23-17.56L322,181.14l-1.61-8.74-1.63-8.58,17.48-.16-4.12,16-4.25,16-4.39,15.93-4.53,15.9c-1.57,5.29-3.07,10.56-4.72,15.87s-3.35,10.57-5.17,15.81C305.43,269.61,301.46,280,297,290.11Z" transform="translate(-86 -34.03)"/><line class="cls-5" x1="187.81" y1="367.71" x2="148.22" y2="143.19"/><path class="cls-6" d="M136.55,247c2.42-6,5.14-11.6,8-17.07,1.38-2.78,2.89-5.41,4.32-8.12s3-5.3,4.51-7.89a5.71,5.71,0,0,1,1.5-1.52c.57-.4,1.22-.73,1.82-1.1a11.8,11.8,0,0,0,1.72-1.25l1.65-1.33,6.58-5.32,13.16-10.64,52.67-42.58,52.66-42.58,26.33-21.29,8.69-2.71c2.94-.85,5.84-1.75,8.83-2.54,5.93-1.64,12-3.16,18.24-4.37-2.5,5.89-5.25,11.46-8.09,16.92-1.4,2.76-2.89,5.41-4.33,8.11l-4.48,7.92L304,130.9l-52.66,42.58-52.66,42.58L185.48,226.7,178.9,232l-1.65,1.33a14.07,14.07,0,0,0-1.57,1.42c-.5.51-1,1.08-1.47,1.56a5.82,5.82,0,0,1-1.79,1.14c-2.86,1-5.77,1.85-8.66,2.76s-5.84,1.75-8.84,2.52C149,244.37,142.91,245.86,136.55,247Z" transform="translate(-86 -34.03)"/></svg>