<svg xmlns="http://www.w3.org/2000/svg" xmlns:xlink="http://www.w3.org/1999/xlink" viewBox="0 0 345.08 427.83"><defs><style>.cls-1{fill:url(#linear-gradient);}.cls-2{fill:url(#linear-gradient-2);}.cls-3{fill:url(#linear-gradient-3);}.cls-4{fill:none;stroke-miterlimit:10;stroke-width:20px;stroke:url(#linear-gradient-4);}.cls-5{fill:url(#linear-gradient-5);}</style><linearGradient id="linear-gradient" x1="-7.96" y1="288.08" x2="235.08" y2="288.08" gradientUnits="userSpaceOnUse"><stop offset="0" stop-color="#fff"/><stop offset="0" stop-color="#1599ff"/><stop offset="0" stop-color="#111969"/><stop offset="0" stop-color="#18ca04"/><stop offset="0" stop-color="#496902"/><stop offset="0" stop-color="#3d8003"/><stop offset="0" stop-color="#457002"/><stop offset="0" stop-color="#4a6702"/><stop offset="0.37" stop-color="#4a6602"/><stop offset="0.54" stop-color="#4c6302"/><stop offset="0.72" stop-color="#1cc104"/><stop offset="0.82" stop-color="#349203"/><stop offset="0.87" stop-color="#3a8603"/><stop offset="1" stop-color="#4c6402"/><stop offset="1" stop-color="#7ad400"/><stop offset="1" stop-color="#929400"/><stop offset="1" stop-color="#00d405"/><stop offset="1" stop-color="#3d00c5"/><stop offset="1" stop-color="#198ef9"/><stop offset="1" stop-color="#002246"/><stop offset="1"/></linearGradient><linearGradient id="linear-gradient-2" x1="199.79" y1="213.91" x2="345.22" y2="213.91" xlink:href="#linear-gradient"/><linearGradient id="linear-gradient-3" x1="169.62" y1="213.88" x2="291.72" y2="213.88" gradientUnits="userSpaceOnUse"><stop offset="0" stop-color="#fff"/><stop offset="0" stop-color="#1599ff"/><stop offset="0" stop-color="#111969"/><stop offset="0.32" stop-color="#070167"/><stop offset="0.59" stop-color="#1801b7"/><stop offset="0.96" stop-color="#1901bc"/><stop offset="1" stop-color="#3d00c5"/><stop offset="1" stop-color="#198ef9"/><stop offset="1" stop-color="#002246"/><stop offset="1"/></linearGradient><linearGradient id="linear-gradient-4" x1="106.59" y1="255.45" x2="165.87" y2="255.45" gradientUnits="userSpaceOnUse"><stop offset="0" stop-color="#fff"/><stop offset="0" stop-color="#1599ff"/><stop offset="0" stop-color="#111969"/><stop offset="0.26" stop-color="#0701b7"/><stop offset="0.58" stop-color="#000189"/><stop offset="1" stop-color="#3d00c5"/><stop offset="1" stop-color="#198ef9"/><stop offset="1" stop-color="#002246"/><stop offset="1"/></linearGradient><linearGradient id="linear-gradient-5" x1="9.34" y1="127.78" x2="238.85" y2="127.78" gradientUnits="userSpaceOnUse"><stop offset="0" stop-color="#fff"/><stop offset="0" stop-color="#1599ff"/><stop offset="0" stop-color="#111969"/><stop offset="0.51" stop-color="#0701b7"/><stop offset="0.82" stop-color="#3d00c5"/><stop offset="1" stop-color="#198ef9"/><stop offset="1" stop-color="#002246"/><stop offset="1"/></linearGradient></defs><g id="Layer_2" data-name="Layer 2"><g id="Layer_1-2" data-name="Layer 1"><path class="cls-1" d="M0,153.52C3.48,170.29,6.77,187,10.32,203.63c1.75,8.32,3.55,16.64,5.39,24.89.95,4.13,1.89,8.2,2.93,12.26s2.17,8.2,3.2,12.37q3.14,12.5,5.82,25c1.86,8.35,3.53,16.74,5.23,25.07s3.26,16.71,5.32,24.46a58,58,0,0,0,3.66,10.5,27.16,27.16,0,0,0,6,7.94,18,18,0,0,0,3.61,2.75c1.44.85,3.2,1.72,5,2.58,3.66,1.73,7.55,3.4,11.43,5.09l23.38,10.26c7.77,3.48,15.57,6.91,23.32,10.47l11.63,5.31,5.8,2.69,2.84,1.32.55.25.73.3,1.46.6c15.6,6.49,31.43,12.5,47.4,18.26s32.13,11.12,48.35,16.59a483.4,483.4,0,0,1-50.57-9.05q-25.06-5.83-49.58-14l-1.53-.52-.76-.25-.94-.35-3-1.17-6-2.3-11.89-4.68c-7.94-3.1-15.83-6.32-23.73-9.49s-15.76-6.44-23.68-9.7c-4-1.66-7.89-3.34-12-5.21-2-1-4.13-1.95-6.37-3.25-.55-.32-1.12-.66-1.7-1s-1.15-.79-1.72-1.2a33.06,33.06,0,0,1-3.14-2.69c-.92-.89-1.75-1.81-2.63-2.73s-1.68-2-2.46-3a41.29,41.29,0,0,1-4.07-6.73,69.26,69.26,0,0,1-4.67-13.6c-1.09-4.41-1.89-8.68-2.7-12.94S18.69,310.23,18,306c-2.82-16.82-5.48-33.58-8.43-50.23L7.32,243.18c-.73-4.27-1.38-8.56-1.92-12.83-1.11-8.52-2-17-2.82-25.55C1.05,187.74,0,170.65,0,153.52Z"/><path class="cls-2" d="M205.12,0a191.94,191.94,0,0,1,49.41,35.14c3.63,3.51,7.23,7.2,10.68,11s6.73,7.69,10,11.53c6.44,7.64,12.9,15.61,18.83,24a295,295,0,0,1,16.49,26c2.53,4.47,5,9,7.25,13.6s4.43,9.19,6.56,13.91a258.65,258.65,0,0,1,10.85,29.07,223.92,223.92,0,0,1,7.31,30.41c.83,5.17,1.42,10.46,1.87,15.59s.74,10.47.75,15.75a173.11,173.11,0,0,1-2.86,31.55,195.32,195.32,0,0,1-8.42,30.15l-2.59,7.16c-.9,2.43-1.9,5-2.94,7.37l-6.19,13.74-12.32,27.31-6.22,13.62c-1,2.26-2.06,4.52-3,6.75s-1.87,4.45-2.76,6.73c-7.14,18.19-11.58,37.61-14.38,57.51-.41-5-.54-10.05-.59-15.11s.23-10.11.65-15.17a182.35,182.35,0,0,1,4.95-30.2c.3-1.25.64-2.49,1-3.73s.72-2.52,1.09-3.74c.75-2.45,1.52-4.85,2.3-7.25,1.56-4.79,3.2-9.52,4.8-14.27s3.26-9.46,4.92-14.2,3.31-9.47,5.06-14.17l5.15-14c.8-2.27,1.53-4.4,2.23-6.71l2.13-7.07a205.07,205.07,0,0,0,6.49-27.88,164.78,164.78,0,0,0,1.81-28.16c-.08-4.72-.36-9.4-.81-14.2s-1-9.46-1.8-14.17a212.71,212.71,0,0,0-6.46-27.91c-1.36-4.74-2.74-9.26-4.32-13.82s-3.29-9-5.07-13.54c-3.64-9.07-7.59-17.93-11.9-26.65-2.15-4.37-4.45-8.66-6.78-12.94s-4.75-8.51-7.28-12.67-5.12-8.3-7.84-12.39-5.53-8.17-8.33-12.32c-5.61-8.27-11.16-16.13-17.43-23.8a248.39,248.39,0,0,0-19.76-22A279.5,279.5,0,0,0,205.12,0Z"/><path class="cls-3" d="M179.21,256.08l5.34-32.66c1.74-10.86,3.35-21.68,5-32.59l2.63-16.31L195,158.26,197.88,142l3.05-16.21,7.26-38.52,10.22,38.37c.82,3.09,1.49,5.93,2.19,8.89l2.05,8.77c1.36,5.84,2.6,11.69,3.84,17.54s2.49,11.72,3.63,17.55l3.58,17.46c1.14,5.9,2.33,11.88,3.13,18.35a73.75,73.75,0,0,1-.08,20.34c-.23,1.71-.57,3.35-.89,5-.17.85-.43,1.82-.65,2.72s-.51,1.7-.76,2.55a97.64,97.64,0,0,1-3.57,9.16c-1.27,2.91-2.61,5.72-4,8.5s-2.78,5.46-4.37,8.28l-1.32,2.35-1.88,1.08-6.42,3.7-3-16c3.83.85,7.66,1.68,11.48,2.57l1.9.45,1,.68.54.38.42.31.8.61c.52.4,1,.81,1.5,1.22,1,.83,1.9,1.69,2.81,2.58a50.44,50.44,0,0,1,5.06,5.79l.57.79.49.72.94,1.42c.62.95,1.23,1.9,1.83,2.87q1.8,2.88,3.45,5.84c1.11,2,2.16,3.93,3.14,5.88l2.93,5.76c2,3.81,3.88,7.63,5.87,11.34l1.55,2.85c.55,1,1.09,2.07,1.57,3.09,1,2.05,1.83,4,2.71,6.06s1.69,4.06,2.48,6.06c.4,1,.79,2,1.18,2.89a14.55,14.55,0,0,0,1,2,1.13,1.13,0,0,0,.41.45,2.56,2.56,0,0,0,.44.24,3.67,3.67,0,0,0,.53.22,11.74,11.74,0,0,0,2.63.55,31.87,31.87,0,0,0,6.09-.05,83.93,83.93,0,0,0,12.66-2.2,62.59,62.59,0,0,1-5.82,3,63.74,63.74,0,0,1-6.16,2.46,33.88,33.88,0,0,1-6.71,1.56,16.64,16.64,0,0,1-3.8,0,8.18,8.18,0,0,1-1-.17,8.31,8.31,0,0,1-1.08-.29,7.46,7.46,0,0,1-2.29-1.28,14.3,14.3,0,0,1-2.74-3.23c-.66-1-1.23-1.9-1.82-2.82L253,327.16c-1.15-1.77-2.33-3.58-3.51-5.26-.58-.85-1.17-1.61-1.78-2.43l-1.95-2.57c-2.65-3.55-5.19-7.1-7.64-10.69l-3.66-5.35c-1.21-1.76-2.39-3.47-3.59-5.14s-2.44-3.32-3.7-4.92c-.63-.81-1.27-1.6-1.92-2.39l-1-1.18-.48-.57-.42-.48a34,34,0,0,0-3.77-3.61c-.69-.57-1.39-1.11-2.11-1.62-.35-.25-.71-.5-1.07-.73l-.52-.33-.24-.14-.1-.06s-.07,0,0,0l2.89,1.13c-3.89-.54-7.76-1.16-11.64-1.74l-21.94-3.32,18.95-12.63L209.9,259l-3.2,3.43,1.78-3.84,1.78-3.92c1.15-2.62,2.25-5.24,3.25-7.85s1.89-5.2,2.6-7.62l.47-1.75c.1-.56.23-1,.34-1.64.2-1.28.44-2.56.56-3.81s.22-2.51.31-3.76.07-2.49,0-3.76a74.54,74.54,0,0,0-.65-7.8c-.7-5.37-1.88-11.09-3.06-16.88l-3.44-17.62c-1.14-5.86-2.16-11.7-3.24-17.56l-3.2-17.52-1.61-8.74L201,129.79l17.47-.16-4.11,16-4.25,16-4.39,15.94-4.53,15.9c-1.58,5.29-3.08,10.56-4.73,15.87s-3.34,10.57-5.17,15.8C187.65,235.58,183.67,245.93,179.21,256.08Z"/><line class="cls-4" x1="156.03" y1="367.71" x2="116.44" y2="143.19"/><path class="cls-5" d="M18.77,212.94c2.42-6,5.14-11.6,8-17.07,1.38-2.78,2.88-5.41,4.32-8.12s3-5.3,4.51-7.89a5.68,5.68,0,0,1,1.49-1.52c.58-.41,1.22-.73,1.83-1.1A13.25,13.25,0,0,0,40.61,176l1.64-1.33,6.58-5.32L62,158.7l52.66-42.58,52.66-42.58,26.34-21.29,8.68-2.71c2.95-.85,5.84-1.76,8.84-2.54,5.93-1.64,12-3.16,18.24-4.37-2.5,5.89-5.25,11.46-8.09,16.92-1.4,2.76-2.89,5.41-4.34,8.11l-4.47,7.92L186.19,96.87l-52.67,42.58L80.86,182,67.7,192.67,61.11,198l-1.64,1.33a12.52,12.52,0,0,0-1.58,1.42c-.49.51-.94,1.08-1.46,1.56a5.87,5.87,0,0,1-1.8,1.14c-2.85.95-5.76,1.85-8.65,2.76s-5.84,1.75-8.85,2.52C31.18,210.34,25.13,211.82,18.77,212.94Z"/></g></g></svg>