<svg xmlns="http://www.w3.org/2000/svg" viewBox="0 0 382.9 445.68"><defs><style>.cls-1{fill:#a3ddcb;}.cls-2,.cls-4{fill:#fff;}.cls-3{fill:#111d5e;}.cls-4{stroke:#111d5e;stroke-miterlimit:10;stroke-width:20px;}</style></defs><g id="Layer_2" data-name="Layer 2"><g id="Layer_1-2" data-name="Layer 1"><path class="cls-1" d="M86.66,0c4.53,21.61,6.84,50.71-2.06,82.79-5.79,20.88-11.32,40.82-31,61.18C26.71,171.78,0,195.69,0,195.69l29.82,28,53.86,51.6s76.19,60.69,98.09,74.95c36.79,24,102.75,62.06,201.13,95.47"/><line class="cls-2" x1="75.7" y1="189.54" x2="261.07" y2="55.89"/><polygon class="cls-3" points="64 173.32 261.07 55.89 87.39 205.76 64 173.32"/><line class="cls-4" x1="180.56" y1="324.22" x2="143.29" y2="145.88"/><path class="cls-3" d="M205,128.67a103,103,0,0,1,11.27-14.35c1-1.15,2.16-2.18,3.24-3.28s2.21-2.16,3.39-3.16,2.33-2.06,3.53-3,2.46-1.91,3.71-2.86,2.56-1.8,3.85-2.71c.66-.44,1.3-.9,2-1.32l2-1.24c1.36-.81,2.72-1.65,4.16-2.35s2.83-1.52,4.32-2.17a68.3,68.3,0,0,1,19.12-5.93c1.78-.18,3.54-.39,5.36-.46l2.78,0a18.18,18.18,0,0,1,2.83.16,37.2,37.2,0,0,1,11.69,3,35.2,35.2,0,0,1,10.26,7.24,43,43,0,0,1,7.16,9.68,56.48,56.48,0,0,1,4.29,10.32l.72,2.43c.11.35.23.87.35,1.33l.35,1.41a49.69,49.69,0,0,1,.95,5.88,50.3,50.3,0,0,1-.21,11.72c-.1,1-.3,1.85-.45,2.78s-.3,1.87-.53,2.74c-.44,1.75-.82,3.58-1.37,5.23s-1,3.41-1.66,5-1.18,3.26-1.87,4.78c-1.32,3.15-2.81,6.08-4.3,9s-3.12,5.74-4.81,8.44c-.84,1.36-1.65,2.77-2.52,4.08l-2.62,4c-1.75,2.66-3.6,5.15-5.41,7.73l-5.33,7.24c-3.55,4.8-7.17,9.55-10.78,14.31-7.26,9.47-14.6,18.9-22.11,28.19s-15.08,18.49-22.95,27.64L221,248.71q9.14,5.34,18.2,10.8l9,5.48c1.53.94,3,1.79,4.56,2.79s3.12,1.93,4.65,3a179.7,179.7,0,0,1,17.85,13.38c2.8,2.41,5.46,4.84,8,7.15s5,4.51,7.45,6.59a152.64,152.64,0,0,0,33.77,20.79c6.18,2.87,12.57,5.5,19.09,7.92s13.17,4.67,19.9,6.94a182.64,182.64,0,0,1-42.64-3.83c-1.77-.37-3.54-.8-5.3-1.23L310.27,327c-3.51-1-7-2.12-10.47-3.46a119.77,119.77,0,0,1-20.26-9.7c-3.25-1.92-6.38-4-9.31-6s-5.74-3.94-8.52-5.74-5.54-3.51-8.36-5.16-5.7-3.21-8.64-4.71-5.87-3-9.05-4.54l-9.33-4.59c-6.22-3.06-12.4-6.19-18.56-9.34l-14.93-7.65,10.54-13.85c14.27-18.74,28.8-37.57,43.38-56.22l11-14,5.48-7c1.7-2.23,3.5-4.43,5.12-6.68,3.34-4.47,6.43-9,9.27-13.55,1.34-2.28,2.72-4.56,3.86-6.83.64-1.14,1.14-2.27,1.69-3.39s1-2.25,1.46-3.36.8-2.21,1.2-3.31c.22-.55.31-1.07.47-1.61s.33-1.08.42-1.59l.32-1.56c.12-.52.13-1,.22-1.52l.12-.75.05-.74a12.25,12.25,0,0,0,.09-1.48,27.22,27.22,0,0,0-.65-6.51,40.8,40.8,0,0,0-1.75-6.43,18,18,0,0,0-6.36-8.85,17.38,17.38,0,0,0-5.23-2.37,7.55,7.55,0,0,0-.76-.23l-.82-.14-1.67-.31c-1.15-.14-2.36-.18-3.56-.33H263l-3.89.32-4,.62c-1.32.24-2.65.55-4,.82s-2.66.72-4,1.06-2.66.82-4,1.27l-2,.65c-.67.23-1.32.51-2,.76-1.31.53-2.67,1-4,1.59a134.19,134.19,0,0,0-15.46,7.91A177.92,177.92,0,0,0,205,128.67Z"/></g></g></svg>