<svg xmlns="http://www.w3.org/2000/svg" viewBox="0 0 618.26 463.59"><defs><style>.cls-1{fill:#007d94;}.cls-2{fill:#51c2d5;}.cls-3{fill:#a4ebf3;}.cls-4{fill:#532e1c;}</style></defs><g id="Layer_2" data-name="Layer 2"><g id="Layer_1-2" data-name="Layer 1"><path class="cls-1" d="M347,152.83a41.77,41.77,0,0,1-1.37-8.07,44.79,44.79,0,0,1,.11-8.34,35.19,35.19,0,0,1,2-8.57,27.42,27.42,0,0,1,4.91-8.39,17.21,17.21,0,0,1,1.83-1.9,17.79,17.79,0,0,1,2.09-1.73c.76-.53,1.54-1,2.34-1.54s1.73-.85,2.62-1.23a26.72,26.72,0,0,1,10.8-1.69,55.43,55.43,0,0,1,8.82,1.19c2.64.53,5,1.06,7.19,1.47l1.64.31,1.58.23c1.07.2,2.05.21,3.08.36a44.81,44.81,0,0,0,5.91,0,38.39,38.39,0,0,0,11.92-3.1,74.91,74.91,0,0,0,12.3-6.81c1-.67,2.09-1.36,3.11-2.11s2.1-1.45,3.14-2.22,2.15-1.5,3.2-2.31,2.15-1.57,3.32-2.33a47.61,47.61,0,0,1-2.58,7.75,53.77,53.77,0,0,1-3.77,7.31,48.29,48.29,0,0,1-11.28,12.79,40.47,40.47,0,0,1-16.57,7.89,44.68,44.68,0,0,1-9.41.92,55.22,55.22,0,0,1-8.94-1c-.72-.13-1.41-.27-2.07-.43s-1.37-.29-2-.46l-3.73-1c-2.37-.62-4.55-1.21-6.3-1.5a16,16,0,0,0-4.39-.24,7,7,0,0,1-1,.16,9,9,0,0,1-1,.35,5.67,5.67,0,0,0-1.06.46,6.38,6.38,0,0,0-1.07.61c-2.9,1.81-5.82,5.27-8.26,9.41-1.25,2-2.42,4.27-3.59,6.57S348.21,150.38,347,152.83Z"/><path class="cls-2" d="M2.42,452.47c1.05,0,2.07.07,3.08.12s2,0,3,0a44.48,44.48,0,0,0,5.74-.39,41.74,41.74,0,0,0,5.23-1,22.85,22.85,0,0,0,4.44-1.78,16.17,16.17,0,0,0,6-5.1,17.52,17.52,0,0,0,1-1.55,11.56,11.56,0,0,0,.85-1.54c.27-.48.46-1.1.69-1.6s.38-1.15.57-1.68a78.42,78.42,0,0,0,1.74-8c.52-3,.94-6.35,1.33-10s.9-7.5,1.42-11.63,1.19-8.47,2-13a118.41,118.41,0,0,1,9.47-29.5,92.82,92.82,0,0,1,9.25-15.36c.91-1.25,1.84-2.5,2.85-3.7s2-2.45,3.06-3.61l3.29-3.45.42-.43.53-.49,1.07-1c.71-.66,1.45-1.3,2.21-1.92A82.47,82.47,0,0,1,81,329.19c3-1.89,5.94-3.48,8.55-4.81,5.29-2.68,9.67-4.65,13.78-6.53l6-2.62c2-.86,3.56-1.62,6.11-2.59,2.35-.92,4.62-1.89,7.13-2.69s4.9-1.69,7.5-2.42l3.86-1.12,4-1c2.64-.7,5.31-1.2,8-1.74,1.33-.26,2.63-.47,3.95-.7l2-.33,1.9-.29,3.76-.54,3.51-.48c4.51-.6,8.57-1,11.84-1.58l1.29-.19,1.18-.22,2.35-.42c1.47-.35,3-.58,4.41-.92s2.87-.63,4.31-1l2.15-.56c.72-.19,1.46-.42,2.18-.63l2.19-.63,2.77-.74c1.87-.51,3.67-1,5.33-1.49,3.37-1,6.35-2,9-2.91s5.08-1.92,7.33-2.95,4.33-2.12,6.39-3.28,4.08-2.41,6.11-3.83c1.05-.68,1.95-1.42,2.9-2.09s1.68-1.32,2.51-1.94c.43-.31.69-.63,1-.93s.7-.58,1-.91c.6-.63,1.23-1.2,1.89-2l.5-.53c.17-.16.39-.42.58-.63l1.23-1.34,3.25-3.69,4.18-4.76c1.66-1.83,3.22-3.6,5.08-5.54.92-.94,1.8-1.88,2.74-2.82l2.88-2.83c1.9-1.9,3.92-3.68,5.89-5.51s4-3.48,6-5.22c1-.88,2-1.66,3-2.47l3-2.4c1-.81,2-1.58,3-2.31l3-2.21,3-2.2,2.56-1.82c3.5-2.44,7.08-5,11.22-7.72s8.64-5.51,13.73-8.36a139.37,139.37,0,0,1,17.07-8.15,130.68,130.68,0,0,1,19.8-6c1.7-.35,3.41-.71,5.11-1l5.07-.79c1.72-.22,3.51-.37,5.27-.54.89-.08,1.72-.17,2.67-.22l2.88-.13,2.87-.09c.94,0,2,0,3,0,2.06.05,4.06.08,6.23.27s4.26.36,6.35.69l3.14.47,2.91.56c2.06.4,3.51.78,5.15,1.18l.59.15.43.12.88.25.87.25.4.12.23.07.95.31c.22.07.15.06.2.09l.06.05.07.07s0,0-.07,0H406a5.24,5.24,0,0,0-.56,0c-.28,0-.64,0-1,0s-.66,0-1,0a10,10,0,0,0-1.09.09c-.36.06-.62.05-.94.11s-.61.13-.87.2a3.16,3.16,0,0,0-.53.13,4.09,4.09,0,0,0-.47.19.38.38,0,0,0-.12.09.83.83,0,0,0-.09.16s.06,0,.09,0,.16.12.27.16.49.15.89,0a6.32,6.32,0,0,0,1.39-.27c.28-.09.6-.25.92-.35l.49-.16.56-.27a31.71,31.71,0,0,0,5.21-3.15c.51-.38,1-.76,1.52-1.12s1.07-.85,1.61-1.26c1.08-.8,2.24-1.87,3.38-2.82,2.37-2.1,4.76-4.37,7.41-6.95l2-2,2-2,3.92-3.94c2.34-2.27,4.53-4.47,6.7-6.79l1.62-1.76L441,164l1.73-2,.93-1.11,1-1.18,4.79-6c1.08-1.31,2-2.46,3.35-4,.64-.73,1.23-1.41,1.93-2.17s1.47-1.54,2.22-2.29,1.57-1.51,2.4-2.26,1.67-1.5,2.53-2.22,1.76-1.39,2.65-2.07c.44-.33.89-.68,1.34-1l1.32-.9c.88-.59,1.78-1.18,2.67-1.75s1.7-1,2.56-1.48,1.71-1,2.56-1.39l2.58-1.24a75.79,75.79,0,0,1,22.88-6.68c2-.22,4-.44,5.88-.48l2.87-.07c.94,0,1.81,0,2.72.07s1.81.08,2.67.14l2.48.25c1.71.16,3.11.42,4.61.65l1.08.19,1,.19,2,.41c.64.13,1.15.27,1.73.4l1.65.41c2,.51,3.72,1.07,4.87,1.48l.9.33.66.28a5.67,5.67,0,0,1,1,.53c.3.18.48.27.75.46a3.27,3.27,0,0,0,.86.42l.47.23a3.25,3.25,0,0,0,.54.12c.37.07.75.2,1.16.27l1.36.06a4.35,4.35,0,0,0,.73,0l.79-.07,1.66-.12,1.8-.39a24.84,24.84,0,0,0,3.86-1.15l1-.33c.34-.12.68-.31,1-.46l2.08-.94c1.41-.58,2.85-1.44,4.32-2.19.74-.4,1.49-.76,2.23-1.2l2.2-1.4c1.48-1,3-1.82,4.47-2.94s2.93-2.17,4.49-3.22,3-2.33,4.5-3.5c3.1-2.28,5.86-5,9-7.53s5.93-5.38,9-8.11l9-8.52,4.49-4.4c1.54-1.45,3-2.93,4.65-4.37l5.36,2.7-5.49,11c-1.91,3.61-3.89,7.2-5.83,10.8-2.09,3.53-4.17,7.07-6.34,10.56l-3.38,5.17-1.7,2.58L593.71,125l-3.63,5-3.89,4.87c-1.25,1.65-2.7,3.17-4.08,4.73L580,142c-.71.77-1.48,1.49-2.22,2.24a80.46,80.46,0,0,1-20.43,15.4,54.7,54.7,0,0,1-6.06,2.65c-1,.35-2.13.66-3.2,1-.53.15-1.06.35-1.61.46l-1.65.33a45.71,45.71,0,0,1-6.7.9,59.9,59.9,0,0,1-6.58-.06c-4.27-.23-8.28-.75-12.08-.91a42.61,42.61,0,0,0-10.87.72,33,33,0,0,0-9.83,3.84l-1.17.67c-.39.23-.74.5-1.12.74s-.75.49-1.1.75l-1,.81c-.71.51-1.3,1.13-1.95,1.68s-1.21,1.2-1.77,1.88a70.27,70.27,0,0,0-6.38,9.31c-2.11,3.45-4.29,7-6.62,10.45s-4.75,6.86-7.3,10.14c-1.26,1.67-2.51,3.25-3.77,4.86l-3.81,4.8a192.32,192.32,0,0,1-16.7,18.6,99.93,99.93,0,0,1-9.82,8.31l-1.3,1-1.36.92c-.91.6-1.8,1.22-2.73,1.8-1.91,1.1-3.78,2.26-5.8,3.19S421,250.25,419,251.1c-1.05.38-2.13.7-3.19,1.05-.54.17-1.07.35-1.61.5l-1.65.4-1.66.4c-.56.12-1.15.2-1.72.3l-1.73.28c-.59.06-1.19.1-1.78.15a36.86,36.86,0,0,1-7.2-.14c-2.33-.31-4.57-.78-6.57-1.25s-3.86-.92-5.64-1.22a43.23,43.23,0,0,0-10.73-.55,64.35,64.35,0,0,0-11,1.71,70.06,70.06,0,0,0-10.64,3.5,115.65,115.65,0,0,0-20.09,11.39c-6.52,4.47-13.18,9.26-19.35,14a164.77,164.77,0,0,0-17.54,15.6c-5.5,5.55-10.63,11.88-16.91,17.79-1.53,1.5-3.18,2.89-4.81,4.29-.81.71-1.69,1.34-2.52,2s-1.68,1.36-2.57,2c-1.75,1.22-3.47,2.52-5.27,3.62s-3.57,2.3-5.41,3.34a126.5,126.5,0,0,1-11.25,5.89,120,120,0,0,1-11.78,4.78,177.68,177.68,0,0,1-24.23,6.43l-6,1.18c-2,.39-4,.75-6.09,1.1s-4.12.68-6.19,1-4.15.52-6.23.75c-8.32.9-16.68,1-24.64,1.27-4,.1-7.88.34-11.76.7-1.93.23-3.87.4-5.78.72l-2.88.44-2.87.55c-3.83.72-7.64,1.65-11.44,2.7-1.87.49-3.85,1.08-5.78,1.63l-5.79,1.7c-7.66,2.32-15.17,4.61-20.94,8.64-.74.5-1.43,1-2.15,1.61l-2.14,1.82c-.71.61-1.36,1.29-2.05,1.92s-1.33,1.33-2,2a64.17,64.17,0,0,0-7,8.93A111.9,111.9,0,0,0,70,406.87c-3,7.38-5.48,15.06-8.54,22.77a108.84,108.84,0,0,1-5.24,11.48,54,54,0,0,1-7.44,10.75A37.55,37.55,0,0,1,38.07,460a33.68,33.68,0,0,1-13,3.48,42,42,0,0,1-6.64-.14A52.38,52.38,0,0,1,12,462.23,67.93,67.93,0,0,1,0,458Z"/><path class="cls-3" d="M126.52,327.84a95.7,95.7,0,0,1-1.27-23.33c.12-2,.39-3.95.59-5.93.15-1,.33-2,.49-3s.34-2,.57-3,.46-2,.7-3l.87-3a30.75,30.75,0,0,1,1-3c.36-1,.72-2,1.18-3a46.46,46.46,0,0,1,6.86-11.43,36.57,36.57,0,0,1,11.2-9.19,32.78,32.78,0,0,1,7.18-2.7,33.86,33.86,0,0,1,7.23-.92,48.39,48.39,0,0,1,6.51.3c2,.2,3.92.5,5.73.79,3.61.57,6.83,1.12,10,1.35a33.41,33.41,0,0,0,9.59-.62,34,34,0,0,0,9.5-3.52,35,35,0,0,0,4.3-2.82,34,34,0,0,0,3.79-3.53,58.36,58.36,0,0,0,6.36-8.84l3-4.85q1.57-2.43,3.22-4.86c2.23-3.21,4.64-6.33,7.16-9.37q2-2.19,4-4.45a28.12,28.12,0,0,1,2.08-2.15l2.14-2.1c1.4-1.47,3-2.72,4.5-4,.78-.65,1.53-1.34,2.34-2l2.46-1.79,2.49-1.8,2.59-1.63,2.63-1.6c.9-.49,1.81-1,2.72-1.43a86.33,86.33,0,0,1,23.36-7.89,89.51,89.51,0,0,1,12.5-1.57l1.42-.07,1.59-.06c1.07-.05,2.14,0,3.2,0q3.21,0,6.41.35c2.13.19,4.25.47,6.34.84s4.13.84,6.13,1.33c4,1,7.75,2.22,10.89,3.15,1.57.46,3,.81,4.07,1a11.22,11.22,0,0,0,2.33.21,3.74,3.74,0,0,0,1.71-.42c.18-.11.37-.2.57-.31l.64-.4c.4-.35.86-.65,1.27-1a23.12,23.12,0,0,0,4.69-6.53c1.58-2.93,3.14-6.63,5.42-10.44a34.43,34.43,0,0,1,9.24-10.53,29.72,29.72,0,0,1,12.71-5.46,31,31,0,0,1,6.62-.38,33.76,33.76,0,0,1,6.26,1,41.45,41.45,0,0,1,11.06,4.6l-.61,1.91a56.33,56.33,0,0,0-11,.08,34,34,0,0,0-5,1,24.78,24.78,0,0,0-4.42,1.73c-.69.34-1.33.75-2,1.12A21.24,21.24,0,0,0,374,172c-.28.25-.56.47-.83.7l-.77.76a14.35,14.35,0,0,0-1.42,1.61,23.5,23.5,0,0,0-3.94,7.54c-1,3-1.85,6.39-3.15,10.39a47.88,47.88,0,0,1-2.6,6.3c-.28.55-.52,1.09-.85,1.64l-1,1.63-.51.81-.59.79-1.21,1.56c-.85,1-1.81,2-2.74,2.94l-1.56,1.36c-.55.45-1.15.87-1.73,1.3a24.12,24.12,0,0,1-8.67,3.78,28.1,28.1,0,0,1-8.89.41,49.83,49.83,0,0,1-6.94-1.3c-4.1-1.05-7.46-2.11-10.77-3a95.08,95.08,0,0,0-9.63-2.15c-1.6-.27-3.2-.45-4.81-.63-.81-.06-1.62-.16-2.43-.19l-1.23-.07c-.35,0-1,0-1.39-.06a72.24,72.24,0,0,0-9.94.26c-1.68.11-3.35.39-5,.59l-2.5.45c-.84.15-1.68.27-2.5.48-1.66.38-3.34.7-5,1.16l-2.49.64c-.82.22-1.63.49-2.45.74s-1.65.5-2.48.73l-2.43.88-2.47.84-2.4,1-2.42,1c-.81.35-1.57.77-2.36,1.15a52.4,52.4,0,0,0-4.69,2.47l-2.28,1.37a26.16,26.16,0,0,0-2.25,1.45c-1.46,1-2.9,2.09-4.35,3.16a63,63,0,0,0-7.76,7.48l-1.73,2.09c-.57.71-1.09,1.46-1.64,2.19q-1.62,2.21-3.13,4.58c-2.06,3.11-4,6.44-6.47,9.66a55.49,55.49,0,0,1-8.34,8.95A56.89,56.89,0,0,1,199,268.6a45.3,45.3,0,0,1-12.3,4.43,63.87,63.87,0,0,1-12.45,1.18c-1.94,0-3.81,0-5.52,0s-3.3.07-4.74.17a21.72,21.72,0,0,0-7.32,1.65,23.13,23.13,0,0,0-6.45,4.6,33.09,33.09,0,0,0-3,3.32c-.92,1.23-1.84,2.51-2.71,3.88a71.84,71.84,0,0,0-4.73,8.94c-.78,1.56-1.37,3.24-2.1,4.86s-1.31,3.34-1.93,5.05c-2.54,6.83-4.69,14-7.23,21.29Z"/><path class="cls-4" d="M296,140.37a150.9,150.9,0,0,0,23.56-20.14,144.22,144.22,0,0,0,9.89-11.63c3.13-4,6-8.2,8.82-12.45s5.39-8.62,7.85-13.05,4.92-9,7.27-13.59,4.64-9.16,6.81-13.78l3.17-7,1.51-3.47c.49-1.13,1-2.36,1.39-3.38L379,9.05l.53,35.39c.11,7.22,0,14.36-.14,21.54s-.45,14.35-.86,21.53c-.22,3.6-.47,7.19-.76,10.79-.17,1.83-.31,3.67-.52,5.5l-.7,5.47c-1,7.26-2.45,14.4-4.06,21.47s-3.51,14-5.62,20.94c-.53,1.72-1,3.45-1.58,5.16L363.59,162q-1.69,5.13-3.53,10.19a398.64,398.64,0,0,1-16.74,39.64c3-14,6.35-27.9,9.39-41.77l2.23-10.4,2.12-10.4c.71-3.46,1.3-6.93,2-10.39s1.22-6.93,1.76-10.39c1.12-6.92,2-13.84,2.74-20.73l.43-5.16.32-5.15c.18-3.51.34-7,.46-10.56.28-7,.48-14.12.65-21.2s.29-14.18.44-21.21L379,47c-.58,1.41-1.11,2.58-1.68,3.83s-1.13,2.44-1.71,3.65c-1.14,2.43-2.37,4.8-3.6,7.16-2.48,4.71-5,9.37-7.77,13.92s-5.5,9-8.45,13.47-6.14,8.82-9.5,13a139.33,139.33,0,0,1-22.7,22.71A107.19,107.19,0,0,1,296,140.37Z"/><path class="cls-4" d="M150.09,311.61a21.73,21.73,0,0,0,10.58-3.29,26.41,26.41,0,0,0,4-3.3c1.25-1.24,2.45-2.68,3.73-4.15,2.56-3,4.93-6.11,7.23-9.21,1.13-1.57,2.23-3.16,3.27-4.76l1.54-2.38.72-1.17.34-.57.15-.27.07-.12v0l0,0,.14-.18c.2-.23.4-.46.61-.68l-.76.85,7.07-12.14c2.32-4,4.42-7.95,6.53-11.87s4-7.94,5.92-12,3.77-8.14,5.54-12.27a504.7,504.7,0,0,0,18.73-50.22l1.93-6.39c.64-2.13,1.19-4.29,1.85-6.41q1.86-6.4,3.52-12.87c2.11-8.64,4.3-17.26,6-26l2.5-13.08q1.19-6.55,2.14-13.12l.91-6.57c.3-2.12.59-4.33.86-6.55.54-4.42,1-9.06,1.47-13.46L254.45,0,287.6,71l1.35,2.9,1.2,2.78c.78,1.85,1.54,3.69,2.29,5.56,1.48,3.73,2.91,7.52,4.25,11.44a122.38,122.38,0,0,1,3.61,12.45l.75,3.45.56,3.12c.36,2.1.66,4.17.93,6.2.56,4.05.87,8,1.15,11.88s.48,7.74.65,11.56c.11,1.91.13,3.81.18,5.72l.1,5.64c.05,3.79.13,7.6.08,11.42a388.13,388.13,0,0,1-3.08,45.65,296.68,296.68,0,0,1-9.14,44.75l-2.5-.12q.79-22.18.06-44.37c-.54-14.77-1.37-29.53-2.86-44.24-.73-7.34-1.59-14.71-2.5-22s-2-14.64-3.35-21.84c-.69-3.58-1.48-7.19-2.47-10.63s-2.26-6.9-3.59-10.31c-2.68-6.8-5.74-13.54-9-20l4.38-.91c-.63,9.43-1.4,18.88-2.65,28.28s-2.77,18.76-4.78,28a399.21,399.21,0,0,1-15.76,54.56,368.77,368.77,0,0,1-23.71,51.58,280,280,0,0,1-15,24.16c-5.44,7.79-11.36,15.19-17.35,22.45l-.13.14c.1-.1-.07.09-.14.17l-.25.3-.52.59-1,1.17c-.7.76-1.41,1.52-2.12,2.27q-2.16,2.24-4.41,4.37c-3,2.83-6.13,5.54-9.39,8.08s-6.82,5-11,6.34a25,25,0,0,1-12.77.59Z"/><path class="cls-1" d="M64.2,252.41c7.35-.53,14.4-1,21.29-2a183,183,0,0,0,20.1-3.82,157.25,157.25,0,0,0,19.06-6.09c1.53-.64,3.08-1.23,4.62-1.83s3-1.36,4.53-2l2.27-1a23,23,0,0,0,2.24-1.07l4.43-2.26c1.5-.71,2.93-1.55,4.37-2.39l4.34-2.45,4.26-2.65c.71-.44,1.43-.86,2.13-1.32s1.39-.94,2.09-1.41c5.66-3.61,11-7.76,16.47-11.91s10.66-8.72,16-13.33c1.35-1.14,2.67-2.32,4-3.51s2.66-2.36,4-3.56c2.68-2.39,5.3-4.86,8.11-7.26a81.6,81.6,0,0,1-4.07,10.23c-.75,1.69-1.62,3.3-2.47,4.93s-1.77,3.21-2.7,4.8a123.21,123.21,0,0,1-13,17.92c-1.18,1.43-2.5,2.74-3.76,4.12s-2.57,2.7-3.95,4-2.72,2.57-4.12,3.81-2.89,2.39-4.34,3.58q-1.08.9-2.19,1.77c-.75.57-1.53,1.1-2.29,1.65l-4.63,3.24c-1.6,1-3.23,2-4.85,2.95s-3.24,2-5,2.77l-5.1,2.53c-.84.43-1.72.79-2.6,1.14L140.76,253l-2.65,1a25.07,25.07,0,0,1-2.67,1c-1.82.57-3.63,1.14-5.45,1.66l-2.73.8-2.77.66c-1.84.47-3.71.78-5.58,1.1s-3.74.59-5.62.82-3.77.33-5.64.49C92.58,261.34,77.42,258.91,64.2,252.41Z"/><ellipse class="cls-3" cx="154.88" cy="157" rx="9.31" ry="20.38"/><ellipse class="cls-3" cx="107.4" cy="197.08" rx="8.14" ry="21.84"/><path class="cls-3" d="M25.84,433.82c11.34-4.76,21.49-11.32,28.54-19.57a50.75,50.75,0,0,0,8.27-13.46,70.54,70.54,0,0,0,4.29-15.34l1.5-8.74a96,96,0,0,1,2.27-10.26,42.69,42.69,0,0,1,2.27-6A34.12,34.12,0,0,1,76.89,354a32.57,32.57,0,0,1,5.9-5.89c.57-.42,1.12-.84,1.73-1.24s1.28-.78,1.93-1.16a26.53,26.53,0,0,1,4.5-2,27.35,27.35,0,0,1,5.37-1.22c.91-.1,1.83-.16,2.75-.2s1.67,0,2.52.09l1.24.09,1,.14c.68.1,1.42.22,2.05.34l1.69.38.81.19.67.16a41.75,41.75,0,0,0,7.42,1.49,24.61,24.61,0,0,0,5.34-.22c1-.17,1.89-.29,2.87-.55.49-.12,1-.18,1.45-.33l1.45-.43a11.65,11.65,0,0,0,1.44-.49c.48-.18,1-.33,1.44-.53,1-.45,1.92-.79,2.88-1.32a49,49,0,0,0,5.72-3.34,87.81,87.81,0,0,0,11.54-9.26l1.5-1.41,1.56-1.48.8-.77.66-.68,1.3-1.33c1.71-1.78,3.32-3.54,4.82-5.35s2.84-3.66,4.22-5.78,2.81-4.43,5.19-7.85c.65-.9,1.19-1.7,2.09-2.78l1.25-1.52c.44-.52,1-1.12,1.54-1.66s1-1.09,1.67-1.65,1.31-1.12,2-1.66a37.26,37.26,0,0,1,4.36-3,23.65,23.65,0,0,1,2.3-1.25c.77-.37,1.55-.74,2.34-1.09.4-.19.77-.33,1.13-.46l1.1-.39c.74-.26,1.48-.5,2.23-.74a43.09,43.09,0,0,1,9-1.68,43.69,43.69,0,0,1,9.24.26,48.69,48.69,0,0,1,8.12,1.83,110.76,110.76,0,0,1,10.76,4.23c1.14.47,1.94.8,2.25.88s.11,0-.66-.11a9.11,9.11,0,0,0-3,.23,7.35,7.35,0,0,0-1.22.39l-.4.18c-.11.05-.19.12-.33.18a1.21,1.21,0,0,0-.35.24,3.5,3.5,0,0,0-.55.4c-.15.16-.39.32-.57.51a3.58,3.58,0,0,0-.26.29l-.23.24a4.39,4.39,0,0,0-.52.69.26.26,0,0,1,.05-.12,1.41,1.41,0,0,0,.1-.18l.12-.26,2-3.94.67-1.29.73-1.37c.48-.9,1-1.84,1.6-2.74a82.22,82.22,0,0,1,7.39-10.15,96.84,96.84,0,0,1,8.22-8.59,92.75,92.75,0,0,1,19.32-13.87c1.74-.94,3.49-1.79,5.21-2.6.86-.4,1.71-.78,2.54-1.14s1.5-.65,2.51-1.06a74.94,74.94,0,0,1,12.28-4c2.19-.52,4.31-.86,6.32-1.16s3.75-.46,5.31-.61c3.19-.33,5.79-.5,8.42-.81,1.31-.14,2.6-.33,3.91-.51s2.55-.38,4.12-.66c3-.51,5.9-1,8.65-1.52a106.75,106.75,0,0,0,14.33-3.47A43.89,43.89,0,0,0,343.5,234a53,53,0,0,0,5.32-3.24,42.79,42.79,0,0,0,9.38-9.18c1.53-2,3.08-4.22,4.81-6.69s3.56-5.21,5.7-8.13a78,78,0,0,1,7.64-9,52,52,0,0,1,10.26-7.94c.95-.52,1.9-1.06,2.86-1.55s1.94-.94,2.92-1.35,1.94-.8,2.94-1.16l3.06-1c1.11-.29,2.22-.57,3.33-.83s2.35-.44,3.55-.59,2.46-.25,3.67-.23l1.82,0c.6,0,1.16.08,1.74.12,1.19.08,2.16.25,3.21.4.51.08.91.17,1.38.26s.93.17,1.28.26l4,.91a29.18,29.18,0,0,0,6.51.77c9.44.11,19.73-3.78,29.28-10a123.1,123.1,0,0,0,13.93-10.73c2.23-2,4.51-4,6.65-6.19,1.1-1.06,2.18-2.14,3.23-3.26l3.26-3.3,2.1,1.35a184.12,184.12,0,0,1-10.71,15.1A117.87,117.87,0,0,1,464,182.4a76.46,76.46,0,0,1-15.26,10.84A62.88,62.88,0,0,1,440,197a56.78,56.78,0,0,1-9.23,2.26,40.32,40.32,0,0,1-9.57.3c-3.16-.24-6.18-.82-9-.84a22.18,22.18,0,0,0-8.31,1.43,36.56,36.56,0,0,0-7.73,3.94c-4.82,3.23-8.59,7.78-11.8,12.82s-6.06,10.52-9.51,15.74a65.74,65.74,0,0,1-12.37,14.29,63.64,63.64,0,0,1-16.12,9.93,104.94,104.94,0,0,1-17.9,5.52c-3,.69-6,1.32-9,1.95s-6.08,1.24-9.14,1.71-6.15.87-9.18,1.23a71.29,71.29,0,0,0-8.77,1.47,50.55,50.55,0,0,0-8.29,2.87c-2.75,1.2-5.44,2.5-8,3.95A71,71,0,0,0,261.75,286a66.82,66.82,0,0,0-11.22,13.61c-1.54,2.51-2.78,5.11-4.25,8a22.82,22.82,0,0,1-2.78,4.29,16.22,16.22,0,0,1-4.09,3.46,17.79,17.79,0,0,1-4.87,2.09,15.47,15.47,0,0,1-5.37.41,29.89,29.89,0,0,1-9.49-2.94,81.27,81.27,0,0,0-8.22-3.48,21.2,21.2,0,0,0-8.14-1.17,18.52,18.52,0,0,0-7.73,2.23,20.2,20.2,0,0,0-5.9,5.68c-1.75,2.36-3.46,4.95-5.31,7.46s-3.84,4.95-5.91,7.3a127.14,127.14,0,0,1-13.64,12.77,101.31,101.31,0,0,1-15.35,10.72,67.52,67.52,0,0,1-8.56,4c-1.46.62-3,1.06-4.49,1.57-.76.23-1.54.41-2.3.62s-1.54.41-2.32.54l-2.35.45c-.78.15-1.58.21-2.37.32a47.38,47.38,0,0,1-4.77.35,44.18,44.18,0,0,1-9.59-.87,81.59,81.59,0,0,1-9-2.64c-2.86-.94-5.43-1.43-7.84-.68a10.26,10.26,0,0,0-1.8.75l-.89.46c-.29.17-.56.37-.85.55a16,16,0,0,0-3,2.73A25.07,25.07,0,0,0,85.17,372c-2.1,5.5-3.39,11.54-5.28,17.45a76.83,76.83,0,0,1-7.57,17.15,58.71,58.71,0,0,1-12.25,14.26,65.74,65.74,0,0,1-15.94,9.82,88.63,88.63,0,0,1-17.76,5.58Z"/><ellipse class="cls-2" cx="207.78" cy="137.22" rx="9.31" ry="20.38"/><ellipse class="cls-3" cx="217.51" cy="116.54" rx="9.31" ry="20.38"/><ellipse class="cls-2" cx="184.67" cy="106.2" rx="9.31" ry="20.38"/><ellipse class="cls-3" cx="194.4" cy="85.52" rx="9.31" ry="20.38"/><ellipse class="cls-2" cx="421.87" cy="148.77" rx="9.31" ry="20.38"/><ellipse class="cls-3" cx="431.6" cy="128.09" rx="9.31" ry="20.38"/></g></g></svg>