<svg id="Layer_1" data-name="Layer 1" xmlns="http://www.w3.org/2000/svg" xmlns:xlink="http://www.w3.org/1999/xlink" viewBox="0 0 223.83 228.09"><defs><style>.cls-1{fill:#f26f21;stroke-width:7px;}.cls-1,.cls-2,.cls-3{stroke:#2f1110;stroke-miterlimit:10;}.cls-2{stroke-width:6px;fill:url(#linear-gradient);}.cls-3{stroke-width:8px;fill:url(#Orange_Yellow);}</style><linearGradient id="linear-gradient" x1="67.12" y1="99.73" x2="247.17" y2="99.73" gradientUnits="userSpaceOnUse"><stop offset="0" stop-color="#fff23a"/><stop offset="0" stop-color="#fbd53b"/><stop offset="0" stop-color="#f6b33c"/><stop offset="0" stop-color="#f3983c"/><stop offset="0" stop-color="#f0853d"/><stop offset="0" stop-color="#ef7a3d"/><stop offset="0" stop-color="#ee763d"/><stop offset="0.07" stop-color="#fdc60b"/><stop offset="0.24" stop-color="#f28b3f"/><stop offset="0.39" stop-color="#ed693c"/><stop offset="0.59" stop-color="#e83e39"/></linearGradient><linearGradient id="Orange_Yellow" x1="56.62" y1="132.8" x2="256.91" y2="132.8" gradientUnits="userSpaceOnUse"><stop offset="0" stop-color="#fff23a"/><stop offset="0.04" stop-color="#fee62d"/><stop offset="0.12" stop-color="#fed41a"/><stop offset="0.2" stop-color="#fdc90f"/><stop offset="0.28" stop-color="#fdc60b"/><stop offset="0.67" stop-color="#f28f3f"/><stop offset="0.89" stop-color="#ed693c"/><stop offset="1" stop-color="#e83e39"/></linearGradient></defs><path class="cls-1" d="M144.82,197.52l-36.26,37.14a259.13,259.13,0,0,0,5.27-43.24Z" transform="translate(-34.18 -17.58)"/><path class="cls-2" d="M247.17,92.67l-69.23,70.92q-15.88-13-31.77-26Q122.76,117.5,99.35,97.35A253.21,253.21,0,0,0,67.12,35.86a241.07,241.07,0,0,0,79.43,45.62A236.79,236.79,0,0,0,247.17,92.67Z" transform="translate(-34.18 -17.58)"/><path class="cls-3" d="M243.12,216.86l-98.3-19.34-31-6.1-23.06-4.54L42.83,48.74,99.35,97.35q23.41,20.15,46.82,40.26,15.89,13,31.77,26Z" transform="translate(-34.18 -17.58)"/></svg>